%TF.GenerationSoftware,KiCad,Pcbnew,8.0.3*%
%TF.CreationDate,2024-09-18T17:44:19+02:00*%
%TF.ProjectId,pcb_robot,7063625f-726f-4626-9f74-2e6b69636164,rev?*%
%TF.SameCoordinates,Original*%
%TF.FileFunction,Legend,Bot*%
%TF.FilePolarity,Positive*%
%FSLAX46Y46*%
G04 Gerber Fmt 4.6, Leading zero omitted, Abs format (unit mm)*
G04 Created by KiCad (PCBNEW 8.0.3) date 2024-09-18 17:44:19*
%MOMM*%
%LPD*%
G01*
G04 APERTURE LIST*
%ADD10C,0.100000*%
%ADD11C,0.125000*%
G04 APERTURE END LIST*
D10*
X139500000Y-71000000D02*
X147000000Y-71000000D01*
X147000000Y-92000000D01*
X139500000Y-92000000D01*
X139500000Y-71000000D01*
D11*
X164541166Y-105367950D02*
X164574500Y-105439378D01*
X164574500Y-105439378D02*
X164607833Y-105463188D01*
X164607833Y-105463188D02*
X164674500Y-105486997D01*
X164674500Y-105486997D02*
X164774500Y-105486997D01*
X164774500Y-105486997D02*
X164841166Y-105463188D01*
X164841166Y-105463188D02*
X164874500Y-105439378D01*
X164874500Y-105439378D02*
X164907833Y-105391759D01*
X164907833Y-105391759D02*
X164907833Y-105201283D01*
X164907833Y-105201283D02*
X164207833Y-105201283D01*
X164207833Y-105201283D02*
X164207833Y-105367950D01*
X164207833Y-105367950D02*
X164241166Y-105415569D01*
X164241166Y-105415569D02*
X164274500Y-105439378D01*
X164274500Y-105439378D02*
X164341166Y-105463188D01*
X164341166Y-105463188D02*
X164407833Y-105463188D01*
X164407833Y-105463188D02*
X164474500Y-105439378D01*
X164474500Y-105439378D02*
X164507833Y-105415569D01*
X164507833Y-105415569D02*
X164541166Y-105367950D01*
X164541166Y-105367950D02*
X164541166Y-105201283D01*
X164707833Y-105677474D02*
X164707833Y-105915569D01*
X164907833Y-105629855D02*
X164207833Y-105796521D01*
X164207833Y-105796521D02*
X164907833Y-105963188D01*
X164207833Y-106129854D02*
X164774500Y-106129854D01*
X164774500Y-106129854D02*
X164841166Y-106153664D01*
X164841166Y-106153664D02*
X164874500Y-106177473D01*
X164874500Y-106177473D02*
X164907833Y-106225092D01*
X164907833Y-106225092D02*
X164907833Y-106320330D01*
X164907833Y-106320330D02*
X164874500Y-106367949D01*
X164874500Y-106367949D02*
X164841166Y-106391759D01*
X164841166Y-106391759D02*
X164774500Y-106415568D01*
X164774500Y-106415568D02*
X164207833Y-106415568D01*
X165174500Y-107177473D02*
X165141166Y-107153664D01*
X165141166Y-107153664D02*
X165041166Y-107106045D01*
X165041166Y-107106045D02*
X164974500Y-107082235D01*
X164974500Y-107082235D02*
X164874500Y-107058426D01*
X164874500Y-107058426D02*
X164707833Y-107034616D01*
X164707833Y-107034616D02*
X164574500Y-107034616D01*
X164574500Y-107034616D02*
X164407833Y-107058426D01*
X164407833Y-107058426D02*
X164307833Y-107082235D01*
X164307833Y-107082235D02*
X164241166Y-107106045D01*
X164241166Y-107106045D02*
X164141166Y-107153664D01*
X164141166Y-107153664D02*
X164107833Y-107177473D01*
X164907833Y-107367949D02*
X164207833Y-107367949D01*
X164907833Y-107606044D02*
X164207833Y-107606044D01*
X164207833Y-107606044D02*
X164907833Y-107891758D01*
X164907833Y-107891758D02*
X164207833Y-107891758D01*
X164874500Y-108153664D02*
X164907833Y-108153664D01*
X164907833Y-108153664D02*
X164974500Y-108129854D01*
X164974500Y-108129854D02*
X165007833Y-108106045D01*
X164207833Y-108844139D02*
X164207833Y-108939377D01*
X164207833Y-108939377D02*
X164241166Y-108986996D01*
X164241166Y-108986996D02*
X164307833Y-109034615D01*
X164307833Y-109034615D02*
X164441166Y-109058425D01*
X164441166Y-109058425D02*
X164674500Y-109058425D01*
X164674500Y-109058425D02*
X164807833Y-109034615D01*
X164807833Y-109034615D02*
X164874500Y-108986996D01*
X164874500Y-108986996D02*
X164907833Y-108939377D01*
X164907833Y-108939377D02*
X164907833Y-108844139D01*
X164907833Y-108844139D02*
X164874500Y-108796520D01*
X164874500Y-108796520D02*
X164807833Y-108748901D01*
X164807833Y-108748901D02*
X164674500Y-108725092D01*
X164674500Y-108725092D02*
X164441166Y-108725092D01*
X164441166Y-108725092D02*
X164307833Y-108748901D01*
X164307833Y-108748901D02*
X164241166Y-108796520D01*
X164241166Y-108796520D02*
X164207833Y-108844139D01*
X164207833Y-109272711D02*
X164774500Y-109272711D01*
X164774500Y-109272711D02*
X164841166Y-109296521D01*
X164841166Y-109296521D02*
X164874500Y-109320330D01*
X164874500Y-109320330D02*
X164907833Y-109367949D01*
X164907833Y-109367949D02*
X164907833Y-109463187D01*
X164907833Y-109463187D02*
X164874500Y-109510806D01*
X164874500Y-109510806D02*
X164841166Y-109534616D01*
X164841166Y-109534616D02*
X164774500Y-109558425D01*
X164774500Y-109558425D02*
X164207833Y-109558425D01*
X164207833Y-109725093D02*
X164207833Y-110010807D01*
X164907833Y-109867950D02*
X164207833Y-109867950D01*
X165174500Y-110129854D02*
X165141166Y-110153664D01*
X165141166Y-110153664D02*
X165041166Y-110201283D01*
X165041166Y-110201283D02*
X164974500Y-110225092D01*
X164974500Y-110225092D02*
X164874500Y-110248902D01*
X164874500Y-110248902D02*
X164707833Y-110272711D01*
X164707833Y-110272711D02*
X164574500Y-110272711D01*
X164574500Y-110272711D02*
X164407833Y-110248902D01*
X164407833Y-110248902D02*
X164307833Y-110225092D01*
X164307833Y-110225092D02*
X164241166Y-110201283D01*
X164241166Y-110201283D02*
X164141166Y-110153664D01*
X164141166Y-110153664D02*
X164107833Y-110129854D01*
X164080872Y-65380953D02*
X164080872Y-65666667D01*
X164780872Y-65523810D02*
X164080872Y-65523810D01*
X164080872Y-65928571D02*
X164080872Y-66023809D01*
X164080872Y-66023809D02*
X164114205Y-66071428D01*
X164114205Y-66071428D02*
X164180872Y-66119047D01*
X164180872Y-66119047D02*
X164314205Y-66142857D01*
X164314205Y-66142857D02*
X164547539Y-66142857D01*
X164547539Y-66142857D02*
X164680872Y-66119047D01*
X164680872Y-66119047D02*
X164747539Y-66071428D01*
X164747539Y-66071428D02*
X164780872Y-66023809D01*
X164780872Y-66023809D02*
X164780872Y-65928571D01*
X164780872Y-65928571D02*
X164747539Y-65880952D01*
X164747539Y-65880952D02*
X164680872Y-65833333D01*
X164680872Y-65833333D02*
X164547539Y-65809524D01*
X164547539Y-65809524D02*
X164314205Y-65809524D01*
X164314205Y-65809524D02*
X164180872Y-65833333D01*
X164180872Y-65833333D02*
X164114205Y-65880952D01*
X164114205Y-65880952D02*
X164080872Y-65928571D01*
X164414205Y-66523810D02*
X164414205Y-66357143D01*
X164780872Y-66357143D02*
X164080872Y-66357143D01*
X164080872Y-66357143D02*
X164080872Y-66595238D01*
X166174500Y-62083335D02*
X166141166Y-62059526D01*
X166141166Y-62059526D02*
X166041166Y-62011907D01*
X166041166Y-62011907D02*
X165974500Y-61988097D01*
X165974500Y-61988097D02*
X165874500Y-61964288D01*
X165874500Y-61964288D02*
X165707833Y-61940478D01*
X165707833Y-61940478D02*
X165574500Y-61940478D01*
X165574500Y-61940478D02*
X165407833Y-61964288D01*
X165407833Y-61964288D02*
X165307833Y-61988097D01*
X165307833Y-61988097D02*
X165241166Y-62011907D01*
X165241166Y-62011907D02*
X165141166Y-62059526D01*
X165141166Y-62059526D02*
X165107833Y-62083335D01*
X165241166Y-62535716D02*
X165207833Y-62488097D01*
X165207833Y-62488097D02*
X165207833Y-62416668D01*
X165207833Y-62416668D02*
X165241166Y-62345240D01*
X165241166Y-62345240D02*
X165307833Y-62297621D01*
X165307833Y-62297621D02*
X165374500Y-62273811D01*
X165374500Y-62273811D02*
X165507833Y-62250002D01*
X165507833Y-62250002D02*
X165607833Y-62250002D01*
X165607833Y-62250002D02*
X165741166Y-62273811D01*
X165741166Y-62273811D02*
X165807833Y-62297621D01*
X165807833Y-62297621D02*
X165874500Y-62345240D01*
X165874500Y-62345240D02*
X165907833Y-62416668D01*
X165907833Y-62416668D02*
X165907833Y-62464287D01*
X165907833Y-62464287D02*
X165874500Y-62535716D01*
X165874500Y-62535716D02*
X165841166Y-62559525D01*
X165841166Y-62559525D02*
X165607833Y-62559525D01*
X165607833Y-62559525D02*
X165607833Y-62464287D01*
X165907833Y-62773811D02*
X165207833Y-62773811D01*
X165207833Y-62773811D02*
X165907833Y-63059525D01*
X165907833Y-63059525D02*
X165207833Y-63059525D01*
X165907833Y-63297621D02*
X165207833Y-63297621D01*
X165207833Y-63297621D02*
X165207833Y-63416669D01*
X165207833Y-63416669D02*
X165241166Y-63488097D01*
X165241166Y-63488097D02*
X165307833Y-63535716D01*
X165307833Y-63535716D02*
X165374500Y-63559526D01*
X165374500Y-63559526D02*
X165507833Y-63583335D01*
X165507833Y-63583335D02*
X165607833Y-63583335D01*
X165607833Y-63583335D02*
X165741166Y-63559526D01*
X165741166Y-63559526D02*
X165807833Y-63535716D01*
X165807833Y-63535716D02*
X165874500Y-63488097D01*
X165874500Y-63488097D02*
X165907833Y-63416669D01*
X165907833Y-63416669D02*
X165907833Y-63297621D01*
X165874500Y-63821431D02*
X165907833Y-63821431D01*
X165907833Y-63821431D02*
X165974500Y-63797621D01*
X165974500Y-63797621D02*
X166007833Y-63773812D01*
X165641166Y-64416668D02*
X165641166Y-64797621D01*
X165907833Y-64607144D02*
X165374500Y-64607144D01*
X165207833Y-65273811D02*
X165207833Y-65035716D01*
X165207833Y-65035716D02*
X165541166Y-65011907D01*
X165541166Y-65011907D02*
X165507833Y-65035716D01*
X165507833Y-65035716D02*
X165474500Y-65083335D01*
X165474500Y-65083335D02*
X165474500Y-65202383D01*
X165474500Y-65202383D02*
X165507833Y-65250002D01*
X165507833Y-65250002D02*
X165541166Y-65273811D01*
X165541166Y-65273811D02*
X165607833Y-65297621D01*
X165607833Y-65297621D02*
X165774500Y-65297621D01*
X165774500Y-65297621D02*
X165841166Y-65273811D01*
X165841166Y-65273811D02*
X165874500Y-65250002D01*
X165874500Y-65250002D02*
X165907833Y-65202383D01*
X165907833Y-65202383D02*
X165907833Y-65083335D01*
X165907833Y-65083335D02*
X165874500Y-65035716D01*
X165874500Y-65035716D02*
X165841166Y-65011907D01*
X165207833Y-65440478D02*
X165907833Y-65607144D01*
X165907833Y-65607144D02*
X165207833Y-65773811D01*
X165874500Y-65964287D02*
X165907833Y-65964287D01*
X165907833Y-65964287D02*
X165974500Y-65940477D01*
X165974500Y-65940477D02*
X166007833Y-65916668D01*
X165874500Y-66535715D02*
X165907833Y-66607143D01*
X165907833Y-66607143D02*
X165907833Y-66726191D01*
X165907833Y-66726191D02*
X165874500Y-66773810D01*
X165874500Y-66773810D02*
X165841166Y-66797619D01*
X165841166Y-66797619D02*
X165774500Y-66821429D01*
X165774500Y-66821429D02*
X165707833Y-66821429D01*
X165707833Y-66821429D02*
X165641166Y-66797619D01*
X165641166Y-66797619D02*
X165607833Y-66773810D01*
X165607833Y-66773810D02*
X165574500Y-66726191D01*
X165574500Y-66726191D02*
X165541166Y-66630953D01*
X165541166Y-66630953D02*
X165507833Y-66583334D01*
X165507833Y-66583334D02*
X165474500Y-66559524D01*
X165474500Y-66559524D02*
X165407833Y-66535715D01*
X165407833Y-66535715D02*
X165341166Y-66535715D01*
X165341166Y-66535715D02*
X165274500Y-66559524D01*
X165274500Y-66559524D02*
X165241166Y-66583334D01*
X165241166Y-66583334D02*
X165207833Y-66630953D01*
X165207833Y-66630953D02*
X165207833Y-66750000D01*
X165207833Y-66750000D02*
X165241166Y-66821429D01*
X165841166Y-67321428D02*
X165874500Y-67297619D01*
X165874500Y-67297619D02*
X165907833Y-67226190D01*
X165907833Y-67226190D02*
X165907833Y-67178571D01*
X165907833Y-67178571D02*
X165874500Y-67107143D01*
X165874500Y-67107143D02*
X165807833Y-67059524D01*
X165807833Y-67059524D02*
X165741166Y-67035714D01*
X165741166Y-67035714D02*
X165607833Y-67011905D01*
X165607833Y-67011905D02*
X165507833Y-67011905D01*
X165507833Y-67011905D02*
X165374500Y-67035714D01*
X165374500Y-67035714D02*
X165307833Y-67059524D01*
X165307833Y-67059524D02*
X165241166Y-67107143D01*
X165241166Y-67107143D02*
X165207833Y-67178571D01*
X165207833Y-67178571D02*
X165207833Y-67226190D01*
X165207833Y-67226190D02*
X165241166Y-67297619D01*
X165241166Y-67297619D02*
X165274500Y-67321428D01*
X165907833Y-67773809D02*
X165907833Y-67535714D01*
X165907833Y-67535714D02*
X165207833Y-67535714D01*
X165874500Y-67964286D02*
X165907833Y-67964286D01*
X165907833Y-67964286D02*
X165974500Y-67940476D01*
X165974500Y-67940476D02*
X166007833Y-67916667D01*
X165874500Y-68535714D02*
X165907833Y-68607142D01*
X165907833Y-68607142D02*
X165907833Y-68726190D01*
X165907833Y-68726190D02*
X165874500Y-68773809D01*
X165874500Y-68773809D02*
X165841166Y-68797618D01*
X165841166Y-68797618D02*
X165774500Y-68821428D01*
X165774500Y-68821428D02*
X165707833Y-68821428D01*
X165707833Y-68821428D02*
X165641166Y-68797618D01*
X165641166Y-68797618D02*
X165607833Y-68773809D01*
X165607833Y-68773809D02*
X165574500Y-68726190D01*
X165574500Y-68726190D02*
X165541166Y-68630952D01*
X165541166Y-68630952D02*
X165507833Y-68583333D01*
X165507833Y-68583333D02*
X165474500Y-68559523D01*
X165474500Y-68559523D02*
X165407833Y-68535714D01*
X165407833Y-68535714D02*
X165341166Y-68535714D01*
X165341166Y-68535714D02*
X165274500Y-68559523D01*
X165274500Y-68559523D02*
X165241166Y-68583333D01*
X165241166Y-68583333D02*
X165207833Y-68630952D01*
X165207833Y-68630952D02*
X165207833Y-68749999D01*
X165207833Y-68749999D02*
X165241166Y-68821428D01*
X165907833Y-69035713D02*
X165207833Y-69035713D01*
X165207833Y-69035713D02*
X165207833Y-69154761D01*
X165207833Y-69154761D02*
X165241166Y-69226189D01*
X165241166Y-69226189D02*
X165307833Y-69273808D01*
X165307833Y-69273808D02*
X165374500Y-69297618D01*
X165374500Y-69297618D02*
X165507833Y-69321427D01*
X165507833Y-69321427D02*
X165607833Y-69321427D01*
X165607833Y-69321427D02*
X165741166Y-69297618D01*
X165741166Y-69297618D02*
X165807833Y-69273808D01*
X165807833Y-69273808D02*
X165874500Y-69226189D01*
X165874500Y-69226189D02*
X165907833Y-69154761D01*
X165907833Y-69154761D02*
X165907833Y-69035713D01*
X165707833Y-69511904D02*
X165707833Y-69749999D01*
X165907833Y-69464285D02*
X165207833Y-69630951D01*
X165207833Y-69630951D02*
X165907833Y-69797618D01*
X166174500Y-69916665D02*
X166141166Y-69940475D01*
X166141166Y-69940475D02*
X166041166Y-69988094D01*
X166041166Y-69988094D02*
X165974500Y-70011903D01*
X165974500Y-70011903D02*
X165874500Y-70035713D01*
X165874500Y-70035713D02*
X165707833Y-70059522D01*
X165707833Y-70059522D02*
X165574500Y-70059522D01*
X165574500Y-70059522D02*
X165407833Y-70035713D01*
X165407833Y-70035713D02*
X165307833Y-70011903D01*
X165307833Y-70011903D02*
X165241166Y-69988094D01*
X165241166Y-69988094D02*
X165141166Y-69940475D01*
X165141166Y-69940475D02*
X165107833Y-69916665D01*
X137011903Y-104414205D02*
X136940475Y-104447539D01*
X136940475Y-104447539D02*
X136916665Y-104480872D01*
X136916665Y-104480872D02*
X136892856Y-104547539D01*
X136892856Y-104547539D02*
X136892856Y-104647539D01*
X136892856Y-104647539D02*
X136916665Y-104714205D01*
X136916665Y-104714205D02*
X136940475Y-104747539D01*
X136940475Y-104747539D02*
X136988094Y-104780872D01*
X136988094Y-104780872D02*
X137178570Y-104780872D01*
X137178570Y-104780872D02*
X137178570Y-104080872D01*
X137178570Y-104080872D02*
X137011903Y-104080872D01*
X137011903Y-104080872D02*
X136964284Y-104114205D01*
X136964284Y-104114205D02*
X136940475Y-104147539D01*
X136940475Y-104147539D02*
X136916665Y-104214205D01*
X136916665Y-104214205D02*
X136916665Y-104280872D01*
X136916665Y-104280872D02*
X136940475Y-104347539D01*
X136940475Y-104347539D02*
X136964284Y-104380872D01*
X136964284Y-104380872D02*
X137011903Y-104414205D01*
X137011903Y-104414205D02*
X137178570Y-104414205D01*
X136702379Y-104580872D02*
X136464284Y-104580872D01*
X136749998Y-104780872D02*
X136583332Y-104080872D01*
X136583332Y-104080872D02*
X136416665Y-104780872D01*
X136321427Y-104080872D02*
X136035713Y-104080872D01*
X136178570Y-104780872D02*
X136178570Y-104080872D01*
X135940475Y-104080872D02*
X135654761Y-104080872D01*
X135797618Y-104780872D02*
X135797618Y-104080872D01*
X134964286Y-105047539D02*
X134988095Y-105014205D01*
X134988095Y-105014205D02*
X135035714Y-104914205D01*
X135035714Y-104914205D02*
X135059524Y-104847539D01*
X135059524Y-104847539D02*
X135083333Y-104747539D01*
X135083333Y-104747539D02*
X135107143Y-104580872D01*
X135107143Y-104580872D02*
X135107143Y-104447539D01*
X135107143Y-104447539D02*
X135083333Y-104280872D01*
X135083333Y-104280872D02*
X135059524Y-104180872D01*
X135059524Y-104180872D02*
X135035714Y-104114205D01*
X135035714Y-104114205D02*
X134988095Y-104014205D01*
X134988095Y-104014205D02*
X134964286Y-103980872D01*
X134773810Y-104514205D02*
X134392858Y-104514205D01*
X134583334Y-104780872D02*
X134583334Y-104247539D01*
X134130952Y-104747539D02*
X134130952Y-104780872D01*
X134130952Y-104780872D02*
X134154762Y-104847539D01*
X134154762Y-104847539D02*
X134178571Y-104880872D01*
X133535715Y-104514205D02*
X133154763Y-104514205D01*
X132964286Y-105047539D02*
X132940476Y-105014205D01*
X132940476Y-105014205D02*
X132892857Y-104914205D01*
X132892857Y-104914205D02*
X132869048Y-104847539D01*
X132869048Y-104847539D02*
X132845238Y-104747539D01*
X132845238Y-104747539D02*
X132821429Y-104580872D01*
X132821429Y-104580872D02*
X132821429Y-104447539D01*
X132821429Y-104447539D02*
X132845238Y-104280872D01*
X132845238Y-104280872D02*
X132869048Y-104180872D01*
X132869048Y-104180872D02*
X132892857Y-104114205D01*
X132892857Y-104114205D02*
X132940476Y-104014205D01*
X132940476Y-104014205D02*
X132964286Y-103980872D01*
X140380950Y-105207833D02*
X140380950Y-105774500D01*
X140380950Y-105774500D02*
X140357140Y-105841166D01*
X140357140Y-105841166D02*
X140333331Y-105874500D01*
X140333331Y-105874500D02*
X140285712Y-105907833D01*
X140285712Y-105907833D02*
X140190474Y-105907833D01*
X140190474Y-105907833D02*
X140142855Y-105874500D01*
X140142855Y-105874500D02*
X140119045Y-105841166D01*
X140119045Y-105841166D02*
X140095236Y-105774500D01*
X140095236Y-105774500D02*
X140095236Y-105207833D01*
X139928568Y-105441166D02*
X139738092Y-105441166D01*
X139857140Y-105207833D02*
X139857140Y-105807833D01*
X139857140Y-105807833D02*
X139833330Y-105874500D01*
X139833330Y-105874500D02*
X139785711Y-105907833D01*
X139785711Y-105907833D02*
X139738092Y-105907833D01*
X139571426Y-105907833D02*
X139571426Y-105441166D01*
X139571426Y-105207833D02*
X139595235Y-105241166D01*
X139595235Y-105241166D02*
X139571426Y-105274500D01*
X139571426Y-105274500D02*
X139547616Y-105241166D01*
X139547616Y-105241166D02*
X139571426Y-105207833D01*
X139571426Y-105207833D02*
X139571426Y-105274500D01*
X139261902Y-105907833D02*
X139309521Y-105874500D01*
X139309521Y-105874500D02*
X139333331Y-105807833D01*
X139333331Y-105807833D02*
X139333331Y-105207833D01*
X139071426Y-105907833D02*
X139071426Y-105441166D01*
X139071426Y-105207833D02*
X139095235Y-105241166D01*
X139095235Y-105241166D02*
X139071426Y-105274500D01*
X139071426Y-105274500D02*
X139047616Y-105241166D01*
X139047616Y-105241166D02*
X139071426Y-105207833D01*
X139071426Y-105207833D02*
X139071426Y-105274500D01*
X138857140Y-105874500D02*
X138809521Y-105907833D01*
X138809521Y-105907833D02*
X138714283Y-105907833D01*
X138714283Y-105907833D02*
X138666664Y-105874500D01*
X138666664Y-105874500D02*
X138642855Y-105807833D01*
X138642855Y-105807833D02*
X138642855Y-105774500D01*
X138642855Y-105774500D02*
X138666664Y-105707833D01*
X138666664Y-105707833D02*
X138714283Y-105674500D01*
X138714283Y-105674500D02*
X138785712Y-105674500D01*
X138785712Y-105674500D02*
X138833331Y-105641166D01*
X138833331Y-105641166D02*
X138857140Y-105574500D01*
X138857140Y-105574500D02*
X138857140Y-105541166D01*
X138857140Y-105541166D02*
X138833331Y-105474500D01*
X138833331Y-105474500D02*
X138785712Y-105441166D01*
X138785712Y-105441166D02*
X138714283Y-105441166D01*
X138714283Y-105441166D02*
X138666664Y-105474500D01*
X138214283Y-105907833D02*
X138214283Y-105541166D01*
X138214283Y-105541166D02*
X138238093Y-105474500D01*
X138238093Y-105474500D02*
X138285712Y-105441166D01*
X138285712Y-105441166D02*
X138380950Y-105441166D01*
X138380950Y-105441166D02*
X138428569Y-105474500D01*
X138214283Y-105874500D02*
X138261902Y-105907833D01*
X138261902Y-105907833D02*
X138380950Y-105907833D01*
X138380950Y-105907833D02*
X138428569Y-105874500D01*
X138428569Y-105874500D02*
X138452378Y-105807833D01*
X138452378Y-105807833D02*
X138452378Y-105741166D01*
X138452378Y-105741166D02*
X138428569Y-105674500D01*
X138428569Y-105674500D02*
X138380950Y-105641166D01*
X138380950Y-105641166D02*
X138261902Y-105641166D01*
X138261902Y-105641166D02*
X138214283Y-105607833D01*
X138047616Y-105441166D02*
X137857140Y-105441166D01*
X137976188Y-105207833D02*
X137976188Y-105807833D01*
X137976188Y-105807833D02*
X137952378Y-105874500D01*
X137952378Y-105874500D02*
X137904759Y-105907833D01*
X137904759Y-105907833D02*
X137857140Y-105907833D01*
X137690474Y-105907833D02*
X137690474Y-105441166D01*
X137690474Y-105207833D02*
X137714283Y-105241166D01*
X137714283Y-105241166D02*
X137690474Y-105274500D01*
X137690474Y-105274500D02*
X137666664Y-105241166D01*
X137666664Y-105241166D02*
X137690474Y-105207833D01*
X137690474Y-105207833D02*
X137690474Y-105274500D01*
X137380950Y-105907833D02*
X137428569Y-105874500D01*
X137428569Y-105874500D02*
X137452379Y-105841166D01*
X137452379Y-105841166D02*
X137476188Y-105774500D01*
X137476188Y-105774500D02*
X137476188Y-105574500D01*
X137476188Y-105574500D02*
X137452379Y-105507833D01*
X137452379Y-105507833D02*
X137428569Y-105474500D01*
X137428569Y-105474500D02*
X137380950Y-105441166D01*
X137380950Y-105441166D02*
X137309522Y-105441166D01*
X137309522Y-105441166D02*
X137261903Y-105474500D01*
X137261903Y-105474500D02*
X137238093Y-105507833D01*
X137238093Y-105507833D02*
X137214284Y-105574500D01*
X137214284Y-105574500D02*
X137214284Y-105774500D01*
X137214284Y-105774500D02*
X137238093Y-105841166D01*
X137238093Y-105841166D02*
X137261903Y-105874500D01*
X137261903Y-105874500D02*
X137309522Y-105907833D01*
X137309522Y-105907833D02*
X137380950Y-105907833D01*
X136999998Y-105441166D02*
X136999998Y-105907833D01*
X136999998Y-105507833D02*
X136976188Y-105474500D01*
X136976188Y-105474500D02*
X136928569Y-105441166D01*
X136928569Y-105441166D02*
X136857141Y-105441166D01*
X136857141Y-105441166D02*
X136809522Y-105474500D01*
X136809522Y-105474500D02*
X136785712Y-105541166D01*
X136785712Y-105541166D02*
X136785712Y-105907833D01*
X136166665Y-105441166D02*
X136166665Y-105907833D01*
X136166665Y-105507833D02*
X136142855Y-105474500D01*
X136142855Y-105474500D02*
X136095236Y-105441166D01*
X136095236Y-105441166D02*
X136023808Y-105441166D01*
X136023808Y-105441166D02*
X135976189Y-105474500D01*
X135976189Y-105474500D02*
X135952379Y-105541166D01*
X135952379Y-105541166D02*
X135952379Y-105907833D01*
X135642855Y-105907833D02*
X135690474Y-105874500D01*
X135690474Y-105874500D02*
X135714284Y-105841166D01*
X135714284Y-105841166D02*
X135738093Y-105774500D01*
X135738093Y-105774500D02*
X135738093Y-105574500D01*
X135738093Y-105574500D02*
X135714284Y-105507833D01*
X135714284Y-105507833D02*
X135690474Y-105474500D01*
X135690474Y-105474500D02*
X135642855Y-105441166D01*
X135642855Y-105441166D02*
X135571427Y-105441166D01*
X135571427Y-105441166D02*
X135523808Y-105474500D01*
X135523808Y-105474500D02*
X135499998Y-105507833D01*
X135499998Y-105507833D02*
X135476189Y-105574500D01*
X135476189Y-105574500D02*
X135476189Y-105774500D01*
X135476189Y-105774500D02*
X135499998Y-105841166D01*
X135499998Y-105841166D02*
X135523808Y-105874500D01*
X135523808Y-105874500D02*
X135571427Y-105907833D01*
X135571427Y-105907833D02*
X135642855Y-105907833D01*
X135261903Y-105907833D02*
X135261903Y-105441166D01*
X135261903Y-105574500D02*
X135238093Y-105507833D01*
X135238093Y-105507833D02*
X135214284Y-105474500D01*
X135214284Y-105474500D02*
X135166665Y-105441166D01*
X135166665Y-105441166D02*
X135119046Y-105441166D01*
X134952379Y-105907833D02*
X134952379Y-105441166D01*
X134952379Y-105507833D02*
X134928569Y-105474500D01*
X134928569Y-105474500D02*
X134880950Y-105441166D01*
X134880950Y-105441166D02*
X134809522Y-105441166D01*
X134809522Y-105441166D02*
X134761903Y-105474500D01*
X134761903Y-105474500D02*
X134738093Y-105541166D01*
X134738093Y-105541166D02*
X134738093Y-105907833D01*
X134738093Y-105541166D02*
X134714284Y-105474500D01*
X134714284Y-105474500D02*
X134666665Y-105441166D01*
X134666665Y-105441166D02*
X134595236Y-105441166D01*
X134595236Y-105441166D02*
X134547617Y-105474500D01*
X134547617Y-105474500D02*
X134523807Y-105541166D01*
X134523807Y-105541166D02*
X134523807Y-105907833D01*
X134071426Y-105907833D02*
X134071426Y-105541166D01*
X134071426Y-105541166D02*
X134095236Y-105474500D01*
X134095236Y-105474500D02*
X134142855Y-105441166D01*
X134142855Y-105441166D02*
X134238093Y-105441166D01*
X134238093Y-105441166D02*
X134285712Y-105474500D01*
X134071426Y-105874500D02*
X134119045Y-105907833D01*
X134119045Y-105907833D02*
X134238093Y-105907833D01*
X134238093Y-105907833D02*
X134285712Y-105874500D01*
X134285712Y-105874500D02*
X134309521Y-105807833D01*
X134309521Y-105807833D02*
X134309521Y-105741166D01*
X134309521Y-105741166D02*
X134285712Y-105674500D01*
X134285712Y-105674500D02*
X134238093Y-105641166D01*
X134238093Y-105641166D02*
X134119045Y-105641166D01*
X134119045Y-105641166D02*
X134071426Y-105607833D01*
X133761902Y-105907833D02*
X133809521Y-105874500D01*
X133809521Y-105874500D02*
X133833331Y-105807833D01*
X133833331Y-105807833D02*
X133833331Y-105207833D01*
X133380950Y-105874500D02*
X133428569Y-105907833D01*
X133428569Y-105907833D02*
X133523807Y-105907833D01*
X133523807Y-105907833D02*
X133571426Y-105874500D01*
X133571426Y-105874500D02*
X133595235Y-105807833D01*
X133595235Y-105807833D02*
X133595235Y-105541166D01*
X133595235Y-105541166D02*
X133571426Y-105474500D01*
X133571426Y-105474500D02*
X133523807Y-105441166D01*
X133523807Y-105441166D02*
X133428569Y-105441166D01*
X133428569Y-105441166D02*
X133380950Y-105474500D01*
X133380950Y-105474500D02*
X133357140Y-105541166D01*
X133357140Y-105541166D02*
X133357140Y-105607833D01*
X133357140Y-105607833D02*
X133595235Y-105674500D01*
X133142855Y-105841166D02*
X133119045Y-105874500D01*
X133119045Y-105874500D02*
X133142855Y-105907833D01*
X133142855Y-105907833D02*
X133166664Y-105874500D01*
X133166664Y-105874500D02*
X133142855Y-105841166D01*
X133142855Y-105841166D02*
X133142855Y-105907833D01*
X133142855Y-105474500D02*
X133119045Y-105507833D01*
X133119045Y-105507833D02*
X133142855Y-105541166D01*
X133142855Y-105541166D02*
X133166664Y-105507833D01*
X133166664Y-105507833D02*
X133142855Y-105474500D01*
X133142855Y-105474500D02*
X133142855Y-105541166D01*
X132285713Y-105207833D02*
X132523808Y-105207833D01*
X132523808Y-105207833D02*
X132547617Y-105541166D01*
X132547617Y-105541166D02*
X132523808Y-105507833D01*
X132523808Y-105507833D02*
X132476189Y-105474500D01*
X132476189Y-105474500D02*
X132357141Y-105474500D01*
X132357141Y-105474500D02*
X132309522Y-105507833D01*
X132309522Y-105507833D02*
X132285713Y-105541166D01*
X132285713Y-105541166D02*
X132261903Y-105607833D01*
X132261903Y-105607833D02*
X132261903Y-105774500D01*
X132261903Y-105774500D02*
X132285713Y-105841166D01*
X132285713Y-105841166D02*
X132309522Y-105874500D01*
X132309522Y-105874500D02*
X132357141Y-105907833D01*
X132357141Y-105907833D02*
X132476189Y-105907833D01*
X132476189Y-105907833D02*
X132523808Y-105874500D01*
X132523808Y-105874500D02*
X132547617Y-105841166D01*
X132119046Y-105207833D02*
X131952380Y-105907833D01*
X131952380Y-105907833D02*
X131785713Y-105207833D01*
X131595237Y-105874500D02*
X131595237Y-105907833D01*
X131595237Y-105907833D02*
X131619047Y-105974500D01*
X131619047Y-105974500D02*
X131642856Y-106007833D01*
X130904762Y-105207833D02*
X130857143Y-105207833D01*
X130857143Y-105207833D02*
X130809524Y-105241166D01*
X130809524Y-105241166D02*
X130785714Y-105274500D01*
X130785714Y-105274500D02*
X130761905Y-105341166D01*
X130761905Y-105341166D02*
X130738095Y-105474500D01*
X130738095Y-105474500D02*
X130738095Y-105641166D01*
X130738095Y-105641166D02*
X130761905Y-105774500D01*
X130761905Y-105774500D02*
X130785714Y-105841166D01*
X130785714Y-105841166D02*
X130809524Y-105874500D01*
X130809524Y-105874500D02*
X130857143Y-105907833D01*
X130857143Y-105907833D02*
X130904762Y-105907833D01*
X130904762Y-105907833D02*
X130952381Y-105874500D01*
X130952381Y-105874500D02*
X130976190Y-105841166D01*
X130976190Y-105841166D02*
X131000000Y-105774500D01*
X131000000Y-105774500D02*
X131023809Y-105641166D01*
X131023809Y-105641166D02*
X131023809Y-105474500D01*
X131023809Y-105474500D02*
X131000000Y-105341166D01*
X131000000Y-105341166D02*
X130976190Y-105274500D01*
X130976190Y-105274500D02*
X130952381Y-105241166D01*
X130952381Y-105241166D02*
X130904762Y-105207833D01*
X130523810Y-105841166D02*
X130500000Y-105874500D01*
X130500000Y-105874500D02*
X130523810Y-105907833D01*
X130523810Y-105907833D02*
X130547619Y-105874500D01*
X130547619Y-105874500D02*
X130523810Y-105841166D01*
X130523810Y-105841166D02*
X130523810Y-105907833D01*
X130309524Y-105274500D02*
X130285715Y-105241166D01*
X130285715Y-105241166D02*
X130238096Y-105207833D01*
X130238096Y-105207833D02*
X130119048Y-105207833D01*
X130119048Y-105207833D02*
X130071429Y-105241166D01*
X130071429Y-105241166D02*
X130047620Y-105274500D01*
X130047620Y-105274500D02*
X130023810Y-105341166D01*
X130023810Y-105341166D02*
X130023810Y-105407833D01*
X130023810Y-105407833D02*
X130047620Y-105507833D01*
X130047620Y-105507833D02*
X130333334Y-105907833D01*
X130333334Y-105907833D02*
X130023810Y-105907833D01*
X129833334Y-105707833D02*
X129595239Y-105707833D01*
X129880953Y-105907833D02*
X129714287Y-105207833D01*
X129714287Y-105207833D02*
X129547620Y-105907833D01*
X164747539Y-75904762D02*
X164780872Y-75976190D01*
X164780872Y-75976190D02*
X164780872Y-76095238D01*
X164780872Y-76095238D02*
X164747539Y-76142857D01*
X164747539Y-76142857D02*
X164714205Y-76166666D01*
X164714205Y-76166666D02*
X164647539Y-76190476D01*
X164647539Y-76190476D02*
X164580872Y-76190476D01*
X164580872Y-76190476D02*
X164514205Y-76166666D01*
X164514205Y-76166666D02*
X164480872Y-76142857D01*
X164480872Y-76142857D02*
X164447539Y-76095238D01*
X164447539Y-76095238D02*
X164414205Y-76000000D01*
X164414205Y-76000000D02*
X164380872Y-75952381D01*
X164380872Y-75952381D02*
X164347539Y-75928571D01*
X164347539Y-75928571D02*
X164280872Y-75904762D01*
X164280872Y-75904762D02*
X164214205Y-75904762D01*
X164214205Y-75904762D02*
X164147539Y-75928571D01*
X164147539Y-75928571D02*
X164114205Y-75952381D01*
X164114205Y-75952381D02*
X164080872Y-76000000D01*
X164080872Y-76000000D02*
X164080872Y-76119047D01*
X164080872Y-76119047D02*
X164114205Y-76190476D01*
X164414205Y-76404761D02*
X164414205Y-76571428D01*
X164780872Y-76642856D02*
X164780872Y-76404761D01*
X164780872Y-76404761D02*
X164080872Y-76404761D01*
X164080872Y-76404761D02*
X164080872Y-76642856D01*
X164780872Y-77142856D02*
X164447539Y-76976190D01*
X164780872Y-76857142D02*
X164080872Y-76857142D01*
X164080872Y-76857142D02*
X164080872Y-77047618D01*
X164080872Y-77047618D02*
X164114205Y-77095237D01*
X164114205Y-77095237D02*
X164147539Y-77119047D01*
X164147539Y-77119047D02*
X164214205Y-77142856D01*
X164214205Y-77142856D02*
X164314205Y-77142856D01*
X164314205Y-77142856D02*
X164380872Y-77119047D01*
X164380872Y-77119047D02*
X164414205Y-77095237D01*
X164414205Y-77095237D02*
X164447539Y-77047618D01*
X164447539Y-77047618D02*
X164447539Y-76857142D01*
X164080872Y-77285714D02*
X164780872Y-77452380D01*
X164780872Y-77452380D02*
X164080872Y-77619047D01*
X164080872Y-77880951D02*
X164080872Y-77976189D01*
X164080872Y-77976189D02*
X164114205Y-78023808D01*
X164114205Y-78023808D02*
X164180872Y-78071427D01*
X164180872Y-78071427D02*
X164314205Y-78095237D01*
X164314205Y-78095237D02*
X164547539Y-78095237D01*
X164547539Y-78095237D02*
X164680872Y-78071427D01*
X164680872Y-78071427D02*
X164747539Y-78023808D01*
X164747539Y-78023808D02*
X164780872Y-77976189D01*
X164780872Y-77976189D02*
X164780872Y-77880951D01*
X164780872Y-77880951D02*
X164747539Y-77833332D01*
X164747539Y-77833332D02*
X164680872Y-77785713D01*
X164680872Y-77785713D02*
X164547539Y-77761904D01*
X164547539Y-77761904D02*
X164314205Y-77761904D01*
X164314205Y-77761904D02*
X164180872Y-77785713D01*
X164180872Y-77785713D02*
X164114205Y-77833332D01*
X164114205Y-77833332D02*
X164080872Y-77880951D01*
X166174500Y-74333334D02*
X166141166Y-74309525D01*
X166141166Y-74309525D02*
X166041166Y-74261906D01*
X166041166Y-74261906D02*
X165974500Y-74238096D01*
X165974500Y-74238096D02*
X165874500Y-74214287D01*
X165874500Y-74214287D02*
X165707833Y-74190477D01*
X165707833Y-74190477D02*
X165574500Y-74190477D01*
X165574500Y-74190477D02*
X165407833Y-74214287D01*
X165407833Y-74214287D02*
X165307833Y-74238096D01*
X165307833Y-74238096D02*
X165241166Y-74261906D01*
X165241166Y-74261906D02*
X165141166Y-74309525D01*
X165141166Y-74309525D02*
X165107833Y-74333334D01*
X165241166Y-74785715D02*
X165207833Y-74738096D01*
X165207833Y-74738096D02*
X165207833Y-74666667D01*
X165207833Y-74666667D02*
X165241166Y-74595239D01*
X165241166Y-74595239D02*
X165307833Y-74547620D01*
X165307833Y-74547620D02*
X165374500Y-74523810D01*
X165374500Y-74523810D02*
X165507833Y-74500001D01*
X165507833Y-74500001D02*
X165607833Y-74500001D01*
X165607833Y-74500001D02*
X165741166Y-74523810D01*
X165741166Y-74523810D02*
X165807833Y-74547620D01*
X165807833Y-74547620D02*
X165874500Y-74595239D01*
X165874500Y-74595239D02*
X165907833Y-74666667D01*
X165907833Y-74666667D02*
X165907833Y-74714286D01*
X165907833Y-74714286D02*
X165874500Y-74785715D01*
X165874500Y-74785715D02*
X165841166Y-74809524D01*
X165841166Y-74809524D02*
X165607833Y-74809524D01*
X165607833Y-74809524D02*
X165607833Y-74714286D01*
X165907833Y-75023810D02*
X165207833Y-75023810D01*
X165207833Y-75023810D02*
X165907833Y-75309524D01*
X165907833Y-75309524D02*
X165207833Y-75309524D01*
X165907833Y-75547620D02*
X165207833Y-75547620D01*
X165207833Y-75547620D02*
X165207833Y-75666668D01*
X165207833Y-75666668D02*
X165241166Y-75738096D01*
X165241166Y-75738096D02*
X165307833Y-75785715D01*
X165307833Y-75785715D02*
X165374500Y-75809525D01*
X165374500Y-75809525D02*
X165507833Y-75833334D01*
X165507833Y-75833334D02*
X165607833Y-75833334D01*
X165607833Y-75833334D02*
X165741166Y-75809525D01*
X165741166Y-75809525D02*
X165807833Y-75785715D01*
X165807833Y-75785715D02*
X165874500Y-75738096D01*
X165874500Y-75738096D02*
X165907833Y-75666668D01*
X165907833Y-75666668D02*
X165907833Y-75547620D01*
X165874500Y-76071430D02*
X165907833Y-76071430D01*
X165907833Y-76071430D02*
X165974500Y-76047620D01*
X165974500Y-76047620D02*
X166007833Y-76023811D01*
X165641166Y-76666667D02*
X165641166Y-77047620D01*
X165907833Y-76857143D02*
X165374500Y-76857143D01*
X165207833Y-77523810D02*
X165207833Y-77285715D01*
X165207833Y-77285715D02*
X165541166Y-77261906D01*
X165541166Y-77261906D02*
X165507833Y-77285715D01*
X165507833Y-77285715D02*
X165474500Y-77333334D01*
X165474500Y-77333334D02*
X165474500Y-77452382D01*
X165474500Y-77452382D02*
X165507833Y-77500001D01*
X165507833Y-77500001D02*
X165541166Y-77523810D01*
X165541166Y-77523810D02*
X165607833Y-77547620D01*
X165607833Y-77547620D02*
X165774500Y-77547620D01*
X165774500Y-77547620D02*
X165841166Y-77523810D01*
X165841166Y-77523810D02*
X165874500Y-77500001D01*
X165874500Y-77500001D02*
X165907833Y-77452382D01*
X165907833Y-77452382D02*
X165907833Y-77333334D01*
X165907833Y-77333334D02*
X165874500Y-77285715D01*
X165874500Y-77285715D02*
X165841166Y-77261906D01*
X165207833Y-77690477D02*
X165907833Y-77857143D01*
X165907833Y-77857143D02*
X165207833Y-78023810D01*
X165874500Y-78214286D02*
X165907833Y-78214286D01*
X165907833Y-78214286D02*
X165974500Y-78190476D01*
X165974500Y-78190476D02*
X166007833Y-78166667D01*
X165707833Y-78785714D02*
X165707833Y-79023809D01*
X165907833Y-78738095D02*
X165207833Y-78904761D01*
X165207833Y-78904761D02*
X165907833Y-79071428D01*
X165907833Y-79499999D02*
X165907833Y-79214285D01*
X165907833Y-79357142D02*
X165207833Y-79357142D01*
X165207833Y-79357142D02*
X165307833Y-79309523D01*
X165307833Y-79309523D02*
X165374500Y-79261904D01*
X165374500Y-79261904D02*
X165407833Y-79214285D01*
X166174500Y-79666665D02*
X166141166Y-79690475D01*
X166141166Y-79690475D02*
X166041166Y-79738094D01*
X166041166Y-79738094D02*
X165974500Y-79761903D01*
X165974500Y-79761903D02*
X165874500Y-79785713D01*
X165874500Y-79785713D02*
X165707833Y-79809522D01*
X165707833Y-79809522D02*
X165574500Y-79809522D01*
X165574500Y-79809522D02*
X165407833Y-79785713D01*
X165407833Y-79785713D02*
X165307833Y-79761903D01*
X165307833Y-79761903D02*
X165241166Y-79738094D01*
X165241166Y-79738094D02*
X165141166Y-79690475D01*
X165141166Y-79690475D02*
X165107833Y-79666665D01*
X164747539Y-84904762D02*
X164780872Y-84976190D01*
X164780872Y-84976190D02*
X164780872Y-85095238D01*
X164780872Y-85095238D02*
X164747539Y-85142857D01*
X164747539Y-85142857D02*
X164714205Y-85166666D01*
X164714205Y-85166666D02*
X164647539Y-85190476D01*
X164647539Y-85190476D02*
X164580872Y-85190476D01*
X164580872Y-85190476D02*
X164514205Y-85166666D01*
X164514205Y-85166666D02*
X164480872Y-85142857D01*
X164480872Y-85142857D02*
X164447539Y-85095238D01*
X164447539Y-85095238D02*
X164414205Y-85000000D01*
X164414205Y-85000000D02*
X164380872Y-84952381D01*
X164380872Y-84952381D02*
X164347539Y-84928571D01*
X164347539Y-84928571D02*
X164280872Y-84904762D01*
X164280872Y-84904762D02*
X164214205Y-84904762D01*
X164214205Y-84904762D02*
X164147539Y-84928571D01*
X164147539Y-84928571D02*
X164114205Y-84952381D01*
X164114205Y-84952381D02*
X164080872Y-85000000D01*
X164080872Y-85000000D02*
X164080872Y-85119047D01*
X164080872Y-85119047D02*
X164114205Y-85190476D01*
X164414205Y-85404761D02*
X164414205Y-85571428D01*
X164780872Y-85642856D02*
X164780872Y-85404761D01*
X164780872Y-85404761D02*
X164080872Y-85404761D01*
X164080872Y-85404761D02*
X164080872Y-85642856D01*
X164780872Y-86142856D02*
X164447539Y-85976190D01*
X164780872Y-85857142D02*
X164080872Y-85857142D01*
X164080872Y-85857142D02*
X164080872Y-86047618D01*
X164080872Y-86047618D02*
X164114205Y-86095237D01*
X164114205Y-86095237D02*
X164147539Y-86119047D01*
X164147539Y-86119047D02*
X164214205Y-86142856D01*
X164214205Y-86142856D02*
X164314205Y-86142856D01*
X164314205Y-86142856D02*
X164380872Y-86119047D01*
X164380872Y-86119047D02*
X164414205Y-86095237D01*
X164414205Y-86095237D02*
X164447539Y-86047618D01*
X164447539Y-86047618D02*
X164447539Y-85857142D01*
X164080872Y-86285714D02*
X164780872Y-86452380D01*
X164780872Y-86452380D02*
X164080872Y-86619047D01*
X164080872Y-86880951D02*
X164080872Y-86976189D01*
X164080872Y-86976189D02*
X164114205Y-87023808D01*
X164114205Y-87023808D02*
X164180872Y-87071427D01*
X164180872Y-87071427D02*
X164314205Y-87095237D01*
X164314205Y-87095237D02*
X164547539Y-87095237D01*
X164547539Y-87095237D02*
X164680872Y-87071427D01*
X164680872Y-87071427D02*
X164747539Y-87023808D01*
X164747539Y-87023808D02*
X164780872Y-86976189D01*
X164780872Y-86976189D02*
X164780872Y-86880951D01*
X164780872Y-86880951D02*
X164747539Y-86833332D01*
X164747539Y-86833332D02*
X164680872Y-86785713D01*
X164680872Y-86785713D02*
X164547539Y-86761904D01*
X164547539Y-86761904D02*
X164314205Y-86761904D01*
X164314205Y-86761904D02*
X164180872Y-86785713D01*
X164180872Y-86785713D02*
X164114205Y-86833332D01*
X164114205Y-86833332D02*
X164080872Y-86880951D01*
X166174500Y-83333334D02*
X166141166Y-83309525D01*
X166141166Y-83309525D02*
X166041166Y-83261906D01*
X166041166Y-83261906D02*
X165974500Y-83238096D01*
X165974500Y-83238096D02*
X165874500Y-83214287D01*
X165874500Y-83214287D02*
X165707833Y-83190477D01*
X165707833Y-83190477D02*
X165574500Y-83190477D01*
X165574500Y-83190477D02*
X165407833Y-83214287D01*
X165407833Y-83214287D02*
X165307833Y-83238096D01*
X165307833Y-83238096D02*
X165241166Y-83261906D01*
X165241166Y-83261906D02*
X165141166Y-83309525D01*
X165141166Y-83309525D02*
X165107833Y-83333334D01*
X165241166Y-83785715D02*
X165207833Y-83738096D01*
X165207833Y-83738096D02*
X165207833Y-83666667D01*
X165207833Y-83666667D02*
X165241166Y-83595239D01*
X165241166Y-83595239D02*
X165307833Y-83547620D01*
X165307833Y-83547620D02*
X165374500Y-83523810D01*
X165374500Y-83523810D02*
X165507833Y-83500001D01*
X165507833Y-83500001D02*
X165607833Y-83500001D01*
X165607833Y-83500001D02*
X165741166Y-83523810D01*
X165741166Y-83523810D02*
X165807833Y-83547620D01*
X165807833Y-83547620D02*
X165874500Y-83595239D01*
X165874500Y-83595239D02*
X165907833Y-83666667D01*
X165907833Y-83666667D02*
X165907833Y-83714286D01*
X165907833Y-83714286D02*
X165874500Y-83785715D01*
X165874500Y-83785715D02*
X165841166Y-83809524D01*
X165841166Y-83809524D02*
X165607833Y-83809524D01*
X165607833Y-83809524D02*
X165607833Y-83714286D01*
X165907833Y-84023810D02*
X165207833Y-84023810D01*
X165207833Y-84023810D02*
X165907833Y-84309524D01*
X165907833Y-84309524D02*
X165207833Y-84309524D01*
X165907833Y-84547620D02*
X165207833Y-84547620D01*
X165207833Y-84547620D02*
X165207833Y-84666668D01*
X165207833Y-84666668D02*
X165241166Y-84738096D01*
X165241166Y-84738096D02*
X165307833Y-84785715D01*
X165307833Y-84785715D02*
X165374500Y-84809525D01*
X165374500Y-84809525D02*
X165507833Y-84833334D01*
X165507833Y-84833334D02*
X165607833Y-84833334D01*
X165607833Y-84833334D02*
X165741166Y-84809525D01*
X165741166Y-84809525D02*
X165807833Y-84785715D01*
X165807833Y-84785715D02*
X165874500Y-84738096D01*
X165874500Y-84738096D02*
X165907833Y-84666668D01*
X165907833Y-84666668D02*
X165907833Y-84547620D01*
X165874500Y-85071430D02*
X165907833Y-85071430D01*
X165907833Y-85071430D02*
X165974500Y-85047620D01*
X165974500Y-85047620D02*
X166007833Y-85023811D01*
X165641166Y-85666667D02*
X165641166Y-86047620D01*
X165907833Y-85857143D02*
X165374500Y-85857143D01*
X165207833Y-86523810D02*
X165207833Y-86285715D01*
X165207833Y-86285715D02*
X165541166Y-86261906D01*
X165541166Y-86261906D02*
X165507833Y-86285715D01*
X165507833Y-86285715D02*
X165474500Y-86333334D01*
X165474500Y-86333334D02*
X165474500Y-86452382D01*
X165474500Y-86452382D02*
X165507833Y-86500001D01*
X165507833Y-86500001D02*
X165541166Y-86523810D01*
X165541166Y-86523810D02*
X165607833Y-86547620D01*
X165607833Y-86547620D02*
X165774500Y-86547620D01*
X165774500Y-86547620D02*
X165841166Y-86523810D01*
X165841166Y-86523810D02*
X165874500Y-86500001D01*
X165874500Y-86500001D02*
X165907833Y-86452382D01*
X165907833Y-86452382D02*
X165907833Y-86333334D01*
X165907833Y-86333334D02*
X165874500Y-86285715D01*
X165874500Y-86285715D02*
X165841166Y-86261906D01*
X165207833Y-86690477D02*
X165907833Y-86857143D01*
X165907833Y-86857143D02*
X165207833Y-87023810D01*
X165874500Y-87214286D02*
X165907833Y-87214286D01*
X165907833Y-87214286D02*
X165974500Y-87190476D01*
X165974500Y-87190476D02*
X166007833Y-87166667D01*
X165707833Y-87785714D02*
X165707833Y-88023809D01*
X165907833Y-87738095D02*
X165207833Y-87904761D01*
X165207833Y-87904761D02*
X165907833Y-88071428D01*
X165207833Y-88333332D02*
X165207833Y-88380951D01*
X165207833Y-88380951D02*
X165241166Y-88428570D01*
X165241166Y-88428570D02*
X165274500Y-88452380D01*
X165274500Y-88452380D02*
X165341166Y-88476189D01*
X165341166Y-88476189D02*
X165474500Y-88499999D01*
X165474500Y-88499999D02*
X165641166Y-88499999D01*
X165641166Y-88499999D02*
X165774500Y-88476189D01*
X165774500Y-88476189D02*
X165841166Y-88452380D01*
X165841166Y-88452380D02*
X165874500Y-88428570D01*
X165874500Y-88428570D02*
X165907833Y-88380951D01*
X165907833Y-88380951D02*
X165907833Y-88333332D01*
X165907833Y-88333332D02*
X165874500Y-88285713D01*
X165874500Y-88285713D02*
X165841166Y-88261904D01*
X165841166Y-88261904D02*
X165774500Y-88238094D01*
X165774500Y-88238094D02*
X165641166Y-88214285D01*
X165641166Y-88214285D02*
X165474500Y-88214285D01*
X165474500Y-88214285D02*
X165341166Y-88238094D01*
X165341166Y-88238094D02*
X165274500Y-88261904D01*
X165274500Y-88261904D02*
X165241166Y-88285713D01*
X165241166Y-88285713D02*
X165207833Y-88333332D01*
X166174500Y-88666665D02*
X166141166Y-88690475D01*
X166141166Y-88690475D02*
X166041166Y-88738094D01*
X166041166Y-88738094D02*
X165974500Y-88761903D01*
X165974500Y-88761903D02*
X165874500Y-88785713D01*
X165874500Y-88785713D02*
X165707833Y-88809522D01*
X165707833Y-88809522D02*
X165574500Y-88809522D01*
X165574500Y-88809522D02*
X165407833Y-88785713D01*
X165407833Y-88785713D02*
X165307833Y-88761903D01*
X165307833Y-88761903D02*
X165241166Y-88738094D01*
X165241166Y-88738094D02*
X165141166Y-88690475D01*
X165141166Y-88690475D02*
X165107833Y-88666665D01*
X162560621Y-104907833D02*
X162798716Y-104907833D01*
X162798716Y-104907833D02*
X162798716Y-104207833D01*
X162393954Y-104541166D02*
X162227287Y-104541166D01*
X162155859Y-104907833D02*
X162393954Y-104907833D01*
X162393954Y-104907833D02*
X162393954Y-104207833D01*
X162393954Y-104207833D02*
X162155859Y-104207833D01*
X161941573Y-104907833D02*
X161941573Y-104207833D01*
X161941573Y-104207833D02*
X161822525Y-104207833D01*
X161822525Y-104207833D02*
X161751097Y-104241166D01*
X161751097Y-104241166D02*
X161703478Y-104307833D01*
X161703478Y-104307833D02*
X161679668Y-104374500D01*
X161679668Y-104374500D02*
X161655859Y-104507833D01*
X161655859Y-104507833D02*
X161655859Y-104607833D01*
X161655859Y-104607833D02*
X161679668Y-104741166D01*
X161679668Y-104741166D02*
X161703478Y-104807833D01*
X161703478Y-104807833D02*
X161751097Y-104874500D01*
X161751097Y-104874500D02*
X161822525Y-104907833D01*
X161822525Y-104907833D02*
X161941573Y-104907833D01*
X161465382Y-104874500D02*
X161417763Y-104907833D01*
X161417763Y-104907833D02*
X161322525Y-104907833D01*
X161322525Y-104907833D02*
X161274906Y-104874500D01*
X161274906Y-104874500D02*
X161251097Y-104807833D01*
X161251097Y-104807833D02*
X161251097Y-104774500D01*
X161251097Y-104774500D02*
X161274906Y-104707833D01*
X161274906Y-104707833D02*
X161322525Y-104674500D01*
X161322525Y-104674500D02*
X161393954Y-104674500D01*
X161393954Y-104674500D02*
X161441573Y-104641166D01*
X161441573Y-104641166D02*
X161465382Y-104574500D01*
X161465382Y-104574500D02*
X161465382Y-104541166D01*
X161465382Y-104541166D02*
X161441573Y-104474500D01*
X161441573Y-104474500D02*
X161393954Y-104441166D01*
X161393954Y-104441166D02*
X161322525Y-104441166D01*
X161322525Y-104441166D02*
X161274906Y-104474500D01*
X161155859Y-104974500D02*
X160774906Y-104974500D01*
X160465383Y-104874500D02*
X160513002Y-104907833D01*
X160513002Y-104907833D02*
X160608240Y-104907833D01*
X160608240Y-104907833D02*
X160655859Y-104874500D01*
X160655859Y-104874500D02*
X160679668Y-104807833D01*
X160679668Y-104807833D02*
X160679668Y-104541166D01*
X160679668Y-104541166D02*
X160655859Y-104474500D01*
X160655859Y-104474500D02*
X160608240Y-104441166D01*
X160608240Y-104441166D02*
X160513002Y-104441166D01*
X160513002Y-104441166D02*
X160465383Y-104474500D01*
X160465383Y-104474500D02*
X160441573Y-104541166D01*
X160441573Y-104541166D02*
X160441573Y-104607833D01*
X160441573Y-104607833D02*
X160679668Y-104674500D01*
X160013002Y-104441166D02*
X160013002Y-105141166D01*
X160013002Y-104874500D02*
X160060621Y-104907833D01*
X160060621Y-104907833D02*
X160155859Y-104907833D01*
X160155859Y-104907833D02*
X160203478Y-104874500D01*
X160203478Y-104874500D02*
X160227288Y-104841166D01*
X160227288Y-104841166D02*
X160251097Y-104774500D01*
X160251097Y-104774500D02*
X160251097Y-104574500D01*
X160251097Y-104574500D02*
X160227288Y-104507833D01*
X160227288Y-104507833D02*
X160203478Y-104474500D01*
X160203478Y-104474500D02*
X160155859Y-104441166D01*
X160155859Y-104441166D02*
X160060621Y-104441166D01*
X160060621Y-104441166D02*
X160013002Y-104474500D01*
X159560621Y-104441166D02*
X159560621Y-104907833D01*
X159774907Y-104441166D02*
X159774907Y-104807833D01*
X159774907Y-104807833D02*
X159751097Y-104874500D01*
X159751097Y-104874500D02*
X159703478Y-104907833D01*
X159703478Y-104907833D02*
X159632050Y-104907833D01*
X159632050Y-104907833D02*
X159584431Y-104874500D01*
X159584431Y-104874500D02*
X159560621Y-104841166D01*
X159322526Y-104907833D02*
X159322526Y-104441166D01*
X159322526Y-104207833D02*
X159346335Y-104241166D01*
X159346335Y-104241166D02*
X159322526Y-104274500D01*
X159322526Y-104274500D02*
X159298716Y-104241166D01*
X159298716Y-104241166D02*
X159322526Y-104207833D01*
X159322526Y-104207833D02*
X159322526Y-104274500D01*
X159084431Y-104441166D02*
X159084431Y-105141166D01*
X159084431Y-104474500D02*
X159036812Y-104441166D01*
X159036812Y-104441166D02*
X158941574Y-104441166D01*
X158941574Y-104441166D02*
X158893955Y-104474500D01*
X158893955Y-104474500D02*
X158870145Y-104507833D01*
X158870145Y-104507833D02*
X158846336Y-104574500D01*
X158846336Y-104574500D02*
X158846336Y-104774500D01*
X158846336Y-104774500D02*
X158870145Y-104841166D01*
X158870145Y-104841166D02*
X158893955Y-104874500D01*
X158893955Y-104874500D02*
X158941574Y-104907833D01*
X158941574Y-104907833D02*
X159036812Y-104907833D01*
X159036812Y-104907833D02*
X159084431Y-104874500D01*
X158441574Y-104874500D02*
X158489193Y-104907833D01*
X158489193Y-104907833D02*
X158584431Y-104907833D01*
X158584431Y-104907833D02*
X158632050Y-104874500D01*
X158632050Y-104874500D02*
X158655859Y-104807833D01*
X158655859Y-104807833D02*
X158655859Y-104541166D01*
X158655859Y-104541166D02*
X158632050Y-104474500D01*
X158632050Y-104474500D02*
X158584431Y-104441166D01*
X158584431Y-104441166D02*
X158489193Y-104441166D01*
X158489193Y-104441166D02*
X158441574Y-104474500D01*
X158441574Y-104474500D02*
X158417764Y-104541166D01*
X158417764Y-104541166D02*
X158417764Y-104607833D01*
X158417764Y-104607833D02*
X158655859Y-104674500D01*
X157679670Y-105174500D02*
X157703479Y-105141166D01*
X157703479Y-105141166D02*
X157751098Y-105041166D01*
X157751098Y-105041166D02*
X157774908Y-104974500D01*
X157774908Y-104974500D02*
X157798717Y-104874500D01*
X157798717Y-104874500D02*
X157822527Y-104707833D01*
X157822527Y-104707833D02*
X157822527Y-104574500D01*
X157822527Y-104574500D02*
X157798717Y-104407833D01*
X157798717Y-104407833D02*
X157774908Y-104307833D01*
X157774908Y-104307833D02*
X157751098Y-104241166D01*
X157751098Y-104241166D02*
X157703479Y-104141166D01*
X157703479Y-104141166D02*
X157679670Y-104107833D01*
X157489194Y-104907833D02*
X157489194Y-104207833D01*
X157489194Y-104207833D02*
X157370146Y-104207833D01*
X157370146Y-104207833D02*
X157298718Y-104241166D01*
X157298718Y-104241166D02*
X157251099Y-104307833D01*
X157251099Y-104307833D02*
X157227289Y-104374500D01*
X157227289Y-104374500D02*
X157203480Y-104507833D01*
X157203480Y-104507833D02*
X157203480Y-104607833D01*
X157203480Y-104607833D02*
X157227289Y-104741166D01*
X157227289Y-104741166D02*
X157251099Y-104807833D01*
X157251099Y-104807833D02*
X157298718Y-104874500D01*
X157298718Y-104874500D02*
X157370146Y-104907833D01*
X157370146Y-104907833D02*
X157489194Y-104907833D01*
X156727289Y-104907833D02*
X157013003Y-104907833D01*
X156870146Y-104907833D02*
X156870146Y-104207833D01*
X156870146Y-104207833D02*
X156917765Y-104307833D01*
X156917765Y-104307833D02*
X156965384Y-104374500D01*
X156965384Y-104374500D02*
X157013003Y-104407833D01*
X156417766Y-104207833D02*
X156370147Y-104207833D01*
X156370147Y-104207833D02*
X156322528Y-104241166D01*
X156322528Y-104241166D02*
X156298718Y-104274500D01*
X156298718Y-104274500D02*
X156274909Y-104341166D01*
X156274909Y-104341166D02*
X156251099Y-104474500D01*
X156251099Y-104474500D02*
X156251099Y-104641166D01*
X156251099Y-104641166D02*
X156274909Y-104774500D01*
X156274909Y-104774500D02*
X156298718Y-104841166D01*
X156298718Y-104841166D02*
X156322528Y-104874500D01*
X156322528Y-104874500D02*
X156370147Y-104907833D01*
X156370147Y-104907833D02*
X156417766Y-104907833D01*
X156417766Y-104907833D02*
X156465385Y-104874500D01*
X156465385Y-104874500D02*
X156489194Y-104841166D01*
X156489194Y-104841166D02*
X156513004Y-104774500D01*
X156513004Y-104774500D02*
X156536813Y-104641166D01*
X156536813Y-104641166D02*
X156536813Y-104474500D01*
X156536813Y-104474500D02*
X156513004Y-104341166D01*
X156513004Y-104341166D02*
X156489194Y-104274500D01*
X156489194Y-104274500D02*
X156465385Y-104241166D01*
X156465385Y-104241166D02*
X156417766Y-104207833D01*
X156013004Y-104874500D02*
X156013004Y-104907833D01*
X156013004Y-104907833D02*
X156036814Y-104974500D01*
X156036814Y-104974500D02*
X156060623Y-105007833D01*
X155417767Y-104907833D02*
X155417767Y-104207833D01*
X155417767Y-104207833D02*
X155298719Y-104207833D01*
X155298719Y-104207833D02*
X155227291Y-104241166D01*
X155227291Y-104241166D02*
X155179672Y-104307833D01*
X155179672Y-104307833D02*
X155155862Y-104374500D01*
X155155862Y-104374500D02*
X155132053Y-104507833D01*
X155132053Y-104507833D02*
X155132053Y-104607833D01*
X155132053Y-104607833D02*
X155155862Y-104741166D01*
X155155862Y-104741166D02*
X155179672Y-104807833D01*
X155179672Y-104807833D02*
X155227291Y-104874500D01*
X155227291Y-104874500D02*
X155298719Y-104907833D01*
X155298719Y-104907833D02*
X155417767Y-104907833D01*
X154655862Y-104907833D02*
X154941576Y-104907833D01*
X154798719Y-104907833D02*
X154798719Y-104207833D01*
X154798719Y-104207833D02*
X154846338Y-104307833D01*
X154846338Y-104307833D02*
X154893957Y-104374500D01*
X154893957Y-104374500D02*
X154941576Y-104407833D01*
X154179672Y-104907833D02*
X154465386Y-104907833D01*
X154322529Y-104907833D02*
X154322529Y-104207833D01*
X154322529Y-104207833D02*
X154370148Y-104307833D01*
X154370148Y-104307833D02*
X154417767Y-104374500D01*
X154417767Y-104374500D02*
X154465386Y-104407833D01*
X154013006Y-105174500D02*
X153989196Y-105141166D01*
X153989196Y-105141166D02*
X153941577Y-105041166D01*
X153941577Y-105041166D02*
X153917768Y-104974500D01*
X153917768Y-104974500D02*
X153893958Y-104874500D01*
X153893958Y-104874500D02*
X153870149Y-104707833D01*
X153870149Y-104707833D02*
X153870149Y-104574500D01*
X153870149Y-104574500D02*
X153893958Y-104407833D01*
X153893958Y-104407833D02*
X153917768Y-104307833D01*
X153917768Y-104307833D02*
X153941577Y-104241166D01*
X153941577Y-104241166D02*
X153989196Y-104141166D01*
X153989196Y-104141166D02*
X154013006Y-104107833D01*
X141399989Y-77464286D02*
X140699989Y-77464286D01*
X140699989Y-77464286D02*
X140699989Y-77654762D01*
X140699989Y-77654762D02*
X140733322Y-77702381D01*
X140733322Y-77702381D02*
X140766656Y-77726191D01*
X140766656Y-77726191D02*
X140833322Y-77750000D01*
X140833322Y-77750000D02*
X140933322Y-77750000D01*
X140933322Y-77750000D02*
X140999989Y-77726191D01*
X140999989Y-77726191D02*
X141033322Y-77702381D01*
X141033322Y-77702381D02*
X141066656Y-77654762D01*
X141066656Y-77654762D02*
X141066656Y-77464286D01*
X141333322Y-78250000D02*
X141366656Y-78226191D01*
X141366656Y-78226191D02*
X141399989Y-78154762D01*
X141399989Y-78154762D02*
X141399989Y-78107143D01*
X141399989Y-78107143D02*
X141366656Y-78035715D01*
X141366656Y-78035715D02*
X141299989Y-77988096D01*
X141299989Y-77988096D02*
X141233322Y-77964286D01*
X141233322Y-77964286D02*
X141099989Y-77940477D01*
X141099989Y-77940477D02*
X140999989Y-77940477D01*
X140999989Y-77940477D02*
X140866656Y-77964286D01*
X140866656Y-77964286D02*
X140799989Y-77988096D01*
X140799989Y-77988096D02*
X140733322Y-78035715D01*
X140733322Y-78035715D02*
X140699989Y-78107143D01*
X140699989Y-78107143D02*
X140699989Y-78154762D01*
X140699989Y-78154762D02*
X140733322Y-78226191D01*
X140733322Y-78226191D02*
X140766656Y-78250000D01*
X141033322Y-78630953D02*
X141066656Y-78702381D01*
X141066656Y-78702381D02*
X141099989Y-78726191D01*
X141099989Y-78726191D02*
X141166656Y-78750000D01*
X141166656Y-78750000D02*
X141266656Y-78750000D01*
X141266656Y-78750000D02*
X141333322Y-78726191D01*
X141333322Y-78726191D02*
X141366656Y-78702381D01*
X141366656Y-78702381D02*
X141399989Y-78654762D01*
X141399989Y-78654762D02*
X141399989Y-78464286D01*
X141399989Y-78464286D02*
X140699989Y-78464286D01*
X140699989Y-78464286D02*
X140699989Y-78630953D01*
X140699989Y-78630953D02*
X140733322Y-78678572D01*
X140733322Y-78678572D02*
X140766656Y-78702381D01*
X140766656Y-78702381D02*
X140833322Y-78726191D01*
X140833322Y-78726191D02*
X140899989Y-78726191D01*
X140899989Y-78726191D02*
X140966656Y-78702381D01*
X140966656Y-78702381D02*
X140999989Y-78678572D01*
X140999989Y-78678572D02*
X141033322Y-78630953D01*
X141033322Y-78630953D02*
X141033322Y-78464286D01*
X141399989Y-79630952D02*
X141066656Y-79464286D01*
X141399989Y-79345238D02*
X140699989Y-79345238D01*
X140699989Y-79345238D02*
X140699989Y-79535714D01*
X140699989Y-79535714D02*
X140733322Y-79583333D01*
X140733322Y-79583333D02*
X140766656Y-79607143D01*
X140766656Y-79607143D02*
X140833322Y-79630952D01*
X140833322Y-79630952D02*
X140933322Y-79630952D01*
X140933322Y-79630952D02*
X140999989Y-79607143D01*
X140999989Y-79607143D02*
X141033322Y-79583333D01*
X141033322Y-79583333D02*
X141066656Y-79535714D01*
X141066656Y-79535714D02*
X141066656Y-79345238D01*
X141399989Y-79916667D02*
X141366656Y-79869048D01*
X141366656Y-79869048D02*
X141333322Y-79845238D01*
X141333322Y-79845238D02*
X141266656Y-79821429D01*
X141266656Y-79821429D02*
X141066656Y-79821429D01*
X141066656Y-79821429D02*
X140999989Y-79845238D01*
X140999989Y-79845238D02*
X140966656Y-79869048D01*
X140966656Y-79869048D02*
X140933322Y-79916667D01*
X140933322Y-79916667D02*
X140933322Y-79988095D01*
X140933322Y-79988095D02*
X140966656Y-80035714D01*
X140966656Y-80035714D02*
X140999989Y-80059524D01*
X140999989Y-80059524D02*
X141066656Y-80083333D01*
X141066656Y-80083333D02*
X141266656Y-80083333D01*
X141266656Y-80083333D02*
X141333322Y-80059524D01*
X141333322Y-80059524D02*
X141366656Y-80035714D01*
X141366656Y-80035714D02*
X141399989Y-79988095D01*
X141399989Y-79988095D02*
X141399989Y-79916667D01*
X141399989Y-80297619D02*
X140699989Y-80297619D01*
X140966656Y-80297619D02*
X140933322Y-80345238D01*
X140933322Y-80345238D02*
X140933322Y-80440476D01*
X140933322Y-80440476D02*
X140966656Y-80488095D01*
X140966656Y-80488095D02*
X140999989Y-80511905D01*
X140999989Y-80511905D02*
X141066656Y-80535714D01*
X141066656Y-80535714D02*
X141266656Y-80535714D01*
X141266656Y-80535714D02*
X141333322Y-80511905D01*
X141333322Y-80511905D02*
X141366656Y-80488095D01*
X141366656Y-80488095D02*
X141399989Y-80440476D01*
X141399989Y-80440476D02*
X141399989Y-80345238D01*
X141399989Y-80345238D02*
X141366656Y-80297619D01*
X141399989Y-80821429D02*
X141366656Y-80773810D01*
X141366656Y-80773810D02*
X141333322Y-80750000D01*
X141333322Y-80750000D02*
X141266656Y-80726191D01*
X141266656Y-80726191D02*
X141066656Y-80726191D01*
X141066656Y-80726191D02*
X140999989Y-80750000D01*
X140999989Y-80750000D02*
X140966656Y-80773810D01*
X140966656Y-80773810D02*
X140933322Y-80821429D01*
X140933322Y-80821429D02*
X140933322Y-80892857D01*
X140933322Y-80892857D02*
X140966656Y-80940476D01*
X140966656Y-80940476D02*
X140999989Y-80964286D01*
X140999989Y-80964286D02*
X141066656Y-80988095D01*
X141066656Y-80988095D02*
X141266656Y-80988095D01*
X141266656Y-80988095D02*
X141333322Y-80964286D01*
X141333322Y-80964286D02*
X141366656Y-80940476D01*
X141366656Y-80940476D02*
X141399989Y-80892857D01*
X141399989Y-80892857D02*
X141399989Y-80821429D01*
X140933322Y-81130953D02*
X140933322Y-81321429D01*
X140699989Y-81202381D02*
X141299989Y-81202381D01*
X141299989Y-81202381D02*
X141366656Y-81226191D01*
X141366656Y-81226191D02*
X141399989Y-81273810D01*
X141399989Y-81273810D02*
X141399989Y-81321429D01*
X141399989Y-81869047D02*
X140699989Y-81869047D01*
X141033322Y-81869047D02*
X141033322Y-82154761D01*
X141399989Y-82154761D02*
X140699989Y-82154761D01*
X141399989Y-82607143D02*
X141033322Y-82607143D01*
X141033322Y-82607143D02*
X140966656Y-82583333D01*
X140966656Y-82583333D02*
X140933322Y-82535714D01*
X140933322Y-82535714D02*
X140933322Y-82440476D01*
X140933322Y-82440476D02*
X140966656Y-82392857D01*
X141366656Y-82607143D02*
X141399989Y-82559524D01*
X141399989Y-82559524D02*
X141399989Y-82440476D01*
X141399989Y-82440476D02*
X141366656Y-82392857D01*
X141366656Y-82392857D02*
X141299989Y-82369048D01*
X141299989Y-82369048D02*
X141233322Y-82369048D01*
X141233322Y-82369048D02*
X141166656Y-82392857D01*
X141166656Y-82392857D02*
X141133322Y-82440476D01*
X141133322Y-82440476D02*
X141133322Y-82559524D01*
X141133322Y-82559524D02*
X141099989Y-82607143D01*
X141366656Y-83059524D02*
X141399989Y-83011905D01*
X141399989Y-83011905D02*
X141399989Y-82916667D01*
X141399989Y-82916667D02*
X141366656Y-82869048D01*
X141366656Y-82869048D02*
X141333322Y-82845238D01*
X141333322Y-82845238D02*
X141266656Y-82821429D01*
X141266656Y-82821429D02*
X141066656Y-82821429D01*
X141066656Y-82821429D02*
X140999989Y-82845238D01*
X140999989Y-82845238D02*
X140966656Y-82869048D01*
X140966656Y-82869048D02*
X140933322Y-82916667D01*
X140933322Y-82916667D02*
X140933322Y-83011905D01*
X140933322Y-83011905D02*
X140966656Y-83059524D01*
X141399989Y-83273809D02*
X140699989Y-83273809D01*
X141133322Y-83321428D02*
X141399989Y-83464285D01*
X140933322Y-83464285D02*
X141199989Y-83273809D01*
X141399989Y-83892857D02*
X141033322Y-83892857D01*
X141033322Y-83892857D02*
X140966656Y-83869047D01*
X140966656Y-83869047D02*
X140933322Y-83821428D01*
X140933322Y-83821428D02*
X140933322Y-83726190D01*
X140933322Y-83726190D02*
X140966656Y-83678571D01*
X141366656Y-83892857D02*
X141399989Y-83845238D01*
X141399989Y-83845238D02*
X141399989Y-83726190D01*
X141399989Y-83726190D02*
X141366656Y-83678571D01*
X141366656Y-83678571D02*
X141299989Y-83654762D01*
X141299989Y-83654762D02*
X141233322Y-83654762D01*
X141233322Y-83654762D02*
X141166656Y-83678571D01*
X141166656Y-83678571D02*
X141133322Y-83726190D01*
X141133322Y-83726190D02*
X141133322Y-83845238D01*
X141133322Y-83845238D02*
X141099989Y-83892857D01*
X140933322Y-84059524D02*
X140933322Y-84250000D01*
X140699989Y-84130952D02*
X141299989Y-84130952D01*
X141299989Y-84130952D02*
X141366656Y-84154762D01*
X141366656Y-84154762D02*
X141399989Y-84202381D01*
X141399989Y-84202381D02*
X141399989Y-84250000D01*
X141399989Y-84416666D02*
X140699989Y-84416666D01*
X141399989Y-84630952D02*
X141033322Y-84630952D01*
X141033322Y-84630952D02*
X140966656Y-84607142D01*
X140966656Y-84607142D02*
X140933322Y-84559523D01*
X140933322Y-84559523D02*
X140933322Y-84488095D01*
X140933322Y-84488095D02*
X140966656Y-84440476D01*
X140966656Y-84440476D02*
X140999989Y-84416666D01*
X141399989Y-84940476D02*
X141366656Y-84892857D01*
X141366656Y-84892857D02*
X141333322Y-84869047D01*
X141333322Y-84869047D02*
X141266656Y-84845238D01*
X141266656Y-84845238D02*
X141066656Y-84845238D01*
X141066656Y-84845238D02*
X140999989Y-84869047D01*
X140999989Y-84869047D02*
X140966656Y-84892857D01*
X140966656Y-84892857D02*
X140933322Y-84940476D01*
X140933322Y-84940476D02*
X140933322Y-85011904D01*
X140933322Y-85011904D02*
X140966656Y-85059523D01*
X140966656Y-85059523D02*
X140999989Y-85083333D01*
X140999989Y-85083333D02*
X141066656Y-85107142D01*
X141066656Y-85107142D02*
X141266656Y-85107142D01*
X141266656Y-85107142D02*
X141333322Y-85083333D01*
X141333322Y-85083333D02*
X141366656Y-85059523D01*
X141366656Y-85059523D02*
X141399989Y-85011904D01*
X141399989Y-85011904D02*
X141399989Y-84940476D01*
X140933322Y-85321428D02*
X141399989Y-85321428D01*
X140999989Y-85321428D02*
X140966656Y-85345238D01*
X140966656Y-85345238D02*
X140933322Y-85392857D01*
X140933322Y-85392857D02*
X140933322Y-85464285D01*
X140933322Y-85464285D02*
X140966656Y-85511904D01*
X140966656Y-85511904D02*
X141033322Y-85535714D01*
X141033322Y-85535714D02*
X141399989Y-85535714D01*
X143187244Y-79666668D02*
X143653911Y-79785716D01*
X143653911Y-79785716D02*
X143187244Y-79904763D01*
X142953911Y-80047620D02*
X142953911Y-80357144D01*
X142953911Y-80357144D02*
X143220578Y-80190477D01*
X143220578Y-80190477D02*
X143220578Y-80261906D01*
X143220578Y-80261906D02*
X143253911Y-80309525D01*
X143253911Y-80309525D02*
X143287244Y-80333334D01*
X143287244Y-80333334D02*
X143353911Y-80357144D01*
X143353911Y-80357144D02*
X143520578Y-80357144D01*
X143520578Y-80357144D02*
X143587244Y-80333334D01*
X143587244Y-80333334D02*
X143620578Y-80309525D01*
X143620578Y-80309525D02*
X143653911Y-80261906D01*
X143653911Y-80261906D02*
X143653911Y-80119049D01*
X143653911Y-80119049D02*
X143620578Y-80071430D01*
X143620578Y-80071430D02*
X143587244Y-80047620D01*
X143920578Y-81095238D02*
X143887244Y-81071429D01*
X143887244Y-81071429D02*
X143787244Y-81023810D01*
X143787244Y-81023810D02*
X143720578Y-81000000D01*
X143720578Y-81000000D02*
X143620578Y-80976191D01*
X143620578Y-80976191D02*
X143453911Y-80952381D01*
X143453911Y-80952381D02*
X143320578Y-80952381D01*
X143320578Y-80952381D02*
X143153911Y-80976191D01*
X143153911Y-80976191D02*
X143053911Y-81000000D01*
X143053911Y-81000000D02*
X142987244Y-81023810D01*
X142987244Y-81023810D02*
X142887244Y-81071429D01*
X142887244Y-81071429D02*
X142853911Y-81095238D01*
X143020578Y-81261905D02*
X142987244Y-81285714D01*
X142987244Y-81285714D02*
X142953911Y-81333333D01*
X142953911Y-81333333D02*
X142953911Y-81452381D01*
X142953911Y-81452381D02*
X142987244Y-81500000D01*
X142987244Y-81500000D02*
X143020578Y-81523809D01*
X143020578Y-81523809D02*
X143087244Y-81547619D01*
X143087244Y-81547619D02*
X143153911Y-81547619D01*
X143153911Y-81547619D02*
X143253911Y-81523809D01*
X143253911Y-81523809D02*
X143653911Y-81238095D01*
X143653911Y-81238095D02*
X143653911Y-81547619D01*
X142953911Y-81857142D02*
X142953911Y-81904761D01*
X142953911Y-81904761D02*
X142987244Y-81952380D01*
X142987244Y-81952380D02*
X143020578Y-81976190D01*
X143020578Y-81976190D02*
X143087244Y-81999999D01*
X143087244Y-81999999D02*
X143220578Y-82023809D01*
X143220578Y-82023809D02*
X143387244Y-82023809D01*
X143387244Y-82023809D02*
X143520578Y-81999999D01*
X143520578Y-81999999D02*
X143587244Y-81976190D01*
X143587244Y-81976190D02*
X143620578Y-81952380D01*
X143620578Y-81952380D02*
X143653911Y-81904761D01*
X143653911Y-81904761D02*
X143653911Y-81857142D01*
X143653911Y-81857142D02*
X143620578Y-81809523D01*
X143620578Y-81809523D02*
X143587244Y-81785714D01*
X143587244Y-81785714D02*
X143520578Y-81761904D01*
X143520578Y-81761904D02*
X143387244Y-81738095D01*
X143387244Y-81738095D02*
X143220578Y-81738095D01*
X143220578Y-81738095D02*
X143087244Y-81761904D01*
X143087244Y-81761904D02*
X143020578Y-81785714D01*
X143020578Y-81785714D02*
X142987244Y-81809523D01*
X142987244Y-81809523D02*
X142953911Y-81857142D01*
X143020578Y-82214285D02*
X142987244Y-82238094D01*
X142987244Y-82238094D02*
X142953911Y-82285713D01*
X142953911Y-82285713D02*
X142953911Y-82404761D01*
X142953911Y-82404761D02*
X142987244Y-82452380D01*
X142987244Y-82452380D02*
X143020578Y-82476189D01*
X143020578Y-82476189D02*
X143087244Y-82499999D01*
X143087244Y-82499999D02*
X143153911Y-82499999D01*
X143153911Y-82499999D02*
X143253911Y-82476189D01*
X143253911Y-82476189D02*
X143653911Y-82190475D01*
X143653911Y-82190475D02*
X143653911Y-82499999D01*
X143187244Y-82928570D02*
X143653911Y-82928570D01*
X142920578Y-82809522D02*
X143420578Y-82690475D01*
X143420578Y-82690475D02*
X143420578Y-82999998D01*
X143920578Y-83142855D02*
X143887244Y-83166665D01*
X143887244Y-83166665D02*
X143787244Y-83214284D01*
X143787244Y-83214284D02*
X143720578Y-83238093D01*
X143720578Y-83238093D02*
X143620578Y-83261903D01*
X143620578Y-83261903D02*
X143453911Y-83285712D01*
X143453911Y-83285712D02*
X143320578Y-83285712D01*
X143320578Y-83285712D02*
X143153911Y-83261903D01*
X143153911Y-83261903D02*
X143053911Y-83238093D01*
X143053911Y-83238093D02*
X142987244Y-83214284D01*
X142987244Y-83214284D02*
X142887244Y-83166665D01*
X142887244Y-83166665D02*
X142853911Y-83142855D01*
X145541166Y-71619052D02*
X145541166Y-71452385D01*
X145907833Y-71452385D02*
X145207833Y-71452385D01*
X145207833Y-71452385D02*
X145207833Y-71690480D01*
X145907833Y-72095242D02*
X145541166Y-72095242D01*
X145541166Y-72095242D02*
X145474500Y-72071432D01*
X145474500Y-72071432D02*
X145441166Y-72023813D01*
X145441166Y-72023813D02*
X145441166Y-71928575D01*
X145441166Y-71928575D02*
X145474500Y-71880956D01*
X145874500Y-72095242D02*
X145907833Y-72047623D01*
X145907833Y-72047623D02*
X145907833Y-71928575D01*
X145907833Y-71928575D02*
X145874500Y-71880956D01*
X145874500Y-71880956D02*
X145807833Y-71857147D01*
X145807833Y-71857147D02*
X145741166Y-71857147D01*
X145741166Y-71857147D02*
X145674500Y-71880956D01*
X145674500Y-71880956D02*
X145641166Y-71928575D01*
X145641166Y-71928575D02*
X145641166Y-72047623D01*
X145641166Y-72047623D02*
X145607833Y-72095242D01*
X145907833Y-72333337D02*
X145441166Y-72333337D01*
X145207833Y-72333337D02*
X145241166Y-72309528D01*
X145241166Y-72309528D02*
X145274500Y-72333337D01*
X145274500Y-72333337D02*
X145241166Y-72357147D01*
X145241166Y-72357147D02*
X145207833Y-72333337D01*
X145207833Y-72333337D02*
X145274500Y-72333337D01*
X145441166Y-72500004D02*
X145441166Y-72690480D01*
X145207833Y-72571432D02*
X145807833Y-72571432D01*
X145807833Y-72571432D02*
X145874500Y-72595242D01*
X145874500Y-72595242D02*
X145907833Y-72642861D01*
X145907833Y-72642861D02*
X145907833Y-72690480D01*
X145907833Y-73452384D02*
X145541166Y-73452384D01*
X145541166Y-73452384D02*
X145474500Y-73428574D01*
X145474500Y-73428574D02*
X145441166Y-73380955D01*
X145441166Y-73380955D02*
X145441166Y-73285717D01*
X145441166Y-73285717D02*
X145474500Y-73238098D01*
X145874500Y-73452384D02*
X145907833Y-73404765D01*
X145907833Y-73404765D02*
X145907833Y-73285717D01*
X145907833Y-73285717D02*
X145874500Y-73238098D01*
X145874500Y-73238098D02*
X145807833Y-73214289D01*
X145807833Y-73214289D02*
X145741166Y-73214289D01*
X145741166Y-73214289D02*
X145674500Y-73238098D01*
X145674500Y-73238098D02*
X145641166Y-73285717D01*
X145641166Y-73285717D02*
X145641166Y-73404765D01*
X145641166Y-73404765D02*
X145607833Y-73452384D01*
X145441166Y-73642860D02*
X145907833Y-73761908D01*
X145907833Y-73761908D02*
X145441166Y-73880955D01*
X145874500Y-74261907D02*
X145907833Y-74214288D01*
X145907833Y-74214288D02*
X145907833Y-74119050D01*
X145907833Y-74119050D02*
X145874500Y-74071431D01*
X145874500Y-74071431D02*
X145807833Y-74047622D01*
X145807833Y-74047622D02*
X145541166Y-74047622D01*
X145541166Y-74047622D02*
X145474500Y-74071431D01*
X145474500Y-74071431D02*
X145441166Y-74119050D01*
X145441166Y-74119050D02*
X145441166Y-74214288D01*
X145441166Y-74214288D02*
X145474500Y-74261907D01*
X145474500Y-74261907D02*
X145541166Y-74285717D01*
X145541166Y-74285717D02*
X145607833Y-74285717D01*
X145607833Y-74285717D02*
X145674500Y-74047622D01*
X145874500Y-74714288D02*
X145907833Y-74666669D01*
X145907833Y-74666669D02*
X145907833Y-74571431D01*
X145907833Y-74571431D02*
X145874500Y-74523812D01*
X145874500Y-74523812D02*
X145841166Y-74500002D01*
X145841166Y-74500002D02*
X145774500Y-74476193D01*
X145774500Y-74476193D02*
X145574500Y-74476193D01*
X145574500Y-74476193D02*
X145507833Y-74500002D01*
X145507833Y-74500002D02*
X145474500Y-74523812D01*
X145474500Y-74523812D02*
X145441166Y-74571431D01*
X145441166Y-74571431D02*
X145441166Y-74666669D01*
X145441166Y-74666669D02*
X145474500Y-74714288D01*
X145907833Y-75523811D02*
X145541166Y-75523811D01*
X145541166Y-75523811D02*
X145474500Y-75500001D01*
X145474500Y-75500001D02*
X145441166Y-75452382D01*
X145441166Y-75452382D02*
X145441166Y-75357144D01*
X145441166Y-75357144D02*
X145474500Y-75309525D01*
X145874500Y-75523811D02*
X145907833Y-75476192D01*
X145907833Y-75476192D02*
X145907833Y-75357144D01*
X145907833Y-75357144D02*
X145874500Y-75309525D01*
X145874500Y-75309525D02*
X145807833Y-75285716D01*
X145807833Y-75285716D02*
X145741166Y-75285716D01*
X145741166Y-75285716D02*
X145674500Y-75309525D01*
X145674500Y-75309525D02*
X145641166Y-75357144D01*
X145641166Y-75357144D02*
X145641166Y-75476192D01*
X145641166Y-75476192D02*
X145607833Y-75523811D01*
X145907833Y-75761906D02*
X145441166Y-75761906D01*
X145507833Y-75761906D02*
X145474500Y-75785716D01*
X145474500Y-75785716D02*
X145441166Y-75833335D01*
X145441166Y-75833335D02*
X145441166Y-75904763D01*
X145441166Y-75904763D02*
X145474500Y-75952382D01*
X145474500Y-75952382D02*
X145541166Y-75976192D01*
X145541166Y-75976192D02*
X145907833Y-75976192D01*
X145541166Y-75976192D02*
X145474500Y-76000001D01*
X145474500Y-76000001D02*
X145441166Y-76047620D01*
X145441166Y-76047620D02*
X145441166Y-76119049D01*
X145441166Y-76119049D02*
X145474500Y-76166668D01*
X145474500Y-76166668D02*
X145541166Y-76190478D01*
X145541166Y-76190478D02*
X145907833Y-76190478D01*
X145907833Y-76500002D02*
X145874500Y-76452383D01*
X145874500Y-76452383D02*
X145841166Y-76428573D01*
X145841166Y-76428573D02*
X145774500Y-76404764D01*
X145774500Y-76404764D02*
X145574500Y-76404764D01*
X145574500Y-76404764D02*
X145507833Y-76428573D01*
X145507833Y-76428573D02*
X145474500Y-76452383D01*
X145474500Y-76452383D02*
X145441166Y-76500002D01*
X145441166Y-76500002D02*
X145441166Y-76571430D01*
X145441166Y-76571430D02*
X145474500Y-76619049D01*
X145474500Y-76619049D02*
X145507833Y-76642859D01*
X145507833Y-76642859D02*
X145574500Y-76666668D01*
X145574500Y-76666668D02*
X145774500Y-76666668D01*
X145774500Y-76666668D02*
X145841166Y-76642859D01*
X145841166Y-76642859D02*
X145874500Y-76619049D01*
X145874500Y-76619049D02*
X145907833Y-76571430D01*
X145907833Y-76571430D02*
X145907833Y-76500002D01*
X145441166Y-77095240D02*
X145907833Y-77095240D01*
X145441166Y-76880954D02*
X145807833Y-76880954D01*
X145807833Y-76880954D02*
X145874500Y-76904764D01*
X145874500Y-76904764D02*
X145907833Y-76952383D01*
X145907833Y-76952383D02*
X145907833Y-77023811D01*
X145907833Y-77023811D02*
X145874500Y-77071430D01*
X145874500Y-77071430D02*
X145841166Y-77095240D01*
X145907833Y-77333335D02*
X145441166Y-77333335D01*
X145574500Y-77333335D02*
X145507833Y-77357145D01*
X145507833Y-77357145D02*
X145474500Y-77380954D01*
X145474500Y-77380954D02*
X145441166Y-77428573D01*
X145441166Y-77428573D02*
X145441166Y-77476192D01*
X145874500Y-77666669D02*
X145907833Y-77666669D01*
X145907833Y-77666669D02*
X145974500Y-77642859D01*
X145974500Y-77642859D02*
X146007833Y-77619050D01*
X145441166Y-78261906D02*
X146141166Y-78261906D01*
X145474500Y-78261906D02*
X145441166Y-78309525D01*
X145441166Y-78309525D02*
X145441166Y-78404763D01*
X145441166Y-78404763D02*
X145474500Y-78452382D01*
X145474500Y-78452382D02*
X145507833Y-78476192D01*
X145507833Y-78476192D02*
X145574500Y-78500001D01*
X145574500Y-78500001D02*
X145774500Y-78500001D01*
X145774500Y-78500001D02*
X145841166Y-78476192D01*
X145841166Y-78476192D02*
X145874500Y-78452382D01*
X145874500Y-78452382D02*
X145907833Y-78404763D01*
X145907833Y-78404763D02*
X145907833Y-78309525D01*
X145907833Y-78309525D02*
X145874500Y-78261906D01*
X145907833Y-78785716D02*
X145874500Y-78738097D01*
X145874500Y-78738097D02*
X145841166Y-78714287D01*
X145841166Y-78714287D02*
X145774500Y-78690478D01*
X145774500Y-78690478D02*
X145574500Y-78690478D01*
X145574500Y-78690478D02*
X145507833Y-78714287D01*
X145507833Y-78714287D02*
X145474500Y-78738097D01*
X145474500Y-78738097D02*
X145441166Y-78785716D01*
X145441166Y-78785716D02*
X145441166Y-78857144D01*
X145441166Y-78857144D02*
X145474500Y-78904763D01*
X145474500Y-78904763D02*
X145507833Y-78928573D01*
X145507833Y-78928573D02*
X145574500Y-78952382D01*
X145574500Y-78952382D02*
X145774500Y-78952382D01*
X145774500Y-78952382D02*
X145841166Y-78928573D01*
X145841166Y-78928573D02*
X145874500Y-78904763D01*
X145874500Y-78904763D02*
X145907833Y-78857144D01*
X145907833Y-78857144D02*
X145907833Y-78785716D01*
X145441166Y-79380954D02*
X145907833Y-79380954D01*
X145441166Y-79166668D02*
X145807833Y-79166668D01*
X145807833Y-79166668D02*
X145874500Y-79190478D01*
X145874500Y-79190478D02*
X145907833Y-79238097D01*
X145907833Y-79238097D02*
X145907833Y-79309525D01*
X145907833Y-79309525D02*
X145874500Y-79357144D01*
X145874500Y-79357144D02*
X145841166Y-79380954D01*
X145907833Y-79619049D02*
X145441166Y-79619049D01*
X145574500Y-79619049D02*
X145507833Y-79642859D01*
X145507833Y-79642859D02*
X145474500Y-79666668D01*
X145474500Y-79666668D02*
X145441166Y-79714287D01*
X145441166Y-79714287D02*
X145441166Y-79761906D01*
X145907833Y-80380954D02*
X145874500Y-80333335D01*
X145874500Y-80333335D02*
X145807833Y-80309525D01*
X145807833Y-80309525D02*
X145207833Y-80309525D01*
X145874500Y-80761906D02*
X145907833Y-80714287D01*
X145907833Y-80714287D02*
X145907833Y-80619049D01*
X145907833Y-80619049D02*
X145874500Y-80571430D01*
X145874500Y-80571430D02*
X145807833Y-80547621D01*
X145807833Y-80547621D02*
X145541166Y-80547621D01*
X145541166Y-80547621D02*
X145474500Y-80571430D01*
X145474500Y-80571430D02*
X145441166Y-80619049D01*
X145441166Y-80619049D02*
X145441166Y-80714287D01*
X145441166Y-80714287D02*
X145474500Y-80761906D01*
X145474500Y-80761906D02*
X145541166Y-80785716D01*
X145541166Y-80785716D02*
X145607833Y-80785716D01*
X145607833Y-80785716D02*
X145674500Y-80547621D01*
X145874500Y-80976192D02*
X145907833Y-81023811D01*
X145907833Y-81023811D02*
X145907833Y-81119049D01*
X145907833Y-81119049D02*
X145874500Y-81166668D01*
X145874500Y-81166668D02*
X145807833Y-81190477D01*
X145807833Y-81190477D02*
X145774500Y-81190477D01*
X145774500Y-81190477D02*
X145707833Y-81166668D01*
X145707833Y-81166668D02*
X145674500Y-81119049D01*
X145674500Y-81119049D02*
X145674500Y-81047620D01*
X145674500Y-81047620D02*
X145641166Y-81000001D01*
X145641166Y-81000001D02*
X145574500Y-80976192D01*
X145574500Y-80976192D02*
X145541166Y-80976192D01*
X145541166Y-80976192D02*
X145474500Y-81000001D01*
X145474500Y-81000001D02*
X145441166Y-81047620D01*
X145441166Y-81047620D02*
X145441166Y-81119049D01*
X145441166Y-81119049D02*
X145474500Y-81166668D01*
X145907833Y-82047620D02*
X145907833Y-81761906D01*
X145907833Y-81904763D02*
X145207833Y-81904763D01*
X145207833Y-81904763D02*
X145307833Y-81857144D01*
X145307833Y-81857144D02*
X145374500Y-81809525D01*
X145374500Y-81809525D02*
X145407833Y-81761906D01*
X145707833Y-82238096D02*
X145707833Y-82476191D01*
X145907833Y-82190477D02*
X145207833Y-82357143D01*
X145207833Y-82357143D02*
X145907833Y-82523810D01*
X145874500Y-82714286D02*
X145907833Y-82714286D01*
X145907833Y-82714286D02*
X145974500Y-82690476D01*
X145974500Y-82690476D02*
X146007833Y-82666667D01*
X145441166Y-83309523D02*
X146141166Y-83309523D01*
X145474500Y-83309523D02*
X145441166Y-83357142D01*
X145441166Y-83357142D02*
X145441166Y-83452380D01*
X145441166Y-83452380D02*
X145474500Y-83499999D01*
X145474500Y-83499999D02*
X145507833Y-83523809D01*
X145507833Y-83523809D02*
X145574500Y-83547618D01*
X145574500Y-83547618D02*
X145774500Y-83547618D01*
X145774500Y-83547618D02*
X145841166Y-83523809D01*
X145841166Y-83523809D02*
X145874500Y-83499999D01*
X145874500Y-83499999D02*
X145907833Y-83452380D01*
X145907833Y-83452380D02*
X145907833Y-83357142D01*
X145907833Y-83357142D02*
X145874500Y-83309523D01*
X145907833Y-83976190D02*
X145541166Y-83976190D01*
X145541166Y-83976190D02*
X145474500Y-83952380D01*
X145474500Y-83952380D02*
X145441166Y-83904761D01*
X145441166Y-83904761D02*
X145441166Y-83809523D01*
X145441166Y-83809523D02*
X145474500Y-83761904D01*
X145874500Y-83976190D02*
X145907833Y-83928571D01*
X145907833Y-83928571D02*
X145907833Y-83809523D01*
X145907833Y-83809523D02*
X145874500Y-83761904D01*
X145874500Y-83761904D02*
X145807833Y-83738095D01*
X145807833Y-83738095D02*
X145741166Y-83738095D01*
X145741166Y-83738095D02*
X145674500Y-83761904D01*
X145674500Y-83761904D02*
X145641166Y-83809523D01*
X145641166Y-83809523D02*
X145641166Y-83928571D01*
X145641166Y-83928571D02*
X145607833Y-83976190D01*
X145907833Y-84214285D02*
X145441166Y-84214285D01*
X145574500Y-84214285D02*
X145507833Y-84238095D01*
X145507833Y-84238095D02*
X145474500Y-84261904D01*
X145474500Y-84261904D02*
X145441166Y-84309523D01*
X145441166Y-84309523D02*
X145441166Y-84357142D01*
X145907833Y-84976190D02*
X145874500Y-84928571D01*
X145874500Y-84928571D02*
X145807833Y-84904761D01*
X145807833Y-84904761D02*
X145207833Y-84904761D01*
X145874500Y-85357142D02*
X145907833Y-85309523D01*
X145907833Y-85309523D02*
X145907833Y-85214285D01*
X145907833Y-85214285D02*
X145874500Y-85166666D01*
X145874500Y-85166666D02*
X145807833Y-85142857D01*
X145807833Y-85142857D02*
X145541166Y-85142857D01*
X145541166Y-85142857D02*
X145474500Y-85166666D01*
X145474500Y-85166666D02*
X145441166Y-85214285D01*
X145441166Y-85214285D02*
X145441166Y-85309523D01*
X145441166Y-85309523D02*
X145474500Y-85357142D01*
X145474500Y-85357142D02*
X145541166Y-85380952D01*
X145541166Y-85380952D02*
X145607833Y-85380952D01*
X145607833Y-85380952D02*
X145674500Y-85142857D01*
X145874500Y-85571428D02*
X145907833Y-85619047D01*
X145907833Y-85619047D02*
X145907833Y-85714285D01*
X145907833Y-85714285D02*
X145874500Y-85761904D01*
X145874500Y-85761904D02*
X145807833Y-85785713D01*
X145807833Y-85785713D02*
X145774500Y-85785713D01*
X145774500Y-85785713D02*
X145707833Y-85761904D01*
X145707833Y-85761904D02*
X145674500Y-85714285D01*
X145674500Y-85714285D02*
X145674500Y-85642856D01*
X145674500Y-85642856D02*
X145641166Y-85595237D01*
X145641166Y-85595237D02*
X145574500Y-85571428D01*
X145574500Y-85571428D02*
X145541166Y-85571428D01*
X145541166Y-85571428D02*
X145474500Y-85595237D01*
X145474500Y-85595237D02*
X145441166Y-85642856D01*
X145441166Y-85642856D02*
X145441166Y-85714285D01*
X145441166Y-85714285D02*
X145474500Y-85761904D01*
X145441166Y-86333332D02*
X145907833Y-86452380D01*
X145907833Y-86452380D02*
X145441166Y-86571427D01*
X145907833Y-86761903D02*
X145441166Y-86761903D01*
X145207833Y-86761903D02*
X145241166Y-86738094D01*
X145241166Y-86738094D02*
X145274500Y-86761903D01*
X145274500Y-86761903D02*
X145241166Y-86785713D01*
X145241166Y-86785713D02*
X145207833Y-86761903D01*
X145207833Y-86761903D02*
X145274500Y-86761903D01*
X145874500Y-87190474D02*
X145907833Y-87142855D01*
X145907833Y-87142855D02*
X145907833Y-87047617D01*
X145907833Y-87047617D02*
X145874500Y-86999998D01*
X145874500Y-86999998D02*
X145807833Y-86976189D01*
X145807833Y-86976189D02*
X145541166Y-86976189D01*
X145541166Y-86976189D02*
X145474500Y-86999998D01*
X145474500Y-86999998D02*
X145441166Y-87047617D01*
X145441166Y-87047617D02*
X145441166Y-87142855D01*
X145441166Y-87142855D02*
X145474500Y-87190474D01*
X145474500Y-87190474D02*
X145541166Y-87214284D01*
X145541166Y-87214284D02*
X145607833Y-87214284D01*
X145607833Y-87214284D02*
X145674500Y-86976189D01*
X145441166Y-87642855D02*
X145907833Y-87642855D01*
X145441166Y-87428569D02*
X145807833Y-87428569D01*
X145807833Y-87428569D02*
X145874500Y-87452379D01*
X145874500Y-87452379D02*
X145907833Y-87499998D01*
X145907833Y-87499998D02*
X145907833Y-87571426D01*
X145907833Y-87571426D02*
X145874500Y-87619045D01*
X145874500Y-87619045D02*
X145841166Y-87642855D01*
X145907833Y-87833331D02*
X145441166Y-88095236D01*
X145441166Y-87833331D02*
X145907833Y-88095236D01*
X146174500Y-90333329D02*
X146141166Y-90309520D01*
X146141166Y-90309520D02*
X146041166Y-90261901D01*
X146041166Y-90261901D02*
X145974500Y-90238091D01*
X145974500Y-90238091D02*
X145874500Y-90214282D01*
X145874500Y-90214282D02*
X145707833Y-90190472D01*
X145707833Y-90190472D02*
X145574500Y-90190472D01*
X145574500Y-90190472D02*
X145407833Y-90214282D01*
X145407833Y-90214282D02*
X145307833Y-90238091D01*
X145307833Y-90238091D02*
X145241166Y-90261901D01*
X145241166Y-90261901D02*
X145141166Y-90309520D01*
X145141166Y-90309520D02*
X145107833Y-90333329D01*
X145707833Y-90499996D02*
X145707833Y-90738091D01*
X145907833Y-90452377D02*
X145207833Y-90619043D01*
X145207833Y-90619043D02*
X145907833Y-90785710D01*
X145841166Y-91238090D02*
X145874500Y-91214281D01*
X145874500Y-91214281D02*
X145907833Y-91142852D01*
X145907833Y-91142852D02*
X145907833Y-91095233D01*
X145907833Y-91095233D02*
X145874500Y-91023805D01*
X145874500Y-91023805D02*
X145807833Y-90976186D01*
X145807833Y-90976186D02*
X145741166Y-90952376D01*
X145741166Y-90952376D02*
X145607833Y-90928567D01*
X145607833Y-90928567D02*
X145507833Y-90928567D01*
X145507833Y-90928567D02*
X145374500Y-90952376D01*
X145374500Y-90952376D02*
X145307833Y-90976186D01*
X145307833Y-90976186D02*
X145241166Y-91023805D01*
X145241166Y-91023805D02*
X145207833Y-91095233D01*
X145207833Y-91095233D02*
X145207833Y-91142852D01*
X145207833Y-91142852D02*
X145241166Y-91214281D01*
X145241166Y-91214281D02*
X145274500Y-91238090D01*
X146174500Y-91404757D02*
X146141166Y-91428567D01*
X146141166Y-91428567D02*
X146041166Y-91476186D01*
X146041166Y-91476186D02*
X145974500Y-91499995D01*
X145974500Y-91499995D02*
X145874500Y-91523805D01*
X145874500Y-91523805D02*
X145707833Y-91547614D01*
X145707833Y-91547614D02*
X145574500Y-91547614D01*
X145574500Y-91547614D02*
X145407833Y-91523805D01*
X145407833Y-91523805D02*
X145307833Y-91499995D01*
X145307833Y-91499995D02*
X145241166Y-91476186D01*
X145241166Y-91476186D02*
X145141166Y-91428567D01*
X145141166Y-91428567D02*
X145107833Y-91404757D01*
X165541166Y-90367950D02*
X165574500Y-90439378D01*
X165574500Y-90439378D02*
X165607833Y-90463188D01*
X165607833Y-90463188D02*
X165674500Y-90486997D01*
X165674500Y-90486997D02*
X165774500Y-90486997D01*
X165774500Y-90486997D02*
X165841166Y-90463188D01*
X165841166Y-90463188D02*
X165874500Y-90439378D01*
X165874500Y-90439378D02*
X165907833Y-90391759D01*
X165907833Y-90391759D02*
X165907833Y-90201283D01*
X165907833Y-90201283D02*
X165207833Y-90201283D01*
X165207833Y-90201283D02*
X165207833Y-90367950D01*
X165207833Y-90367950D02*
X165241166Y-90415569D01*
X165241166Y-90415569D02*
X165274500Y-90439378D01*
X165274500Y-90439378D02*
X165341166Y-90463188D01*
X165341166Y-90463188D02*
X165407833Y-90463188D01*
X165407833Y-90463188D02*
X165474500Y-90439378D01*
X165474500Y-90439378D02*
X165507833Y-90415569D01*
X165507833Y-90415569D02*
X165541166Y-90367950D01*
X165541166Y-90367950D02*
X165541166Y-90201283D01*
X165207833Y-90629855D02*
X165207833Y-90915569D01*
X165907833Y-90772712D02*
X165207833Y-90772712D01*
X165907833Y-91082235D02*
X165207833Y-91082235D01*
X165207833Y-91082235D02*
X165907833Y-91367949D01*
X165907833Y-91367949D02*
X165207833Y-91367949D01*
X165974500Y-91486998D02*
X165974500Y-91867950D01*
X165874500Y-92177473D02*
X165907833Y-92129854D01*
X165907833Y-92129854D02*
X165907833Y-92034616D01*
X165907833Y-92034616D02*
X165874500Y-91986997D01*
X165874500Y-91986997D02*
X165807833Y-91963188D01*
X165807833Y-91963188D02*
X165541166Y-91963188D01*
X165541166Y-91963188D02*
X165474500Y-91986997D01*
X165474500Y-91986997D02*
X165441166Y-92034616D01*
X165441166Y-92034616D02*
X165441166Y-92129854D01*
X165441166Y-92129854D02*
X165474500Y-92177473D01*
X165474500Y-92177473D02*
X165541166Y-92201283D01*
X165541166Y-92201283D02*
X165607833Y-92201283D01*
X165607833Y-92201283D02*
X165674500Y-91963188D01*
X165441166Y-92629854D02*
X166141166Y-92629854D01*
X165874500Y-92629854D02*
X165907833Y-92582235D01*
X165907833Y-92582235D02*
X165907833Y-92486997D01*
X165907833Y-92486997D02*
X165874500Y-92439378D01*
X165874500Y-92439378D02*
X165841166Y-92415568D01*
X165841166Y-92415568D02*
X165774500Y-92391759D01*
X165774500Y-92391759D02*
X165574500Y-92391759D01*
X165574500Y-92391759D02*
X165507833Y-92415568D01*
X165507833Y-92415568D02*
X165474500Y-92439378D01*
X165474500Y-92439378D02*
X165441166Y-92486997D01*
X165441166Y-92486997D02*
X165441166Y-92582235D01*
X165441166Y-92582235D02*
X165474500Y-92629854D01*
X165441166Y-93082235D02*
X165907833Y-93082235D01*
X165441166Y-92867949D02*
X165807833Y-92867949D01*
X165807833Y-92867949D02*
X165874500Y-92891759D01*
X165874500Y-92891759D02*
X165907833Y-92939378D01*
X165907833Y-92939378D02*
X165907833Y-93010806D01*
X165907833Y-93010806D02*
X165874500Y-93058425D01*
X165874500Y-93058425D02*
X165841166Y-93082235D01*
X165907833Y-93320330D02*
X165441166Y-93320330D01*
X165207833Y-93320330D02*
X165241166Y-93296521D01*
X165241166Y-93296521D02*
X165274500Y-93320330D01*
X165274500Y-93320330D02*
X165241166Y-93344140D01*
X165241166Y-93344140D02*
X165207833Y-93320330D01*
X165207833Y-93320330D02*
X165274500Y-93320330D01*
X165441166Y-93558425D02*
X166141166Y-93558425D01*
X165474500Y-93558425D02*
X165441166Y-93606044D01*
X165441166Y-93606044D02*
X165441166Y-93701282D01*
X165441166Y-93701282D02*
X165474500Y-93748901D01*
X165474500Y-93748901D02*
X165507833Y-93772711D01*
X165507833Y-93772711D02*
X165574500Y-93796520D01*
X165574500Y-93796520D02*
X165774500Y-93796520D01*
X165774500Y-93796520D02*
X165841166Y-93772711D01*
X165841166Y-93772711D02*
X165874500Y-93748901D01*
X165874500Y-93748901D02*
X165907833Y-93701282D01*
X165907833Y-93701282D02*
X165907833Y-93606044D01*
X165907833Y-93606044D02*
X165874500Y-93558425D01*
X165874500Y-94201282D02*
X165907833Y-94153663D01*
X165907833Y-94153663D02*
X165907833Y-94058425D01*
X165907833Y-94058425D02*
X165874500Y-94010806D01*
X165874500Y-94010806D02*
X165807833Y-93986997D01*
X165807833Y-93986997D02*
X165541166Y-93986997D01*
X165541166Y-93986997D02*
X165474500Y-94010806D01*
X165474500Y-94010806D02*
X165441166Y-94058425D01*
X165441166Y-94058425D02*
X165441166Y-94153663D01*
X165441166Y-94153663D02*
X165474500Y-94201282D01*
X165474500Y-94201282D02*
X165541166Y-94225092D01*
X165541166Y-94225092D02*
X165607833Y-94225092D01*
X165607833Y-94225092D02*
X165674500Y-93986997D01*
X166174500Y-94963186D02*
X166141166Y-94939377D01*
X166141166Y-94939377D02*
X166041166Y-94891758D01*
X166041166Y-94891758D02*
X165974500Y-94867948D01*
X165974500Y-94867948D02*
X165874500Y-94844139D01*
X165874500Y-94844139D02*
X165707833Y-94820329D01*
X165707833Y-94820329D02*
X165574500Y-94820329D01*
X165574500Y-94820329D02*
X165407833Y-94844139D01*
X165407833Y-94844139D02*
X165307833Y-94867948D01*
X165307833Y-94867948D02*
X165241166Y-94891758D01*
X165241166Y-94891758D02*
X165141166Y-94939377D01*
X165141166Y-94939377D02*
X165107833Y-94963186D01*
X165241166Y-95415567D02*
X165207833Y-95367948D01*
X165207833Y-95367948D02*
X165207833Y-95296519D01*
X165207833Y-95296519D02*
X165241166Y-95225091D01*
X165241166Y-95225091D02*
X165307833Y-95177472D01*
X165307833Y-95177472D02*
X165374500Y-95153662D01*
X165374500Y-95153662D02*
X165507833Y-95129853D01*
X165507833Y-95129853D02*
X165607833Y-95129853D01*
X165607833Y-95129853D02*
X165741166Y-95153662D01*
X165741166Y-95153662D02*
X165807833Y-95177472D01*
X165807833Y-95177472D02*
X165874500Y-95225091D01*
X165874500Y-95225091D02*
X165907833Y-95296519D01*
X165907833Y-95296519D02*
X165907833Y-95344138D01*
X165907833Y-95344138D02*
X165874500Y-95415567D01*
X165874500Y-95415567D02*
X165841166Y-95439376D01*
X165841166Y-95439376D02*
X165607833Y-95439376D01*
X165607833Y-95439376D02*
X165607833Y-95344138D01*
X165907833Y-95653662D02*
X165207833Y-95653662D01*
X165207833Y-95653662D02*
X165907833Y-95939376D01*
X165907833Y-95939376D02*
X165207833Y-95939376D01*
X165907833Y-96177472D02*
X165207833Y-96177472D01*
X165207833Y-96177472D02*
X165207833Y-96296520D01*
X165207833Y-96296520D02*
X165241166Y-96367948D01*
X165241166Y-96367948D02*
X165307833Y-96415567D01*
X165307833Y-96415567D02*
X165374500Y-96439377D01*
X165374500Y-96439377D02*
X165507833Y-96463186D01*
X165507833Y-96463186D02*
X165607833Y-96463186D01*
X165607833Y-96463186D02*
X165741166Y-96439377D01*
X165741166Y-96439377D02*
X165807833Y-96415567D01*
X165807833Y-96415567D02*
X165874500Y-96367948D01*
X165874500Y-96367948D02*
X165907833Y-96296520D01*
X165907833Y-96296520D02*
X165907833Y-96177472D01*
X165874500Y-96701282D02*
X165907833Y-96701282D01*
X165907833Y-96701282D02*
X165974500Y-96677472D01*
X165974500Y-96677472D02*
X166007833Y-96653663D01*
X165907833Y-97296519D02*
X165207833Y-97296519D01*
X165207833Y-97296519D02*
X165207833Y-97415567D01*
X165207833Y-97415567D02*
X165241166Y-97486995D01*
X165241166Y-97486995D02*
X165307833Y-97534614D01*
X165307833Y-97534614D02*
X165374500Y-97558424D01*
X165374500Y-97558424D02*
X165507833Y-97582233D01*
X165507833Y-97582233D02*
X165607833Y-97582233D01*
X165607833Y-97582233D02*
X165741166Y-97558424D01*
X165741166Y-97558424D02*
X165807833Y-97534614D01*
X165807833Y-97534614D02*
X165874500Y-97486995D01*
X165874500Y-97486995D02*
X165907833Y-97415567D01*
X165907833Y-97415567D02*
X165907833Y-97296519D01*
X165907833Y-98058424D02*
X165907833Y-97772710D01*
X165907833Y-97915567D02*
X165207833Y-97915567D01*
X165207833Y-97915567D02*
X165307833Y-97867948D01*
X165307833Y-97867948D02*
X165374500Y-97820329D01*
X165374500Y-97820329D02*
X165407833Y-97772710D01*
X165207833Y-98225090D02*
X165207833Y-98534614D01*
X165207833Y-98534614D02*
X165474500Y-98367947D01*
X165474500Y-98367947D02*
X165474500Y-98439376D01*
X165474500Y-98439376D02*
X165507833Y-98486995D01*
X165507833Y-98486995D02*
X165541166Y-98510804D01*
X165541166Y-98510804D02*
X165607833Y-98534614D01*
X165607833Y-98534614D02*
X165774500Y-98534614D01*
X165774500Y-98534614D02*
X165841166Y-98510804D01*
X165841166Y-98510804D02*
X165874500Y-98486995D01*
X165874500Y-98486995D02*
X165907833Y-98439376D01*
X165907833Y-98439376D02*
X165907833Y-98296519D01*
X165907833Y-98296519D02*
X165874500Y-98248900D01*
X165874500Y-98248900D02*
X165841166Y-98225090D01*
X166174500Y-98701280D02*
X166141166Y-98725090D01*
X166141166Y-98725090D02*
X166041166Y-98772709D01*
X166041166Y-98772709D02*
X165974500Y-98796518D01*
X165974500Y-98796518D02*
X165874500Y-98820328D01*
X165874500Y-98820328D02*
X165707833Y-98844137D01*
X165707833Y-98844137D02*
X165574500Y-98844137D01*
X165574500Y-98844137D02*
X165407833Y-98820328D01*
X165407833Y-98820328D02*
X165307833Y-98796518D01*
X165307833Y-98796518D02*
X165241166Y-98772709D01*
X165241166Y-98772709D02*
X165141166Y-98725090D01*
X165141166Y-98725090D02*
X165107833Y-98701280D01*
M02*
