%TF.GenerationSoftware,KiCad,Pcbnew,8.0.3*%
%TF.CreationDate,2024-09-12T15:26:23+02:00*%
%TF.ProjectId,pcb_robot,7063625f-726f-4626-9f74-2e6b69636164,rev?*%
%TF.SameCoordinates,Original*%
%TF.FileFunction,Soldermask,Top*%
%TF.FilePolarity,Negative*%
%FSLAX46Y46*%
G04 Gerber Fmt 4.6, Leading zero omitted, Abs format (unit mm)*
G04 Created by KiCad (PCBNEW 8.0.3) date 2024-09-12 15:26:23*
%MOMM*%
%LPD*%
G01*
G04 APERTURE LIST*
G04 Aperture macros list*
%AMRoundRect*
0 Rectangle with rounded corners*
0 $1 Rounding radius*
0 $2 $3 $4 $5 $6 $7 $8 $9 X,Y pos of 4 corners*
0 Add a 4 corners polygon primitive as box body*
4,1,4,$2,$3,$4,$5,$6,$7,$8,$9,$2,$3,0*
0 Add four circle primitives for the rounded corners*
1,1,$1+$1,$2,$3*
1,1,$1+$1,$4,$5*
1,1,$1+$1,$6,$7*
1,1,$1+$1,$8,$9*
0 Add four rect primitives between the rounded corners*
20,1,$1+$1,$2,$3,$4,$5,0*
20,1,$1+$1,$4,$5,$6,$7,0*
20,1,$1+$1,$6,$7,$8,$9,0*
20,1,$1+$1,$8,$9,$2,$3,0*%
G04 Aperture macros list end*
%ADD10R,1.000000X1.000000*%
%ADD11O,1.000000X1.000000*%
%ADD12RoundRect,0.250000X0.750000X-0.600000X0.750000X0.600000X-0.750000X0.600000X-0.750000X-0.600000X0*%
%ADD13O,2.000000X1.700000*%
%ADD14R,1.800000X1.800000*%
%ADD15C,1.800000*%
%ADD16C,1.600000*%
%ADD17O,1.600000X1.600000*%
%ADD18R,1.600000X1.600000*%
%ADD19RoundRect,0.237500X-0.237500X0.250000X-0.237500X-0.250000X0.237500X-0.250000X0.237500X0.250000X0*%
G04 APERTURE END LIST*
D10*
%TO.C,J7*%
X154075000Y-62100000D03*
D11*
X154075000Y-63370000D03*
X154075000Y-64640000D03*
X154075000Y-65910000D03*
%TD*%
D12*
%TO.C,J5*%
X130310000Y-95100000D03*
D13*
X130310000Y-92600000D03*
%TD*%
D14*
%TO.C,D1*%
X156000000Y-86725000D03*
D15*
X156000000Y-89265000D03*
%TD*%
D12*
%TO.C,J6*%
X156000000Y-102000000D03*
D13*
X156000000Y-99500000D03*
%TD*%
D10*
%TO.C,J2*%
X154075000Y-75225000D03*
D11*
X154075000Y-76495000D03*
X154075000Y-77765000D03*
%TD*%
D10*
%TO.C,J4*%
X129850000Y-70575000D03*
D11*
X131120000Y-70575000D03*
%TD*%
D14*
%TO.C,D2*%
X156000000Y-91960000D03*
D15*
X156000000Y-94500000D03*
%TD*%
D16*
%TO.C,F1*%
X130500000Y-87650000D03*
D17*
X130500000Y-74950000D03*
%TD*%
D10*
%TO.C,J3*%
X154075000Y-69225000D03*
D11*
X154075000Y-70495000D03*
X154075000Y-71765000D03*
%TD*%
D18*
%TO.C,A1*%
X135390000Y-63450000D03*
D17*
X135390000Y-65990000D03*
X135390000Y-68530000D03*
X135390000Y-71070000D03*
X135390000Y-73610000D03*
X135390000Y-76150000D03*
X135390000Y-78690000D03*
X135390000Y-81230000D03*
X135390000Y-83770000D03*
X135390000Y-86310000D03*
X135390000Y-88850000D03*
X135390000Y-91390000D03*
X135390000Y-93930000D03*
X135390000Y-96470000D03*
X135390000Y-99010000D03*
X150630000Y-99010000D03*
X150630000Y-96470000D03*
X150630000Y-93930000D03*
X150630000Y-91390000D03*
X150630000Y-88850000D03*
X150630000Y-86310000D03*
X150630000Y-83770000D03*
X150630000Y-81230000D03*
X150630000Y-78690000D03*
X150630000Y-76150000D03*
X150630000Y-73610000D03*
X150630000Y-71070000D03*
X150630000Y-68530000D03*
X150630000Y-65990000D03*
X150630000Y-63450000D03*
%TD*%
D19*
%TO.C,R1*%
X156000000Y-81587500D03*
X156000000Y-83412500D03*
%TD*%
M02*
