M48
; DRILL file {KiCad 8.0.3} date 2024-09-18T17:44:16+0200
; FORMAT={-:-/ absolute / inch / decimal}
; #@! TF.CreationDate,2024-09-18T17:44:16+02:00
; #@! TF.GenerationSoftware,Kicad,Pcbnew,8.0.3
; #@! TF.FileFunction,Plated,1,2,PTH
FMAT,2
INCH
; #@! TA.AperFunction,Plated,PTH,ComponentDrill
T1C0.0315
; #@! TA.AperFunction,Plated,PTH,ComponentDrill
T2C0.0354
; #@! TA.AperFunction,Plated,PTH,ComponentDrill
T3C0.0394
%
G90
G05
T1
X5.5768Y-4.252
X6.0768Y-4.252
T2
X6.0811Y-4.0157
X6.1811Y-4.0157
X6.3173Y-4.0157
X6.4173Y-4.0157
T3
X5.1181Y-2.4268
X5.1181Y-2.5268
X5.1181Y-2.6268
X5.1181Y-2.7268
X5.1181Y-2.8268
X5.1181Y-2.9268
X5.1181Y-3.0268
X5.1181Y-3.1268
X5.1181Y-3.2268
X5.1181Y-3.3268
X5.1181Y-3.4268
X5.1181Y-3.5268
X5.1181Y-3.6268
X5.1181Y-3.7268
X5.1181Y-3.8268
X5.2756Y-4.252
X5.287Y-2.4272
X5.287Y-2.5272
X5.287Y-2.6272
X5.287Y-2.7272
X5.287Y-2.8272
X5.287Y-2.9272
X5.287Y-3.0272
X5.287Y-3.1272
X5.287Y-3.2272
X5.287Y-3.3272
X5.287Y-3.4272
X5.287Y-3.5272
X5.287Y-3.6272
X5.287Y-3.7272
X5.287Y-3.8272
X5.374Y-4.252
X5.887Y-2.4272
X5.887Y-2.5272
X5.887Y-2.6272
X5.887Y-2.7272
X5.887Y-2.8272
X5.887Y-2.9272
X5.887Y-3.0272
X5.887Y-3.1272
X5.887Y-3.2272
X5.887Y-3.3272
X5.887Y-3.4272
X5.887Y-3.5272
X5.887Y-3.6272
X5.887Y-3.7272
X5.887Y-3.8272
X6.0513Y-2.4268
X6.0513Y-2.5268
X6.0513Y-2.6268
X6.0513Y-2.7268
X6.0513Y-2.8268
X6.0513Y-2.9268
X6.0513Y-3.0268
X6.0513Y-3.1268
X6.0513Y-3.2268
X6.0513Y-3.3268
X6.0513Y-3.4268
X6.0513Y-3.5268
X6.0513Y-3.6268
X6.0513Y-3.7268
X6.0513Y-3.8268
X6.2057Y-4.2018
X6.2057Y-4.3018
X6.2205Y-2.4291
X6.2205Y-2.5291
X6.2205Y-2.6291
X6.2205Y-2.7291
X6.2205Y-2.9124
X6.2205Y-3.0124
X6.2205Y-3.1124
X6.2205Y-3.287
X6.2205Y-3.387
X6.2205Y-3.487
X6.2206Y-3.6614
X6.2206Y-3.7614
M30
