%TF.GenerationSoftware,KiCad,Pcbnew,8.0.3*%
%TF.CreationDate,2024-09-18T17:44:19+02:00*%
%TF.ProjectId,pcb_robot,7063625f-726f-4626-9f74-2e6b69636164,rev?*%
%TF.SameCoordinates,Original*%
%TF.FileFunction,Copper,L2,Bot*%
%TF.FilePolarity,Positive*%
%FSLAX46Y46*%
G04 Gerber Fmt 4.6, Leading zero omitted, Abs format (unit mm)*
G04 Created by KiCad (PCBNEW 8.0.3) date 2024-09-18 17:44:19*
%MOMM*%
%LPD*%
G01*
G04 APERTURE LIST*
G04 Aperture macros list*
%AMRoundRect*
0 Rectangle with rounded corners*
0 $1 Rounding radius*
0 $2 $3 $4 $5 $6 $7 $8 $9 X,Y pos of 4 corners*
0 Add a 4 corners polygon primitive as box body*
4,1,4,$2,$3,$4,$5,$6,$7,$8,$9,$2,$3,0*
0 Add four circle primitives for the rounded corners*
1,1,$1+$1,$2,$3*
1,1,$1+$1,$4,$5*
1,1,$1+$1,$6,$7*
1,1,$1+$1,$8,$9*
0 Add four rect primitives between the rounded corners*
20,1,$1+$1,$2,$3,$4,$5,0*
20,1,$1+$1,$4,$5,$6,$7,0*
20,1,$1+$1,$6,$7,$8,$9,0*
20,1,$1+$1,$8,$9,$2,$3,0*%
G04 Aperture macros list end*
%TA.AperFunction,ComponentPad*%
%ADD10R,1.700000X1.700000*%
%TD*%
%TA.AperFunction,ComponentPad*%
%ADD11O,1.700000X1.700000*%
%TD*%
%TA.AperFunction,ComponentPad*%
%ADD12RoundRect,0.250000X-0.600000X-0.750000X0.600000X-0.750000X0.600000X0.750000X-0.600000X0.750000X0*%
%TD*%
%TA.AperFunction,ComponentPad*%
%ADD13O,1.700000X2.000000*%
%TD*%
%TA.AperFunction,ComponentPad*%
%ADD14R,1.800000X1.800000*%
%TD*%
%TA.AperFunction,ComponentPad*%
%ADD15C,1.800000*%
%TD*%
%TA.AperFunction,ComponentPad*%
%ADD16C,1.600000*%
%TD*%
%TA.AperFunction,ComponentPad*%
%ADD17O,1.600000X1.600000*%
%TD*%
%TA.AperFunction,ComponentPad*%
%ADD18R,1.600000X1.600000*%
%TD*%
G04 APERTURE END LIST*
D10*
%TO.P,J7,1,Pin_1*%
%TO.N,GND*%
X158000000Y-61700000D03*
D11*
%TO.P,J7,2,Pin_2*%
%TO.N,+5V*%
X158000000Y-64240000D03*
%TO.P,J7,3,Pin_3*%
%TO.N,D5*%
X158000000Y-66780000D03*
%TO.P,J7,4,Pin_4*%
%TO.N,D4*%
X158000000Y-69320000D03*
%TD*%
D12*
%TO.P,J5,1,Pin_1*%
%TO.N,GND*%
X134000000Y-108000000D03*
D13*
%TO.P,J5,2,Pin_2*%
%TO.N,Net-(J5-Pin_2)*%
X136500000Y-108000000D03*
%TD*%
D14*
%TO.P,D1,1,K*%
%TO.N,Net-(D1-K)*%
X160460000Y-102000000D03*
D15*
%TO.P,D1,2,A*%
%TO.N,D10*%
X163000000Y-102000000D03*
%TD*%
D10*
%TO.P,J6,1,Pin_1*%
%TO.N,D13*%
X158003632Y-93000000D03*
D11*
%TO.P,J6,2,Pin_2*%
%TO.N,GND*%
X158003632Y-95540000D03*
%TD*%
D10*
%TO.P,J2,1,Pin_1*%
%TO.N,GND*%
X158000000Y-83490000D03*
D11*
%TO.P,J2,2,Pin_2*%
%TO.N,VIN*%
X158000000Y-86030000D03*
%TO.P,J2,3,Pin_3*%
%TO.N,A0*%
X158000000Y-88570000D03*
%TD*%
D10*
%TO.P,J4,1,Pin_1*%
%TO.N,VIN*%
X157625000Y-106725000D03*
D11*
%TO.P,J4,2,Pin_2*%
%TO.N,Net-(J4-Pin_2)*%
X157625000Y-109265000D03*
%TD*%
D10*
%TO.P,J9,1,Pin_1*%
%TO.N,D13*%
X153703632Y-97200000D03*
D11*
%TO.P,J9,2,Pin_2*%
%TO.N,+3.3V*%
X153703632Y-94660000D03*
%TO.P,J9,3,Pin_3*%
%TO.N,AREF*%
X153703632Y-92120000D03*
%TO.P,J9,4,Pin_4*%
%TO.N,A0*%
X153703632Y-89580000D03*
%TO.P,J9,5,Pin_5*%
%TO.N,A1*%
X153703632Y-87040000D03*
%TO.P,J9,6,Pin_6*%
%TO.N,A2*%
X153703632Y-84500000D03*
%TO.P,J9,7,Pin_7*%
%TO.N,A3*%
X153703632Y-81960000D03*
%TO.P,J9,8,Pin_8*%
%TO.N,A4*%
X153703632Y-79420000D03*
%TO.P,J9,9,Pin_9*%
%TO.N,A5*%
X153703632Y-76880000D03*
%TO.P,J9,10,Pin_10*%
%TO.N,A6*%
X153703632Y-74340000D03*
%TO.P,J9,11,Pin_11*%
%TO.N,A7*%
X153703632Y-71800000D03*
%TO.P,J9,12,Pin_12*%
%TO.N,+5V*%
X153703632Y-69260000D03*
%TO.P,J9,13,Pin_13*%
%TO.N,RESET*%
X153703632Y-66720000D03*
%TO.P,J9,14,Pin_14*%
%TO.N,GND*%
X153703632Y-64180000D03*
%TO.P,J9,15,Pin_15*%
%TO.N,VIN*%
X153703632Y-61640000D03*
%TD*%
D10*
%TO.P,J10,1,Pin_1*%
%TO.N,D1*%
X130000000Y-61640000D03*
D11*
%TO.P,J10,2,Pin_2*%
%TO.N,D0*%
X130000000Y-64180000D03*
%TO.P,J10,3,Pin_3*%
%TO.N,RESET*%
X130000000Y-66720000D03*
%TO.P,J10,4,Pin_4*%
%TO.N,GND*%
X130000000Y-69260000D03*
%TO.P,J10,5,Pin_5*%
%TO.N,D2*%
X130000000Y-71800000D03*
%TO.P,J10,6,Pin_6*%
%TO.N,D3*%
X130000000Y-74340000D03*
%TO.P,J10,7,Pin_7*%
%TO.N,D4*%
X130000000Y-76880000D03*
%TO.P,J10,8,Pin_8*%
%TO.N,D5*%
X130000000Y-79420000D03*
%TO.P,J10,9,Pin_9*%
%TO.N,D6*%
X130000000Y-81960000D03*
%TO.P,J10,10,Pin_10*%
%TO.N,D7*%
X130000000Y-84500000D03*
%TO.P,J10,11,Pin_11*%
%TO.N,D8*%
X130000000Y-87040000D03*
%TO.P,J10,12,Pin_12*%
%TO.N,D9*%
X130000000Y-89580000D03*
%TO.P,J10,13,Pin_13*%
%TO.N,D10*%
X130000000Y-92120000D03*
%TO.P,J10,14,Pin_14*%
%TO.N,D11*%
X130000000Y-94660000D03*
%TO.P,J10,15,Pin_15*%
%TO.N,D12*%
X130000000Y-97200000D03*
%TD*%
D14*
%TO.P,D2,1,K*%
%TO.N,Net-(D1-K)*%
X157000000Y-102000000D03*
D15*
%TO.P,D2,2,A*%
%TO.N,D11*%
X154460000Y-102000000D03*
%TD*%
D16*
%TO.P,F1,1*%
%TO.N,Net-(J5-Pin_2)*%
X141650000Y-108000000D03*
D17*
%TO.P,F1,2*%
%TO.N,Net-(J4-Pin_2)*%
X154350000Y-108000000D03*
%TD*%
D10*
%TO.P,J3,1,Pin_1*%
%TO.N,GND*%
X158000000Y-73975000D03*
D11*
%TO.P,J3,2,Pin_2*%
%TO.N,VIN*%
X158000000Y-76515000D03*
%TO.P,J3,3,Pin_3*%
%TO.N,A1*%
X158000000Y-79055000D03*
%TD*%
D18*
%TO.P,A1,1,D1/TX*%
%TO.N,D1*%
X134290000Y-61650000D03*
D17*
%TO.P,A1,2,D0/RX*%
%TO.N,D0*%
X134290000Y-64190000D03*
%TO.P,A1,3,~{RESET}*%
%TO.N,RESET*%
X134290000Y-66730000D03*
%TO.P,A1,4,GND*%
%TO.N,GND*%
X134290000Y-69270000D03*
%TO.P,A1,5,D2*%
%TO.N,D2*%
X134290000Y-71810000D03*
%TO.P,A1,6,D3*%
%TO.N,D3*%
X134290000Y-74350000D03*
%TO.P,A1,7,D4*%
%TO.N,D4*%
X134290000Y-76890000D03*
%TO.P,A1,8,D5*%
%TO.N,D5*%
X134290000Y-79430000D03*
%TO.P,A1,9,D6*%
%TO.N,D6*%
X134290000Y-81970000D03*
%TO.P,A1,10,D7*%
%TO.N,D7*%
X134290000Y-84510000D03*
%TO.P,A1,11,D8*%
%TO.N,D8*%
X134290000Y-87050000D03*
%TO.P,A1,12,D9*%
%TO.N,D9*%
X134290000Y-89590000D03*
%TO.P,A1,13,D10*%
%TO.N,D10*%
X134290000Y-92130000D03*
%TO.P,A1,14,D11*%
%TO.N,D11*%
X134290000Y-94670000D03*
%TO.P,A1,15,D12*%
%TO.N,D12*%
X134290000Y-97210000D03*
%TO.P,A1,16,D13*%
%TO.N,D13*%
X149530000Y-97210000D03*
%TO.P,A1,17,3V3*%
%TO.N,+3.3V*%
X149530000Y-94670000D03*
%TO.P,A1,18,AREF*%
%TO.N,AREF*%
X149530000Y-92130000D03*
%TO.P,A1,19,A0*%
%TO.N,A0*%
X149530000Y-89590000D03*
%TO.P,A1,20,A1*%
%TO.N,A1*%
X149530000Y-87050000D03*
%TO.P,A1,21,A2*%
%TO.N,A2*%
X149530000Y-84510000D03*
%TO.P,A1,22,A3*%
%TO.N,A3*%
X149530000Y-81970000D03*
%TO.P,A1,23,A4*%
%TO.N,A4*%
X149530000Y-79430000D03*
%TO.P,A1,24,A5*%
%TO.N,A5*%
X149530000Y-76890000D03*
%TO.P,A1,25,A6*%
%TO.N,A6*%
X149530000Y-74350000D03*
%TO.P,A1,26,A7*%
%TO.N,A7*%
X149530000Y-71810000D03*
%TO.P,A1,27,+5V*%
%TO.N,+5V*%
X149530000Y-69270000D03*
%TO.P,A1,28,~{RESET}*%
%TO.N,RESET*%
X149530000Y-66730000D03*
%TO.P,A1,29,GND*%
%TO.N,GND*%
X149530000Y-64190000D03*
%TO.P,A1,30,VIN*%
%TO.N,VIN*%
X149530000Y-61650000D03*
%TD*%
%TA.AperFunction,Conductor*%
%TO.N,GND*%
G36*
X165003243Y-56500669D02*
G01*
X165318038Y-56517168D01*
X165318077Y-56517170D01*
X165330985Y-56518527D01*
X165639153Y-56567336D01*
X165651837Y-56570031D01*
X165953235Y-56650791D01*
X165965565Y-56654798D01*
X166256871Y-56766620D01*
X166268706Y-56771890D01*
X166484168Y-56881674D01*
X166546721Y-56913547D01*
X166557962Y-56920037D01*
X166819638Y-57089974D01*
X166830134Y-57097600D01*
X167072617Y-57293960D01*
X167072618Y-57293961D01*
X167082264Y-57302647D01*
X167302881Y-57523268D01*
X167311566Y-57532913D01*
X167507921Y-57775395D01*
X167515550Y-57785895D01*
X167685488Y-58047580D01*
X167691978Y-58058822D01*
X167833619Y-58336817D01*
X167838897Y-58348674D01*
X167950713Y-58639974D01*
X167954724Y-58652318D01*
X168035472Y-58953688D01*
X168038171Y-58966383D01*
X168086979Y-59274565D01*
X168088335Y-59287475D01*
X168104880Y-59603279D01*
X168105050Y-59609766D01*
X168105050Y-59681423D01*
X168105051Y-59681436D01*
X168105051Y-107996753D01*
X168104881Y-108003243D01*
X168088380Y-108318079D01*
X168087023Y-108330987D01*
X168038215Y-108639154D01*
X168035517Y-108651850D01*
X167954761Y-108953236D01*
X167950750Y-108965580D01*
X167838934Y-109256870D01*
X167833655Y-109268727D01*
X167692001Y-109546740D01*
X167685515Y-109557973D01*
X167574673Y-109728655D01*
X167515580Y-109819650D01*
X167507951Y-109830150D01*
X167311589Y-110072638D01*
X167302904Y-110082283D01*
X167082283Y-110302904D01*
X167072638Y-110311589D01*
X166830150Y-110507951D01*
X166819650Y-110515580D01*
X166783739Y-110538901D01*
X166557973Y-110685515D01*
X166546740Y-110692001D01*
X166268727Y-110833655D01*
X166256870Y-110838934D01*
X165965580Y-110950750D01*
X165953236Y-110954761D01*
X165651850Y-111035517D01*
X165639154Y-111038215D01*
X165330987Y-111087023D01*
X165318079Y-111088380D01*
X165003244Y-111104881D01*
X164996754Y-111105051D01*
X130467944Y-111105051D01*
X130467928Y-111105050D01*
X130397684Y-111105050D01*
X130391196Y-111104880D01*
X130076367Y-111088385D01*
X130063459Y-111087029D01*
X129755275Y-111038222D01*
X129742578Y-111035523D01*
X129441198Y-110954771D01*
X129428855Y-110950761D01*
X129137552Y-110838945D01*
X129125694Y-110833665D01*
X129125674Y-110833655D01*
X128847691Y-110692018D01*
X128836451Y-110685529D01*
X128574769Y-110515594D01*
X128564268Y-110507965D01*
X128321783Y-110311608D01*
X128312137Y-110302923D01*
X128201796Y-110192583D01*
X128091503Y-110082291D01*
X128082820Y-110072646D01*
X127886462Y-109830168D01*
X127878832Y-109819668D01*
X127878820Y-109819650D01*
X127708893Y-109557987D01*
X127702404Y-109546747D01*
X127560749Y-109268738D01*
X127555474Y-109256891D01*
X127443651Y-108965584D01*
X127439642Y-108953246D01*
X127439639Y-108953236D01*
X127358881Y-108651847D01*
X127356185Y-108639157D01*
X127347951Y-108587171D01*
X127307376Y-108330987D01*
X127306019Y-108318082D01*
X127289568Y-108004177D01*
X127289398Y-107997687D01*
X127289398Y-107200013D01*
X132650000Y-107200013D01*
X132650000Y-107750000D01*
X133566988Y-107750000D01*
X133534075Y-107807007D01*
X133500000Y-107934174D01*
X133500000Y-108065826D01*
X133534075Y-108192993D01*
X133566988Y-108250000D01*
X132650001Y-108250000D01*
X132650001Y-108799986D01*
X132660494Y-108902697D01*
X132715641Y-109069119D01*
X132715643Y-109069124D01*
X132807684Y-109218345D01*
X132931654Y-109342315D01*
X133080875Y-109434356D01*
X133080880Y-109434358D01*
X133247302Y-109489505D01*
X133247309Y-109489506D01*
X133350019Y-109499999D01*
X133749999Y-109499999D01*
X133750000Y-109499998D01*
X133750000Y-108433012D01*
X133807007Y-108465925D01*
X133934174Y-108500000D01*
X134065826Y-108500000D01*
X134192993Y-108465925D01*
X134250000Y-108433012D01*
X134250000Y-109499999D01*
X134649972Y-109499999D01*
X134649986Y-109499998D01*
X134752697Y-109489505D01*
X134919119Y-109434358D01*
X134919124Y-109434356D01*
X135068345Y-109342315D01*
X135192317Y-109218343D01*
X135287815Y-109063516D01*
X135339763Y-109016791D01*
X135408725Y-109005568D01*
X135472808Y-109033412D01*
X135481035Y-109040931D01*
X135620213Y-109180109D01*
X135792179Y-109305048D01*
X135792181Y-109305049D01*
X135792184Y-109305051D01*
X135981588Y-109401557D01*
X136183757Y-109467246D01*
X136393713Y-109500500D01*
X136393714Y-109500500D01*
X136606286Y-109500500D01*
X136606287Y-109500500D01*
X136816243Y-109467246D01*
X137018412Y-109401557D01*
X137207816Y-109305051D01*
X137274132Y-109256870D01*
X137379786Y-109180109D01*
X137379788Y-109180106D01*
X137379792Y-109180104D01*
X137530104Y-109029792D01*
X137530106Y-109029788D01*
X137530109Y-109029786D01*
X137655048Y-108857820D01*
X137655047Y-108857820D01*
X137655051Y-108857816D01*
X137751557Y-108668412D01*
X137817246Y-108466243D01*
X137850500Y-108256287D01*
X137850500Y-107999998D01*
X140344532Y-107999998D01*
X140344532Y-108000001D01*
X140364364Y-108226686D01*
X140364366Y-108226697D01*
X140423258Y-108446488D01*
X140423261Y-108446497D01*
X140519431Y-108652732D01*
X140519432Y-108652734D01*
X140649954Y-108839141D01*
X140810858Y-109000045D01*
X140810861Y-109000047D01*
X140997266Y-109130568D01*
X141203504Y-109226739D01*
X141423308Y-109285635D01*
X141585230Y-109299801D01*
X141649998Y-109305468D01*
X141650000Y-109305468D01*
X141650002Y-109305468D01*
X141706673Y-109300509D01*
X141876692Y-109285635D01*
X142096496Y-109226739D01*
X142302734Y-109130568D01*
X142489139Y-109000047D01*
X142650047Y-108839139D01*
X142780568Y-108652734D01*
X142876739Y-108446496D01*
X142935635Y-108226692D01*
X142952634Y-108032384D01*
X142955468Y-108000001D01*
X142955468Y-107999998D01*
X153044532Y-107999998D01*
X153044532Y-108000001D01*
X153064364Y-108226686D01*
X153064366Y-108226697D01*
X153123258Y-108446488D01*
X153123261Y-108446497D01*
X153219431Y-108652732D01*
X153219432Y-108652734D01*
X153349954Y-108839141D01*
X153510858Y-109000045D01*
X153510861Y-109000047D01*
X153697266Y-109130568D01*
X153903504Y-109226739D01*
X154123308Y-109285635D01*
X154285230Y-109299801D01*
X154349998Y-109305468D01*
X154350000Y-109305468D01*
X154350002Y-109305468D01*
X154406673Y-109300509D01*
X154576692Y-109285635D01*
X154653707Y-109264999D01*
X156269341Y-109264999D01*
X156269341Y-109265000D01*
X156289936Y-109500403D01*
X156289938Y-109500413D01*
X156351094Y-109728655D01*
X156351096Y-109728659D01*
X156351097Y-109728663D01*
X156398430Y-109830168D01*
X156450965Y-109942830D01*
X156450967Y-109942834D01*
X156545401Y-110077699D01*
X156586505Y-110136401D01*
X156753599Y-110303495D01*
X156850384Y-110371265D01*
X156947165Y-110439032D01*
X156947167Y-110439033D01*
X156947170Y-110439035D01*
X157161337Y-110538903D01*
X157389592Y-110600063D01*
X157577918Y-110616539D01*
X157624999Y-110620659D01*
X157625000Y-110620659D01*
X157625001Y-110620659D01*
X157664234Y-110617226D01*
X157860408Y-110600063D01*
X158088663Y-110538903D01*
X158302830Y-110439035D01*
X158496401Y-110303495D01*
X158663495Y-110136401D01*
X158799035Y-109942830D01*
X158898903Y-109728663D01*
X158960063Y-109500408D01*
X158980659Y-109265000D01*
X158980479Y-109262948D01*
X158968897Y-109130567D01*
X158960063Y-109029592D01*
X158898903Y-108801337D01*
X158799035Y-108587171D01*
X158785529Y-108567883D01*
X158663496Y-108393600D01*
X158663495Y-108393599D01*
X158541567Y-108271671D01*
X158508084Y-108210351D01*
X158513068Y-108140659D01*
X158554939Y-108084725D01*
X158585915Y-108067810D01*
X158717331Y-108018796D01*
X158832546Y-107932546D01*
X158918796Y-107817331D01*
X158969091Y-107682483D01*
X158975500Y-107622873D01*
X158975499Y-105827128D01*
X158969091Y-105767517D01*
X158918796Y-105632669D01*
X158918795Y-105632668D01*
X158918793Y-105632664D01*
X158832547Y-105517455D01*
X158832544Y-105517452D01*
X158717335Y-105431206D01*
X158717328Y-105431202D01*
X158582482Y-105380908D01*
X158582483Y-105380908D01*
X158522883Y-105374501D01*
X158522881Y-105374500D01*
X158522873Y-105374500D01*
X158522864Y-105374500D01*
X156727129Y-105374500D01*
X156727123Y-105374501D01*
X156667516Y-105380908D01*
X156532671Y-105431202D01*
X156532664Y-105431206D01*
X156417455Y-105517452D01*
X156417452Y-105517455D01*
X156331206Y-105632664D01*
X156331202Y-105632671D01*
X156280908Y-105767517D01*
X156274501Y-105827116D01*
X156274501Y-105827123D01*
X156274500Y-105827135D01*
X156274500Y-107622870D01*
X156274501Y-107622876D01*
X156280908Y-107682483D01*
X156331202Y-107817328D01*
X156331206Y-107817335D01*
X156417452Y-107932544D01*
X156417455Y-107932547D01*
X156532664Y-108018793D01*
X156532671Y-108018797D01*
X156664081Y-108067810D01*
X156720015Y-108109681D01*
X156744432Y-108175145D01*
X156729580Y-108243418D01*
X156708430Y-108271673D01*
X156586503Y-108393600D01*
X156450965Y-108587169D01*
X156450964Y-108587171D01*
X156351098Y-108801335D01*
X156351094Y-108801344D01*
X156289938Y-109029586D01*
X156289936Y-109029596D01*
X156269341Y-109264999D01*
X154653707Y-109264999D01*
X154796496Y-109226739D01*
X155002734Y-109130568D01*
X155189139Y-109000047D01*
X155350047Y-108839139D01*
X155480568Y-108652734D01*
X155576739Y-108446496D01*
X155635635Y-108226692D01*
X155652634Y-108032384D01*
X155655468Y-108000001D01*
X155655468Y-107999998D01*
X155639487Y-107817335D01*
X155635635Y-107773308D01*
X155576739Y-107553504D01*
X155480568Y-107347266D01*
X155350047Y-107160861D01*
X155350045Y-107160858D01*
X155189141Y-106999954D01*
X155002734Y-106869432D01*
X155002732Y-106869431D01*
X154796497Y-106773261D01*
X154796488Y-106773258D01*
X154576697Y-106714366D01*
X154576693Y-106714365D01*
X154576692Y-106714365D01*
X154576691Y-106714364D01*
X154576686Y-106714364D01*
X154350002Y-106694532D01*
X154349998Y-106694532D01*
X154123313Y-106714364D01*
X154123302Y-106714366D01*
X153903511Y-106773258D01*
X153903502Y-106773261D01*
X153697267Y-106869431D01*
X153697265Y-106869432D01*
X153510858Y-106999954D01*
X153349954Y-107160858D01*
X153219432Y-107347265D01*
X153219431Y-107347267D01*
X153123261Y-107553502D01*
X153123258Y-107553511D01*
X153064366Y-107773302D01*
X153064364Y-107773313D01*
X153044532Y-107999998D01*
X142955468Y-107999998D01*
X142939487Y-107817335D01*
X142935635Y-107773308D01*
X142876739Y-107553504D01*
X142780568Y-107347266D01*
X142650047Y-107160861D01*
X142650045Y-107160858D01*
X142489141Y-106999954D01*
X142302734Y-106869432D01*
X142302732Y-106869431D01*
X142096497Y-106773261D01*
X142096488Y-106773258D01*
X141876697Y-106714366D01*
X141876693Y-106714365D01*
X141876692Y-106714365D01*
X141876691Y-106714364D01*
X141876686Y-106714364D01*
X141650002Y-106694532D01*
X141649998Y-106694532D01*
X141423313Y-106714364D01*
X141423302Y-106714366D01*
X141203511Y-106773258D01*
X141203502Y-106773261D01*
X140997267Y-106869431D01*
X140997265Y-106869432D01*
X140810858Y-106999954D01*
X140649954Y-107160858D01*
X140519432Y-107347265D01*
X140519431Y-107347267D01*
X140423261Y-107553502D01*
X140423258Y-107553511D01*
X140364366Y-107773302D01*
X140364364Y-107773313D01*
X140344532Y-107999998D01*
X137850500Y-107999998D01*
X137850500Y-107743713D01*
X137817246Y-107533757D01*
X137751557Y-107331588D01*
X137655051Y-107142184D01*
X137655049Y-107142181D01*
X137655048Y-107142179D01*
X137530109Y-106970213D01*
X137379786Y-106819890D01*
X137207820Y-106694951D01*
X137018414Y-106598444D01*
X137018413Y-106598443D01*
X137018412Y-106598443D01*
X136816243Y-106532754D01*
X136816241Y-106532753D01*
X136816240Y-106532753D01*
X136654957Y-106507208D01*
X136606287Y-106499500D01*
X136393713Y-106499500D01*
X136345042Y-106507208D01*
X136183760Y-106532753D01*
X135981585Y-106598444D01*
X135792179Y-106694951D01*
X135620215Y-106819889D01*
X135481035Y-106959069D01*
X135419712Y-106992553D01*
X135350020Y-106987569D01*
X135294087Y-106945697D01*
X135287815Y-106936484D01*
X135192315Y-106781654D01*
X135068345Y-106657684D01*
X134919124Y-106565643D01*
X134919119Y-106565641D01*
X134752697Y-106510494D01*
X134752690Y-106510493D01*
X134649986Y-106500000D01*
X134250000Y-106500000D01*
X134250000Y-107566988D01*
X134192993Y-107534075D01*
X134065826Y-107500000D01*
X133934174Y-107500000D01*
X133807007Y-107534075D01*
X133750000Y-107566988D01*
X133750000Y-106500000D01*
X133350028Y-106500000D01*
X133350012Y-106500001D01*
X133247302Y-106510494D01*
X133080880Y-106565641D01*
X133080875Y-106565643D01*
X132931654Y-106657684D01*
X132807684Y-106781654D01*
X132715643Y-106930875D01*
X132715641Y-106930880D01*
X132660494Y-107097302D01*
X132660493Y-107097309D01*
X132650000Y-107200013D01*
X127289398Y-107200013D01*
X127289398Y-101999993D01*
X153054700Y-101999993D01*
X153054700Y-102000006D01*
X153073864Y-102231297D01*
X153073866Y-102231308D01*
X153130842Y-102456300D01*
X153224075Y-102668848D01*
X153351016Y-102863147D01*
X153351019Y-102863151D01*
X153351021Y-102863153D01*
X153508216Y-103033913D01*
X153508219Y-103033915D01*
X153508222Y-103033918D01*
X153691365Y-103176464D01*
X153691371Y-103176468D01*
X153691374Y-103176470D01*
X153895497Y-103286936D01*
X154009487Y-103326068D01*
X154115015Y-103362297D01*
X154115017Y-103362297D01*
X154115019Y-103362298D01*
X154343951Y-103400500D01*
X154343952Y-103400500D01*
X154576048Y-103400500D01*
X154576049Y-103400500D01*
X154804981Y-103362298D01*
X155024503Y-103286936D01*
X155228626Y-103176470D01*
X155411784Y-103033913D01*
X155420130Y-103024846D01*
X155480010Y-102988854D01*
X155549849Y-102990949D01*
X155607468Y-103030469D01*
X155627544Y-103065491D01*
X155656203Y-103142330D01*
X155656206Y-103142335D01*
X155742452Y-103257544D01*
X155742455Y-103257547D01*
X155857664Y-103343793D01*
X155857671Y-103343797D01*
X155992517Y-103394091D01*
X155992516Y-103394091D01*
X155999444Y-103394835D01*
X156052127Y-103400500D01*
X157947872Y-103400499D01*
X158007483Y-103394091D01*
X158142331Y-103343796D01*
X158257546Y-103257546D01*
X158343796Y-103142331D01*
X158394091Y-103007483D01*
X158400500Y-102947873D01*
X158400499Y-101052135D01*
X159059500Y-101052135D01*
X159059500Y-102947870D01*
X159059501Y-102947876D01*
X159065908Y-103007483D01*
X159116202Y-103142328D01*
X159116206Y-103142335D01*
X159202452Y-103257544D01*
X159202455Y-103257547D01*
X159317664Y-103343793D01*
X159317671Y-103343797D01*
X159452517Y-103394091D01*
X159452516Y-103394091D01*
X159459444Y-103394835D01*
X159512127Y-103400500D01*
X161407872Y-103400499D01*
X161467483Y-103394091D01*
X161602331Y-103343796D01*
X161717546Y-103257546D01*
X161803796Y-103142331D01*
X161832455Y-103065493D01*
X161874326Y-103009559D01*
X161939790Y-102985141D01*
X162008063Y-102999992D01*
X162039866Y-103024843D01*
X162045046Y-103030469D01*
X162048215Y-103033912D01*
X162048222Y-103033918D01*
X162231365Y-103176464D01*
X162231371Y-103176468D01*
X162231374Y-103176470D01*
X162435497Y-103286936D01*
X162549487Y-103326068D01*
X162655015Y-103362297D01*
X162655017Y-103362297D01*
X162655019Y-103362298D01*
X162883951Y-103400500D01*
X162883952Y-103400500D01*
X163116048Y-103400500D01*
X163116049Y-103400500D01*
X163344981Y-103362298D01*
X163564503Y-103286936D01*
X163768626Y-103176470D01*
X163951784Y-103033913D01*
X164108979Y-102863153D01*
X164235924Y-102668849D01*
X164329157Y-102456300D01*
X164386134Y-102231305D01*
X164405300Y-102000000D01*
X164405300Y-101999993D01*
X164386135Y-101768702D01*
X164386133Y-101768691D01*
X164329157Y-101543699D01*
X164235924Y-101331151D01*
X164108983Y-101136852D01*
X164108980Y-101136849D01*
X164108979Y-101136847D01*
X163951784Y-100966087D01*
X163951779Y-100966083D01*
X163951777Y-100966081D01*
X163768634Y-100823535D01*
X163768628Y-100823531D01*
X163564504Y-100713064D01*
X163564495Y-100713061D01*
X163344984Y-100637702D01*
X163154450Y-100605908D01*
X163116049Y-100599500D01*
X162883951Y-100599500D01*
X162845550Y-100605908D01*
X162655015Y-100637702D01*
X162435504Y-100713061D01*
X162435495Y-100713064D01*
X162231371Y-100823531D01*
X162231365Y-100823535D01*
X162048222Y-100966081D01*
X162048218Y-100966085D01*
X162048216Y-100966086D01*
X162048216Y-100966087D01*
X162039870Y-100975154D01*
X162039866Y-100975158D01*
X161979979Y-101011148D01*
X161910141Y-101009047D01*
X161852525Y-100969522D01*
X161832455Y-100934507D01*
X161803797Y-100857671D01*
X161803793Y-100857664D01*
X161717547Y-100742455D01*
X161717544Y-100742452D01*
X161602335Y-100656206D01*
X161602328Y-100656202D01*
X161467482Y-100605908D01*
X161467483Y-100605908D01*
X161407883Y-100599501D01*
X161407881Y-100599500D01*
X161407873Y-100599500D01*
X161407864Y-100599500D01*
X159512129Y-100599500D01*
X159512123Y-100599501D01*
X159452516Y-100605908D01*
X159317671Y-100656202D01*
X159317664Y-100656206D01*
X159202455Y-100742452D01*
X159202452Y-100742455D01*
X159116206Y-100857664D01*
X159116202Y-100857671D01*
X159065908Y-100992517D01*
X159059501Y-101052116D01*
X159059501Y-101052123D01*
X159059500Y-101052135D01*
X158400499Y-101052135D01*
X158400499Y-101052128D01*
X158394091Y-100992517D01*
X158385514Y-100969522D01*
X158343797Y-100857671D01*
X158343793Y-100857664D01*
X158257547Y-100742455D01*
X158257544Y-100742452D01*
X158142335Y-100656206D01*
X158142328Y-100656202D01*
X158007482Y-100605908D01*
X158007483Y-100605908D01*
X157947883Y-100599501D01*
X157947881Y-100599500D01*
X157947873Y-100599500D01*
X157947864Y-100599500D01*
X156052129Y-100599500D01*
X156052123Y-100599501D01*
X155992516Y-100605908D01*
X155857671Y-100656202D01*
X155857664Y-100656206D01*
X155742455Y-100742452D01*
X155742452Y-100742455D01*
X155656206Y-100857664D01*
X155656203Y-100857670D01*
X155627544Y-100934508D01*
X155585672Y-100990441D01*
X155520208Y-101014858D01*
X155451935Y-101000006D01*
X155420135Y-100975158D01*
X155411784Y-100966087D01*
X155411778Y-100966082D01*
X155411777Y-100966081D01*
X155228634Y-100823535D01*
X155228628Y-100823531D01*
X155024504Y-100713064D01*
X155024495Y-100713061D01*
X154804984Y-100637702D01*
X154614450Y-100605908D01*
X154576049Y-100599500D01*
X154343951Y-100599500D01*
X154305550Y-100605908D01*
X154115015Y-100637702D01*
X153895504Y-100713061D01*
X153895495Y-100713064D01*
X153691371Y-100823531D01*
X153691365Y-100823535D01*
X153508222Y-100966081D01*
X153508219Y-100966084D01*
X153508216Y-100966086D01*
X153508216Y-100966087D01*
X153468669Y-101009047D01*
X153351016Y-101136852D01*
X153224075Y-101331151D01*
X153130842Y-101543699D01*
X153073866Y-101768691D01*
X153073864Y-101768702D01*
X153054700Y-101999993D01*
X127289398Y-101999993D01*
X127289398Y-64179999D01*
X128644341Y-64179999D01*
X128644341Y-64180000D01*
X128664936Y-64415403D01*
X128664938Y-64415413D01*
X128726094Y-64643655D01*
X128726096Y-64643659D01*
X128726097Y-64643663D01*
X128754072Y-64703655D01*
X128825965Y-64857830D01*
X128825967Y-64857834D01*
X128961501Y-65051395D01*
X128961506Y-65051402D01*
X129128597Y-65218493D01*
X129128603Y-65218498D01*
X129314158Y-65348425D01*
X129357783Y-65403002D01*
X129364977Y-65472500D01*
X129333454Y-65534855D01*
X129314158Y-65551575D01*
X129128597Y-65681505D01*
X128961505Y-65848597D01*
X128825965Y-66042169D01*
X128825964Y-66042171D01*
X128726098Y-66256335D01*
X128726094Y-66256344D01*
X128664938Y-66484586D01*
X128664936Y-66484596D01*
X128644341Y-66719999D01*
X128644341Y-66720000D01*
X128664936Y-66955403D01*
X128664938Y-66955413D01*
X128726094Y-67183655D01*
X128726096Y-67183659D01*
X128726097Y-67183663D01*
X128754072Y-67243655D01*
X128825965Y-67397830D01*
X128825967Y-67397834D01*
X128867977Y-67457830D01*
X128961505Y-67591401D01*
X129128599Y-67758495D01*
X129313398Y-67887893D01*
X129314594Y-67888730D01*
X129358219Y-67943307D01*
X129365413Y-68012805D01*
X129333890Y-68075160D01*
X129314595Y-68091880D01*
X129128922Y-68221890D01*
X129128920Y-68221891D01*
X128961891Y-68388920D01*
X128961886Y-68388926D01*
X128826400Y-68582420D01*
X128826399Y-68582422D01*
X128726570Y-68796507D01*
X128726567Y-68796513D01*
X128669364Y-69009999D01*
X128669364Y-69010000D01*
X129566988Y-69010000D01*
X129534075Y-69067007D01*
X129500000Y-69194174D01*
X129500000Y-69325826D01*
X129534075Y-69452993D01*
X129566988Y-69510000D01*
X128669364Y-69510000D01*
X128726567Y-69723486D01*
X128726570Y-69723492D01*
X128826399Y-69937578D01*
X128961894Y-70131082D01*
X129128917Y-70298105D01*
X129314595Y-70428119D01*
X129358219Y-70482696D01*
X129365412Y-70552195D01*
X129333890Y-70614549D01*
X129314595Y-70631269D01*
X129128594Y-70761508D01*
X128961505Y-70928597D01*
X128825965Y-71122169D01*
X128825964Y-71122171D01*
X128726098Y-71336335D01*
X128726094Y-71336344D01*
X128664938Y-71564586D01*
X128664936Y-71564596D01*
X128644341Y-71799999D01*
X128644341Y-71800000D01*
X128664936Y-72035403D01*
X128664938Y-72035413D01*
X128726094Y-72263655D01*
X128726096Y-72263659D01*
X128726097Y-72263663D01*
X128818925Y-72462732D01*
X128825965Y-72477830D01*
X128825967Y-72477834D01*
X128961501Y-72671395D01*
X128961506Y-72671402D01*
X129128597Y-72838493D01*
X129128603Y-72838498D01*
X129314158Y-72968425D01*
X129357783Y-73023002D01*
X129364977Y-73092500D01*
X129333454Y-73154855D01*
X129314158Y-73171575D01*
X129128597Y-73301505D01*
X128961505Y-73468597D01*
X128825965Y-73662169D01*
X128825964Y-73662171D01*
X128726098Y-73876335D01*
X128726094Y-73876344D01*
X128664938Y-74104586D01*
X128664936Y-74104596D01*
X128644341Y-74339999D01*
X128644341Y-74340000D01*
X128664936Y-74575403D01*
X128664938Y-74575413D01*
X128726094Y-74803655D01*
X128726096Y-74803659D01*
X128726097Y-74803663D01*
X128818925Y-75002732D01*
X128825965Y-75017830D01*
X128825967Y-75017834D01*
X128961501Y-75211395D01*
X128961506Y-75211402D01*
X129128597Y-75378493D01*
X129128603Y-75378498D01*
X129314158Y-75508425D01*
X129357783Y-75563002D01*
X129364977Y-75632500D01*
X129333454Y-75694855D01*
X129314158Y-75711575D01*
X129128597Y-75841505D01*
X128961505Y-76008597D01*
X128825965Y-76202169D01*
X128825964Y-76202171D01*
X128726098Y-76416335D01*
X128726094Y-76416344D01*
X128664938Y-76644586D01*
X128664936Y-76644596D01*
X128644341Y-76879999D01*
X128644341Y-76880000D01*
X128664936Y-77115403D01*
X128664938Y-77115413D01*
X128726094Y-77343655D01*
X128726096Y-77343659D01*
X128726097Y-77343663D01*
X128746027Y-77386402D01*
X128825965Y-77557830D01*
X128825967Y-77557834D01*
X128961501Y-77751395D01*
X128961506Y-77751402D01*
X129128597Y-77918493D01*
X129128603Y-77918498D01*
X129314158Y-78048425D01*
X129357783Y-78103002D01*
X129364977Y-78172500D01*
X129333454Y-78234855D01*
X129314158Y-78251575D01*
X129128597Y-78381505D01*
X128961505Y-78548597D01*
X128825965Y-78742169D01*
X128825964Y-78742171D01*
X128726098Y-78956335D01*
X128726094Y-78956344D01*
X128664938Y-79184586D01*
X128664936Y-79184596D01*
X128644341Y-79419999D01*
X128644341Y-79420000D01*
X128664936Y-79655403D01*
X128664938Y-79655413D01*
X128726094Y-79883655D01*
X128726096Y-79883659D01*
X128726097Y-79883663D01*
X128746027Y-79926402D01*
X128825965Y-80097830D01*
X128825967Y-80097834D01*
X128961501Y-80291395D01*
X128961506Y-80291402D01*
X129128597Y-80458493D01*
X129128603Y-80458498D01*
X129314158Y-80588425D01*
X129357783Y-80643002D01*
X129364977Y-80712500D01*
X129333454Y-80774855D01*
X129314158Y-80791575D01*
X129128597Y-80921505D01*
X128961505Y-81088597D01*
X128825965Y-81282169D01*
X128825964Y-81282171D01*
X128726098Y-81496335D01*
X128726094Y-81496344D01*
X128664938Y-81724586D01*
X128664936Y-81724596D01*
X128644341Y-81959999D01*
X128644341Y-81960000D01*
X128664936Y-82195403D01*
X128664938Y-82195413D01*
X128726094Y-82423655D01*
X128726096Y-82423659D01*
X128726097Y-82423663D01*
X128776905Y-82532620D01*
X128825965Y-82637830D01*
X128825967Y-82637834D01*
X128961501Y-82831395D01*
X128961506Y-82831402D01*
X129128597Y-82998493D01*
X129128603Y-82998498D01*
X129314158Y-83128425D01*
X129357783Y-83183002D01*
X129364977Y-83252500D01*
X129333454Y-83314855D01*
X129314158Y-83331575D01*
X129128597Y-83461505D01*
X128961505Y-83628597D01*
X128825965Y-83822169D01*
X128825964Y-83822171D01*
X128726098Y-84036335D01*
X128726094Y-84036344D01*
X128664938Y-84264586D01*
X128664936Y-84264596D01*
X128644341Y-84499999D01*
X128644341Y-84500000D01*
X128664936Y-84735403D01*
X128664938Y-84735413D01*
X128726094Y-84963655D01*
X128726096Y-84963659D01*
X128726097Y-84963663D01*
X128759961Y-85036284D01*
X128825965Y-85177830D01*
X128825967Y-85177834D01*
X128961501Y-85371395D01*
X128961506Y-85371402D01*
X129128597Y-85538493D01*
X129128603Y-85538498D01*
X129314158Y-85668425D01*
X129357783Y-85723002D01*
X129364977Y-85792500D01*
X129333454Y-85854855D01*
X129314158Y-85871575D01*
X129128597Y-86001505D01*
X128961505Y-86168597D01*
X128825965Y-86362169D01*
X128825964Y-86362171D01*
X128726098Y-86576335D01*
X128726094Y-86576344D01*
X128664938Y-86804586D01*
X128664936Y-86804596D01*
X128644341Y-87039999D01*
X128644341Y-87040000D01*
X128664936Y-87275403D01*
X128664938Y-87275413D01*
X128726094Y-87503655D01*
X128726096Y-87503659D01*
X128726097Y-87503663D01*
X128816997Y-87698599D01*
X128825965Y-87717830D01*
X128825967Y-87717834D01*
X128961501Y-87911395D01*
X128961506Y-87911402D01*
X129128597Y-88078493D01*
X129128603Y-88078498D01*
X129314158Y-88208425D01*
X129357783Y-88263002D01*
X129364977Y-88332500D01*
X129333454Y-88394855D01*
X129314158Y-88411575D01*
X129128597Y-88541505D01*
X128961505Y-88708597D01*
X128825965Y-88902169D01*
X128825964Y-88902171D01*
X128726098Y-89116335D01*
X128726094Y-89116344D01*
X128664938Y-89344586D01*
X128664936Y-89344596D01*
X128644341Y-89579999D01*
X128644341Y-89580000D01*
X128664936Y-89815403D01*
X128664938Y-89815413D01*
X128726094Y-90043655D01*
X128726096Y-90043659D01*
X128726097Y-90043663D01*
X128818925Y-90242732D01*
X128825965Y-90257830D01*
X128825967Y-90257834D01*
X128961501Y-90451395D01*
X128961506Y-90451402D01*
X129128597Y-90618493D01*
X129128603Y-90618498D01*
X129314158Y-90748425D01*
X129357783Y-90803002D01*
X129364977Y-90872500D01*
X129333454Y-90934855D01*
X129314158Y-90951575D01*
X129128597Y-91081505D01*
X128961505Y-91248597D01*
X128825965Y-91442169D01*
X128825964Y-91442171D01*
X128726098Y-91656335D01*
X128726094Y-91656344D01*
X128664938Y-91884586D01*
X128664936Y-91884596D01*
X128644341Y-92119999D01*
X128644341Y-92120000D01*
X128664936Y-92355403D01*
X128664938Y-92355413D01*
X128726094Y-92583655D01*
X128726096Y-92583659D01*
X128726097Y-92583663D01*
X128818925Y-92782732D01*
X128825965Y-92797830D01*
X128825967Y-92797834D01*
X128961501Y-92991395D01*
X128961506Y-92991402D01*
X129128597Y-93158493D01*
X129128603Y-93158498D01*
X129314158Y-93288425D01*
X129357783Y-93343002D01*
X129364977Y-93412500D01*
X129333454Y-93474855D01*
X129314158Y-93491575D01*
X129128597Y-93621505D01*
X128961505Y-93788597D01*
X128825965Y-93982169D01*
X128825964Y-93982171D01*
X128726098Y-94196335D01*
X128726094Y-94196344D01*
X128664938Y-94424586D01*
X128664936Y-94424596D01*
X128644341Y-94659999D01*
X128644341Y-94660000D01*
X128664936Y-94895403D01*
X128664938Y-94895413D01*
X128726094Y-95123655D01*
X128726096Y-95123659D01*
X128726097Y-95123663D01*
X128818925Y-95322732D01*
X128825965Y-95337830D01*
X128825967Y-95337834D01*
X128921434Y-95474174D01*
X128961501Y-95531396D01*
X128961506Y-95531402D01*
X129128597Y-95698493D01*
X129128603Y-95698498D01*
X129314158Y-95828425D01*
X129357783Y-95883002D01*
X129364977Y-95952500D01*
X129333454Y-96014855D01*
X129314158Y-96031575D01*
X129128597Y-96161505D01*
X128961505Y-96328597D01*
X128825965Y-96522169D01*
X128825964Y-96522171D01*
X128726098Y-96736335D01*
X128726094Y-96736344D01*
X128664938Y-96964586D01*
X128664936Y-96964596D01*
X128644341Y-97199999D01*
X128644341Y-97200000D01*
X128664936Y-97435403D01*
X128664938Y-97435413D01*
X128726094Y-97663655D01*
X128726096Y-97663659D01*
X128726097Y-97663663D01*
X128818925Y-97862732D01*
X128825965Y-97877830D01*
X128825967Y-97877834D01*
X128934281Y-98032521D01*
X128961505Y-98071401D01*
X129128599Y-98238495D01*
X129225384Y-98306265D01*
X129322165Y-98374032D01*
X129322167Y-98374033D01*
X129322170Y-98374035D01*
X129536337Y-98473903D01*
X129764592Y-98535063D01*
X129941034Y-98550500D01*
X129999999Y-98555659D01*
X130000000Y-98555659D01*
X130000001Y-98555659D01*
X130058966Y-98550500D01*
X130235408Y-98535063D01*
X130463663Y-98473903D01*
X130677830Y-98374035D01*
X130871401Y-98238495D01*
X131038495Y-98071401D01*
X131174035Y-97877830D01*
X131273903Y-97663663D01*
X131335063Y-97435408D01*
X131355659Y-97200000D01*
X131335063Y-96964592D01*
X131273903Y-96736337D01*
X131174035Y-96522171D01*
X131038495Y-96328599D01*
X131038494Y-96328597D01*
X130871402Y-96161506D01*
X130871396Y-96161501D01*
X130685842Y-96031575D01*
X130642217Y-95976998D01*
X130635023Y-95907500D01*
X130666546Y-95845145D01*
X130685842Y-95828425D01*
X130798054Y-95749853D01*
X130871401Y-95698495D01*
X131038495Y-95531401D01*
X131174035Y-95337830D01*
X131273903Y-95123663D01*
X131335063Y-94895408D01*
X131355659Y-94660000D01*
X131335063Y-94424592D01*
X131276907Y-94207547D01*
X131273905Y-94196344D01*
X131273904Y-94196343D01*
X131273903Y-94196337D01*
X131174035Y-93982171D01*
X131156749Y-93957483D01*
X131038494Y-93788597D01*
X130871402Y-93621506D01*
X130871396Y-93621501D01*
X130685842Y-93491575D01*
X130642217Y-93436998D01*
X130635023Y-93367500D01*
X130666546Y-93305145D01*
X130685842Y-93288425D01*
X130725627Y-93260567D01*
X130871401Y-93158495D01*
X131038495Y-92991401D01*
X131174035Y-92797830D01*
X131273903Y-92583663D01*
X131335063Y-92355408D01*
X131355659Y-92120000D01*
X131354095Y-92102129D01*
X131337082Y-91907669D01*
X131335063Y-91884592D01*
X131273903Y-91656337D01*
X131174035Y-91442171D01*
X131038495Y-91248599D01*
X131038494Y-91248597D01*
X130871402Y-91081506D01*
X130871396Y-91081501D01*
X130685842Y-90951575D01*
X130642217Y-90896998D01*
X130635023Y-90827500D01*
X130666546Y-90765145D01*
X130685842Y-90748425D01*
X130725627Y-90720567D01*
X130871401Y-90618495D01*
X131038495Y-90451401D01*
X131174035Y-90257830D01*
X131273903Y-90043663D01*
X131335063Y-89815408D01*
X131355659Y-89580000D01*
X131335063Y-89344592D01*
X131273903Y-89116337D01*
X131174035Y-88902171D01*
X131106282Y-88805408D01*
X131038494Y-88708597D01*
X130871402Y-88541506D01*
X130871396Y-88541501D01*
X130685842Y-88411575D01*
X130642217Y-88356998D01*
X130635023Y-88287500D01*
X130666546Y-88225145D01*
X130685842Y-88208425D01*
X130725627Y-88180567D01*
X130871401Y-88078495D01*
X131038495Y-87911401D01*
X131174035Y-87717830D01*
X131273903Y-87503663D01*
X131335063Y-87275408D01*
X131355659Y-87040000D01*
X131335063Y-86804592D01*
X131273903Y-86576337D01*
X131174035Y-86362171D01*
X131106282Y-86265408D01*
X131038494Y-86168597D01*
X130871402Y-86001506D01*
X130871396Y-86001501D01*
X130685842Y-85871575D01*
X130642217Y-85816998D01*
X130635023Y-85747500D01*
X130666546Y-85685145D01*
X130685842Y-85668425D01*
X130725627Y-85640567D01*
X130871401Y-85538495D01*
X131038495Y-85371401D01*
X131174035Y-85177830D01*
X131273903Y-84963663D01*
X131335063Y-84735408D01*
X131355659Y-84500000D01*
X131335063Y-84264592D01*
X131273903Y-84036337D01*
X131174035Y-83822171D01*
X131116499Y-83740000D01*
X131038494Y-83628597D01*
X130871402Y-83461506D01*
X130871396Y-83461501D01*
X130685842Y-83331575D01*
X130642217Y-83276998D01*
X130635023Y-83207500D01*
X130666546Y-83145145D01*
X130685842Y-83128425D01*
X130740860Y-83089901D01*
X130871401Y-82998495D01*
X131038495Y-82831401D01*
X131174035Y-82637830D01*
X131273903Y-82423663D01*
X131335063Y-82195408D01*
X131355659Y-81960000D01*
X131335063Y-81724592D01*
X131273903Y-81496337D01*
X131174035Y-81282171D01*
X131038495Y-81088599D01*
X131038494Y-81088597D01*
X130871402Y-80921506D01*
X130871396Y-80921501D01*
X130685842Y-80791575D01*
X130642217Y-80736998D01*
X130635023Y-80667500D01*
X130666546Y-80605145D01*
X130685842Y-80588425D01*
X130725627Y-80560567D01*
X130871401Y-80458495D01*
X131038495Y-80291401D01*
X131174035Y-80097830D01*
X131273903Y-79883663D01*
X131335063Y-79655408D01*
X131355659Y-79420000D01*
X131335063Y-79184592D01*
X131273903Y-78956337D01*
X131174035Y-78742171D01*
X131068426Y-78591344D01*
X131038494Y-78548597D01*
X130871402Y-78381506D01*
X130871396Y-78381501D01*
X130685842Y-78251575D01*
X130642217Y-78196998D01*
X130635023Y-78127500D01*
X130666546Y-78065145D01*
X130685842Y-78048425D01*
X130731434Y-78016501D01*
X130871401Y-77918495D01*
X131038495Y-77751401D01*
X131174035Y-77557830D01*
X131273903Y-77343663D01*
X131335063Y-77115408D01*
X131355659Y-76880000D01*
X131335063Y-76644592D01*
X131273903Y-76416337D01*
X131174035Y-76202171D01*
X131068426Y-76051344D01*
X131038494Y-76008597D01*
X130871402Y-75841506D01*
X130871396Y-75841501D01*
X130685842Y-75711575D01*
X130642217Y-75656998D01*
X130635023Y-75587500D01*
X130666546Y-75525145D01*
X130685842Y-75508425D01*
X130755053Y-75459963D01*
X130871401Y-75378495D01*
X131038495Y-75211401D01*
X131174035Y-75017830D01*
X131273903Y-74803663D01*
X131335063Y-74575408D01*
X131355659Y-74340000D01*
X131335063Y-74104592D01*
X131273903Y-73876337D01*
X131174035Y-73662171D01*
X131112929Y-73574901D01*
X131038494Y-73468597D01*
X130871402Y-73301506D01*
X130871396Y-73301501D01*
X130685842Y-73171575D01*
X130642217Y-73116998D01*
X130635023Y-73047500D01*
X130666546Y-72985145D01*
X130685842Y-72968425D01*
X130725627Y-72940567D01*
X130871401Y-72838495D01*
X131038495Y-72671401D01*
X131174035Y-72477830D01*
X131273903Y-72263663D01*
X131335063Y-72035408D01*
X131355659Y-71800000D01*
X131335063Y-71564592D01*
X131273903Y-71336337D01*
X131174035Y-71122171D01*
X131038495Y-70928599D01*
X131038494Y-70928597D01*
X130871402Y-70761506D01*
X130871401Y-70761505D01*
X130685405Y-70631269D01*
X130641781Y-70576692D01*
X130634588Y-70507193D01*
X130666110Y-70444839D01*
X130685405Y-70428119D01*
X130871082Y-70298105D01*
X131038105Y-70131082D01*
X131173600Y-69937578D01*
X131273429Y-69723492D01*
X131273432Y-69723486D01*
X131330636Y-69510000D01*
X130433012Y-69510000D01*
X130465925Y-69452993D01*
X130500000Y-69325826D01*
X130500000Y-69194174D01*
X130465925Y-69067007D01*
X130433012Y-69010000D01*
X131330636Y-69010000D01*
X131330635Y-69009999D01*
X131273432Y-68796513D01*
X131273429Y-68796507D01*
X131173600Y-68582422D01*
X131173599Y-68582420D01*
X131038113Y-68388926D01*
X131038108Y-68388920D01*
X130871078Y-68221890D01*
X130685405Y-68091879D01*
X130641780Y-68037302D01*
X130634588Y-67967804D01*
X130666110Y-67905449D01*
X130685406Y-67888730D01*
X130685842Y-67888425D01*
X130871401Y-67758495D01*
X131038495Y-67591401D01*
X131174035Y-67397830D01*
X131273903Y-67183663D01*
X131335063Y-66955408D01*
X131355659Y-66720000D01*
X131335063Y-66484592D01*
X131273903Y-66256337D01*
X131174035Y-66042171D01*
X131080508Y-65908599D01*
X131038494Y-65848597D01*
X130871402Y-65681506D01*
X130871396Y-65681501D01*
X130685842Y-65551575D01*
X130642217Y-65496998D01*
X130635023Y-65427500D01*
X130666546Y-65365145D01*
X130685842Y-65348425D01*
X130785715Y-65278493D01*
X130871401Y-65218495D01*
X131038495Y-65051401D01*
X131174035Y-64857830D01*
X131273903Y-64643663D01*
X131335063Y-64415408D01*
X131354784Y-64189998D01*
X132984532Y-64189998D01*
X132984532Y-64190001D01*
X133004364Y-64416686D01*
X133004366Y-64416697D01*
X133063258Y-64636488D01*
X133063261Y-64636497D01*
X133159431Y-64842732D01*
X133159432Y-64842734D01*
X133289954Y-65029141D01*
X133450858Y-65190045D01*
X133450861Y-65190047D01*
X133637266Y-65320568D01*
X133694681Y-65347341D01*
X133695275Y-65347618D01*
X133747714Y-65393791D01*
X133766866Y-65460984D01*
X133746650Y-65527865D01*
X133695275Y-65572382D01*
X133637267Y-65599431D01*
X133637265Y-65599432D01*
X133450858Y-65729954D01*
X133289954Y-65890858D01*
X133159432Y-66077265D01*
X133159431Y-66077267D01*
X133063261Y-66283502D01*
X133063258Y-66283511D01*
X133004366Y-66503302D01*
X133004364Y-66503313D01*
X132984532Y-66729998D01*
X132984532Y-66730001D01*
X133004364Y-66956686D01*
X133004366Y-66956697D01*
X133063258Y-67176488D01*
X133063261Y-67176497D01*
X133159431Y-67382732D01*
X133159432Y-67382734D01*
X133289954Y-67569141D01*
X133450858Y-67730045D01*
X133450861Y-67730047D01*
X133637266Y-67860568D01*
X133695865Y-67887893D01*
X133748305Y-67934065D01*
X133767457Y-68001258D01*
X133747242Y-68068139D01*
X133695867Y-68112657D01*
X133637515Y-68139867D01*
X133451179Y-68270342D01*
X133290342Y-68431179D01*
X133159865Y-68617517D01*
X133063734Y-68823673D01*
X133063730Y-68823682D01*
X133011127Y-69019999D01*
X133011128Y-69020000D01*
X133856988Y-69020000D01*
X133824075Y-69077007D01*
X133790000Y-69204174D01*
X133790000Y-69335826D01*
X133824075Y-69462993D01*
X133856988Y-69520000D01*
X133011128Y-69520000D01*
X133063730Y-69716317D01*
X133063734Y-69716326D01*
X133159865Y-69922482D01*
X133290342Y-70108820D01*
X133451179Y-70269657D01*
X133637518Y-70400134D01*
X133637520Y-70400135D01*
X133695865Y-70427342D01*
X133748305Y-70473514D01*
X133767457Y-70540707D01*
X133747242Y-70607589D01*
X133695867Y-70652105D01*
X133637268Y-70679431D01*
X133637264Y-70679433D01*
X133450858Y-70809954D01*
X133289954Y-70970858D01*
X133159432Y-71157265D01*
X133159431Y-71157267D01*
X133063261Y-71363502D01*
X133063258Y-71363511D01*
X133004366Y-71583302D01*
X133004364Y-71583313D01*
X132984532Y-71809998D01*
X132984532Y-71810001D01*
X133004364Y-72036686D01*
X133004366Y-72036697D01*
X133063258Y-72256488D01*
X133063261Y-72256497D01*
X133159431Y-72462732D01*
X133159432Y-72462734D01*
X133289954Y-72649141D01*
X133450858Y-72810045D01*
X133450861Y-72810047D01*
X133637266Y-72940568D01*
X133695275Y-72967618D01*
X133747714Y-73013791D01*
X133766866Y-73080984D01*
X133746650Y-73147865D01*
X133695275Y-73192382D01*
X133637267Y-73219431D01*
X133637265Y-73219432D01*
X133450858Y-73349954D01*
X133289954Y-73510858D01*
X133159432Y-73697265D01*
X133159431Y-73697267D01*
X133063261Y-73903502D01*
X133063258Y-73903511D01*
X133004366Y-74123302D01*
X133004364Y-74123313D01*
X132984532Y-74349998D01*
X132984532Y-74350001D01*
X133004364Y-74576686D01*
X133004366Y-74576697D01*
X133063258Y-74796488D01*
X133063261Y-74796497D01*
X133159431Y-75002732D01*
X133159432Y-75002734D01*
X133289954Y-75189141D01*
X133450858Y-75350045D01*
X133450861Y-75350047D01*
X133637266Y-75480568D01*
X133663989Y-75493029D01*
X133695275Y-75507618D01*
X133747714Y-75553791D01*
X133766866Y-75620984D01*
X133746650Y-75687865D01*
X133695275Y-75732382D01*
X133637267Y-75759431D01*
X133637265Y-75759432D01*
X133450858Y-75889954D01*
X133289954Y-76050858D01*
X133159432Y-76237265D01*
X133159431Y-76237267D01*
X133063261Y-76443502D01*
X133063258Y-76443511D01*
X133004366Y-76663302D01*
X133004364Y-76663313D01*
X132984532Y-76889998D01*
X132984532Y-76890001D01*
X133004364Y-77116686D01*
X133004366Y-77116697D01*
X133063258Y-77336488D01*
X133063261Y-77336497D01*
X133159431Y-77542732D01*
X133159432Y-77542734D01*
X133289954Y-77729141D01*
X133450858Y-77890045D01*
X133450861Y-77890047D01*
X133637266Y-78020568D01*
X133695275Y-78047618D01*
X133747714Y-78093791D01*
X133766866Y-78160984D01*
X133746650Y-78227865D01*
X133695275Y-78272382D01*
X133637267Y-78299431D01*
X133637265Y-78299432D01*
X133450858Y-78429954D01*
X133289954Y-78590858D01*
X133159432Y-78777265D01*
X133159431Y-78777267D01*
X133063261Y-78983502D01*
X133063258Y-78983511D01*
X133004366Y-79203302D01*
X133004364Y-79203313D01*
X132984532Y-79429998D01*
X132984532Y-79430001D01*
X133004364Y-79656686D01*
X133004366Y-79656697D01*
X133063258Y-79876488D01*
X133063261Y-79876497D01*
X133159431Y-80082732D01*
X133159432Y-80082734D01*
X133289954Y-80269141D01*
X133450858Y-80430045D01*
X133450861Y-80430047D01*
X133637266Y-80560568D01*
X133695275Y-80587618D01*
X133747714Y-80633791D01*
X133766866Y-80700984D01*
X133746650Y-80767865D01*
X133695275Y-80812382D01*
X133637267Y-80839431D01*
X133637265Y-80839432D01*
X133450858Y-80969954D01*
X133289954Y-81130858D01*
X133159432Y-81317265D01*
X133159431Y-81317267D01*
X133063261Y-81523502D01*
X133063258Y-81523511D01*
X133004366Y-81743302D01*
X133004364Y-81743313D01*
X132984532Y-81969998D01*
X132984532Y-81970001D01*
X133004364Y-82196686D01*
X133004366Y-82196697D01*
X133063258Y-82416488D01*
X133063261Y-82416497D01*
X133159431Y-82622732D01*
X133159432Y-82622734D01*
X133289954Y-82809141D01*
X133450858Y-82970045D01*
X133450861Y-82970047D01*
X133637266Y-83100568D01*
X133695275Y-83127618D01*
X133747714Y-83173791D01*
X133766866Y-83240984D01*
X133746650Y-83307865D01*
X133695275Y-83352382D01*
X133637267Y-83379431D01*
X133637265Y-83379432D01*
X133450858Y-83509954D01*
X133289954Y-83670858D01*
X133159432Y-83857265D01*
X133159431Y-83857267D01*
X133063261Y-84063502D01*
X133063258Y-84063511D01*
X133004366Y-84283302D01*
X133004364Y-84283313D01*
X132984532Y-84509998D01*
X132984532Y-84510001D01*
X133004364Y-84736686D01*
X133004366Y-84736697D01*
X133063258Y-84956488D01*
X133063261Y-84956497D01*
X133159431Y-85162732D01*
X133159432Y-85162734D01*
X133289954Y-85349141D01*
X133450858Y-85510045D01*
X133450861Y-85510047D01*
X133637266Y-85640568D01*
X133695275Y-85667618D01*
X133747714Y-85713791D01*
X133766866Y-85780984D01*
X133746650Y-85847865D01*
X133695275Y-85892382D01*
X133637267Y-85919431D01*
X133637265Y-85919432D01*
X133450858Y-86049954D01*
X133289954Y-86210858D01*
X133159432Y-86397265D01*
X133159431Y-86397267D01*
X133063261Y-86603502D01*
X133063258Y-86603511D01*
X133004366Y-86823302D01*
X133004364Y-86823313D01*
X132984532Y-87049998D01*
X132984532Y-87050001D01*
X133004364Y-87276686D01*
X133004366Y-87276697D01*
X133063258Y-87496488D01*
X133063261Y-87496497D01*
X133159431Y-87702732D01*
X133159432Y-87702734D01*
X133289954Y-87889141D01*
X133450858Y-88050045D01*
X133450861Y-88050047D01*
X133637266Y-88180568D01*
X133695275Y-88207618D01*
X133747714Y-88253791D01*
X133766866Y-88320984D01*
X133746650Y-88387865D01*
X133695275Y-88432382D01*
X133637267Y-88459431D01*
X133637265Y-88459432D01*
X133450858Y-88589954D01*
X133289954Y-88750858D01*
X133159432Y-88937265D01*
X133159431Y-88937267D01*
X133063261Y-89143502D01*
X133063258Y-89143511D01*
X133004366Y-89363302D01*
X133004364Y-89363313D01*
X132984532Y-89589998D01*
X132984532Y-89590001D01*
X133004364Y-89816686D01*
X133004366Y-89816697D01*
X133063258Y-90036488D01*
X133063261Y-90036497D01*
X133159431Y-90242732D01*
X133159432Y-90242734D01*
X133289954Y-90429141D01*
X133450858Y-90590045D01*
X133450861Y-90590047D01*
X133637266Y-90720568D01*
X133695275Y-90747618D01*
X133747714Y-90793791D01*
X133766866Y-90860984D01*
X133746650Y-90927865D01*
X133695275Y-90972382D01*
X133637267Y-90999431D01*
X133637265Y-90999432D01*
X133450858Y-91129954D01*
X133289954Y-91290858D01*
X133159432Y-91477265D01*
X133159431Y-91477267D01*
X133063261Y-91683502D01*
X133063258Y-91683511D01*
X133004366Y-91903302D01*
X133004364Y-91903313D01*
X132984532Y-92129998D01*
X132984532Y-92130001D01*
X133004364Y-92356686D01*
X133004366Y-92356697D01*
X133063258Y-92576488D01*
X133063261Y-92576497D01*
X133159431Y-92782732D01*
X133159432Y-92782734D01*
X133289954Y-92969141D01*
X133450858Y-93130045D01*
X133450861Y-93130047D01*
X133637266Y-93260568D01*
X133695275Y-93287618D01*
X133747714Y-93333791D01*
X133766866Y-93400984D01*
X133746650Y-93467865D01*
X133695275Y-93512382D01*
X133637267Y-93539431D01*
X133637265Y-93539432D01*
X133450858Y-93669954D01*
X133289954Y-93830858D01*
X133159432Y-94017265D01*
X133159431Y-94017267D01*
X133063261Y-94223502D01*
X133063258Y-94223511D01*
X133004366Y-94443302D01*
X133004364Y-94443313D01*
X132984532Y-94669998D01*
X132984532Y-94670001D01*
X133004364Y-94896686D01*
X133004366Y-94896697D01*
X133063258Y-95116488D01*
X133063261Y-95116497D01*
X133159431Y-95322732D01*
X133159432Y-95322734D01*
X133289954Y-95509141D01*
X133450858Y-95670045D01*
X133450861Y-95670047D01*
X133637266Y-95800568D01*
X133695275Y-95827618D01*
X133747714Y-95873791D01*
X133766866Y-95940984D01*
X133746650Y-96007865D01*
X133695275Y-96052382D01*
X133637267Y-96079431D01*
X133637265Y-96079432D01*
X133450858Y-96209954D01*
X133289954Y-96370858D01*
X133159432Y-96557265D01*
X133159431Y-96557267D01*
X133063261Y-96763502D01*
X133063258Y-96763511D01*
X133004366Y-96983302D01*
X133004364Y-96983313D01*
X132984532Y-97209998D01*
X132984532Y-97210001D01*
X133004364Y-97436686D01*
X133004366Y-97436697D01*
X133063258Y-97656488D01*
X133063261Y-97656497D01*
X133159431Y-97862732D01*
X133159432Y-97862734D01*
X133289954Y-98049141D01*
X133450858Y-98210045D01*
X133450861Y-98210047D01*
X133637266Y-98340568D01*
X133843504Y-98436739D01*
X134063308Y-98495635D01*
X134225230Y-98509801D01*
X134289998Y-98515468D01*
X134290000Y-98515468D01*
X134290002Y-98515468D01*
X134346673Y-98510509D01*
X134516692Y-98495635D01*
X134736496Y-98436739D01*
X134942734Y-98340568D01*
X135129139Y-98210047D01*
X135290047Y-98049139D01*
X135420568Y-97862734D01*
X135516739Y-97656496D01*
X135575635Y-97436692D01*
X135595468Y-97210000D01*
X135575635Y-96983308D01*
X135516739Y-96763504D01*
X135420568Y-96557266D01*
X135290047Y-96370861D01*
X135290045Y-96370858D01*
X135129141Y-96209954D01*
X134942734Y-96079432D01*
X134942728Y-96079429D01*
X134884725Y-96052382D01*
X134832285Y-96006210D01*
X134813133Y-95939017D01*
X134833348Y-95872135D01*
X134884725Y-95827618D01*
X134942734Y-95800568D01*
X135129139Y-95670047D01*
X135290047Y-95509139D01*
X135420568Y-95322734D01*
X135516739Y-95116496D01*
X135575635Y-94896692D01*
X135595468Y-94670000D01*
X135575635Y-94443308D01*
X135516739Y-94223504D01*
X135420568Y-94017266D01*
X135290047Y-93830861D01*
X135290045Y-93830858D01*
X135129141Y-93669954D01*
X134942734Y-93539432D01*
X134942728Y-93539429D01*
X134884725Y-93512382D01*
X134832285Y-93466210D01*
X134813133Y-93399017D01*
X134833348Y-93332135D01*
X134884725Y-93287618D01*
X134942734Y-93260568D01*
X135129139Y-93130047D01*
X135290047Y-92969139D01*
X135420568Y-92782734D01*
X135516739Y-92576496D01*
X135575635Y-92356692D01*
X135595468Y-92130000D01*
X135593029Y-92102127D01*
X135587814Y-92042516D01*
X135575635Y-91903308D01*
X135516739Y-91683504D01*
X135420568Y-91477266D01*
X135290047Y-91290861D01*
X135290045Y-91290858D01*
X135129141Y-91129954D01*
X134942734Y-90999432D01*
X134942728Y-90999429D01*
X134884725Y-90972382D01*
X134832285Y-90926210D01*
X134813133Y-90859017D01*
X134833348Y-90792135D01*
X134884725Y-90747618D01*
X134942734Y-90720568D01*
X135129139Y-90590047D01*
X135290047Y-90429139D01*
X135420568Y-90242734D01*
X135516739Y-90036496D01*
X135575635Y-89816692D01*
X135595468Y-89590000D01*
X135575635Y-89363308D01*
X135516739Y-89143504D01*
X135420568Y-88937266D01*
X135290047Y-88750861D01*
X135290045Y-88750858D01*
X135129141Y-88589954D01*
X134942734Y-88459432D01*
X134942728Y-88459429D01*
X134884725Y-88432382D01*
X134832285Y-88386210D01*
X134813133Y-88319017D01*
X134833348Y-88252135D01*
X134884725Y-88207618D01*
X134942734Y-88180568D01*
X135129139Y-88050047D01*
X135290047Y-87889139D01*
X135420568Y-87702734D01*
X135516739Y-87496496D01*
X135575635Y-87276692D01*
X135595468Y-87050000D01*
X135575635Y-86823308D01*
X135516739Y-86603504D01*
X135420568Y-86397266D01*
X135290047Y-86210861D01*
X135290045Y-86210858D01*
X135129141Y-86049954D01*
X134942734Y-85919432D01*
X134942728Y-85919429D01*
X134884725Y-85892382D01*
X134832285Y-85846210D01*
X134813133Y-85779017D01*
X134833348Y-85712135D01*
X134884725Y-85667618D01*
X134942734Y-85640568D01*
X135129139Y-85510047D01*
X135290047Y-85349139D01*
X135420568Y-85162734D01*
X135516739Y-84956496D01*
X135575635Y-84736692D01*
X135595468Y-84510000D01*
X135575635Y-84283308D01*
X135516739Y-84063504D01*
X135420568Y-83857266D01*
X135290047Y-83670861D01*
X135290045Y-83670858D01*
X135129141Y-83509954D01*
X134942734Y-83379432D01*
X134942728Y-83379429D01*
X134884725Y-83352382D01*
X134832285Y-83306210D01*
X134813133Y-83239017D01*
X134833348Y-83172135D01*
X134884725Y-83127618D01*
X134942734Y-83100568D01*
X135129139Y-82970047D01*
X135290047Y-82809139D01*
X135420568Y-82622734D01*
X135516739Y-82416496D01*
X135575635Y-82196692D01*
X135595468Y-81970000D01*
X135575635Y-81743308D01*
X135516739Y-81523504D01*
X135420568Y-81317266D01*
X135290047Y-81130861D01*
X135290045Y-81130858D01*
X135129141Y-80969954D01*
X134942734Y-80839432D01*
X134942728Y-80839429D01*
X134884725Y-80812382D01*
X134832285Y-80766210D01*
X134813133Y-80699017D01*
X134833348Y-80632135D01*
X134884725Y-80587618D01*
X134942734Y-80560568D01*
X135129139Y-80430047D01*
X135290047Y-80269139D01*
X135420568Y-80082734D01*
X135516739Y-79876496D01*
X135575635Y-79656692D01*
X135595468Y-79430000D01*
X135575635Y-79203308D01*
X135516739Y-78983504D01*
X135420568Y-78777266D01*
X135290047Y-78590861D01*
X135290045Y-78590858D01*
X135129141Y-78429954D01*
X134942734Y-78299432D01*
X134942728Y-78299429D01*
X134884725Y-78272382D01*
X134832285Y-78226210D01*
X134813133Y-78159017D01*
X134833348Y-78092135D01*
X134884725Y-78047618D01*
X134942734Y-78020568D01*
X135129139Y-77890047D01*
X135290047Y-77729139D01*
X135420568Y-77542734D01*
X135516739Y-77336496D01*
X135575635Y-77116692D01*
X135595468Y-76890000D01*
X135575635Y-76663308D01*
X135516739Y-76443504D01*
X135420568Y-76237266D01*
X135290047Y-76050861D01*
X135290045Y-76050858D01*
X135129141Y-75889954D01*
X134942734Y-75759432D01*
X134942728Y-75759429D01*
X134884725Y-75732382D01*
X134832285Y-75686210D01*
X134813133Y-75619017D01*
X134833348Y-75552135D01*
X134884725Y-75507618D01*
X134942734Y-75480568D01*
X135129139Y-75350047D01*
X135290047Y-75189139D01*
X135420568Y-75002734D01*
X135516739Y-74796496D01*
X135575635Y-74576692D01*
X135595468Y-74350000D01*
X135575635Y-74123308D01*
X135516739Y-73903504D01*
X135420568Y-73697266D01*
X135290047Y-73510861D01*
X135290045Y-73510858D01*
X135129141Y-73349954D01*
X134942734Y-73219432D01*
X134942728Y-73219429D01*
X134884725Y-73192382D01*
X134832285Y-73146210D01*
X134813133Y-73079017D01*
X134833348Y-73012135D01*
X134884725Y-72967618D01*
X134942734Y-72940568D01*
X135129139Y-72810047D01*
X135290047Y-72649139D01*
X135420568Y-72462734D01*
X135516739Y-72256496D01*
X135575635Y-72036692D01*
X135595468Y-71810000D01*
X135575635Y-71583308D01*
X135516739Y-71363504D01*
X135420568Y-71157266D01*
X135290047Y-70970861D01*
X135290045Y-70970858D01*
X135129141Y-70809954D01*
X134942734Y-70679432D01*
X134942732Y-70679431D01*
X134931275Y-70674088D01*
X134884132Y-70652105D01*
X134831694Y-70605934D01*
X134812542Y-70538740D01*
X134832758Y-70471859D01*
X134884134Y-70427341D01*
X134942484Y-70400132D01*
X135128820Y-70269657D01*
X135289657Y-70108820D01*
X135420134Y-69922482D01*
X135516265Y-69716326D01*
X135516269Y-69716317D01*
X135568872Y-69520000D01*
X134723012Y-69520000D01*
X134755925Y-69462993D01*
X134790000Y-69335826D01*
X134790000Y-69204174D01*
X134755925Y-69077007D01*
X134723012Y-69020000D01*
X135568872Y-69020000D01*
X135568872Y-69019999D01*
X135516269Y-68823682D01*
X135516265Y-68823673D01*
X135420134Y-68617517D01*
X135289657Y-68431179D01*
X135128820Y-68270342D01*
X134942482Y-68139865D01*
X134884133Y-68112657D01*
X134831694Y-68066484D01*
X134812542Y-67999291D01*
X134832758Y-67932410D01*
X134884129Y-67887895D01*
X134942734Y-67860568D01*
X135129139Y-67730047D01*
X135290047Y-67569139D01*
X135420568Y-67382734D01*
X135516739Y-67176496D01*
X135575635Y-66956692D01*
X135595468Y-66730000D01*
X135575635Y-66503308D01*
X135516739Y-66283504D01*
X135420568Y-66077266D01*
X135290047Y-65890861D01*
X135290045Y-65890858D01*
X135129141Y-65729954D01*
X134942734Y-65599432D01*
X134942728Y-65599429D01*
X134884725Y-65572382D01*
X134832285Y-65526210D01*
X134813133Y-65459017D01*
X134833348Y-65392135D01*
X134884725Y-65347618D01*
X134885319Y-65347341D01*
X134942734Y-65320568D01*
X135129139Y-65190047D01*
X135290047Y-65029139D01*
X135420568Y-64842734D01*
X135516739Y-64636496D01*
X135575635Y-64416692D01*
X135595468Y-64190000D01*
X135575635Y-63963308D01*
X135529171Y-63789901D01*
X135516741Y-63743511D01*
X135516738Y-63743502D01*
X135503016Y-63714075D01*
X135420568Y-63537266D01*
X135290047Y-63350861D01*
X135290045Y-63350858D01*
X135129143Y-63189956D01*
X135124454Y-63186673D01*
X135104535Y-63172725D01*
X135060912Y-63118149D01*
X135053719Y-63048650D01*
X135085241Y-62986296D01*
X135145471Y-62950882D01*
X135162404Y-62947861D01*
X135197483Y-62944091D01*
X135332331Y-62893796D01*
X135447546Y-62807546D01*
X135533796Y-62692331D01*
X135584091Y-62557483D01*
X135590500Y-62497873D01*
X135590499Y-61649998D01*
X148224532Y-61649998D01*
X148224532Y-61650001D01*
X148244364Y-61876686D01*
X148244366Y-61876697D01*
X148303258Y-62096488D01*
X148303261Y-62096497D01*
X148399431Y-62302732D01*
X148399432Y-62302734D01*
X148529954Y-62489141D01*
X148690858Y-62650045D01*
X148690861Y-62650047D01*
X148877266Y-62780568D01*
X148935865Y-62807893D01*
X148988305Y-62854065D01*
X149007457Y-62921258D01*
X148987242Y-62988139D01*
X148935867Y-63032657D01*
X148877515Y-63059867D01*
X148691179Y-63190342D01*
X148530342Y-63351179D01*
X148399865Y-63537517D01*
X148303734Y-63743673D01*
X148303730Y-63743682D01*
X148251127Y-63939999D01*
X148251128Y-63940000D01*
X149096988Y-63940000D01*
X149064075Y-63997007D01*
X149030000Y-64124174D01*
X149030000Y-64255826D01*
X149064075Y-64382993D01*
X149096988Y-64440000D01*
X148251128Y-64440000D01*
X148303730Y-64636317D01*
X148303734Y-64636326D01*
X148399865Y-64842482D01*
X148530342Y-65028820D01*
X148691179Y-65189657D01*
X148877518Y-65320134D01*
X148877520Y-65320135D01*
X148935865Y-65347342D01*
X148988305Y-65393514D01*
X149007457Y-65460707D01*
X148987242Y-65527589D01*
X148935867Y-65572105D01*
X148877268Y-65599431D01*
X148877264Y-65599433D01*
X148690858Y-65729954D01*
X148529954Y-65890858D01*
X148399432Y-66077265D01*
X148399431Y-66077267D01*
X148303261Y-66283502D01*
X148303258Y-66283511D01*
X148244366Y-66503302D01*
X148244364Y-66503313D01*
X148224532Y-66729998D01*
X148224532Y-66730001D01*
X148244364Y-66956686D01*
X148244366Y-66956697D01*
X148303258Y-67176488D01*
X148303261Y-67176497D01*
X148399431Y-67382732D01*
X148399432Y-67382734D01*
X148529954Y-67569141D01*
X148690858Y-67730045D01*
X148690861Y-67730047D01*
X148877266Y-67860568D01*
X148935275Y-67887618D01*
X148987714Y-67933791D01*
X149006866Y-68000984D01*
X148986650Y-68067865D01*
X148935275Y-68112382D01*
X148877267Y-68139431D01*
X148877265Y-68139432D01*
X148690858Y-68269954D01*
X148529954Y-68430858D01*
X148399432Y-68617265D01*
X148399431Y-68617267D01*
X148303261Y-68823502D01*
X148303258Y-68823511D01*
X148244366Y-69043302D01*
X148244364Y-69043313D01*
X148224532Y-69269998D01*
X148224532Y-69270001D01*
X148244364Y-69496686D01*
X148244366Y-69496697D01*
X148303258Y-69716488D01*
X148303261Y-69716497D01*
X148399431Y-69922732D01*
X148399432Y-69922734D01*
X148529954Y-70109141D01*
X148690858Y-70270045D01*
X148690861Y-70270047D01*
X148877266Y-70400568D01*
X148934681Y-70427341D01*
X148935275Y-70427618D01*
X148987714Y-70473791D01*
X149006866Y-70540984D01*
X148986650Y-70607865D01*
X148935275Y-70652381D01*
X148929525Y-70655063D01*
X148877267Y-70679431D01*
X148877265Y-70679432D01*
X148690858Y-70809954D01*
X148529954Y-70970858D01*
X148399432Y-71157265D01*
X148399431Y-71157267D01*
X148303261Y-71363502D01*
X148303258Y-71363511D01*
X148244366Y-71583302D01*
X148244364Y-71583313D01*
X148224532Y-71809998D01*
X148224532Y-71810001D01*
X148244364Y-72036686D01*
X148244366Y-72036697D01*
X148303258Y-72256488D01*
X148303261Y-72256497D01*
X148399431Y-72462732D01*
X148399432Y-72462734D01*
X148529954Y-72649141D01*
X148690858Y-72810045D01*
X148690861Y-72810047D01*
X148877266Y-72940568D01*
X148935275Y-72967618D01*
X148987714Y-73013791D01*
X149006866Y-73080984D01*
X148986650Y-73147865D01*
X148935275Y-73192382D01*
X148877267Y-73219431D01*
X148877265Y-73219432D01*
X148690858Y-73349954D01*
X148529954Y-73510858D01*
X148399432Y-73697265D01*
X148399431Y-73697267D01*
X148303261Y-73903502D01*
X148303258Y-73903511D01*
X148244366Y-74123302D01*
X148244364Y-74123313D01*
X148224532Y-74349998D01*
X148224532Y-74350001D01*
X148244364Y-74576686D01*
X148244366Y-74576697D01*
X148303258Y-74796488D01*
X148303261Y-74796497D01*
X148399431Y-75002732D01*
X148399432Y-75002734D01*
X148529954Y-75189141D01*
X148690858Y-75350045D01*
X148690861Y-75350047D01*
X148877266Y-75480568D01*
X148903989Y-75493029D01*
X148935275Y-75507618D01*
X148987714Y-75553791D01*
X149006866Y-75620984D01*
X148986650Y-75687865D01*
X148935275Y-75732382D01*
X148877267Y-75759431D01*
X148877265Y-75759432D01*
X148690858Y-75889954D01*
X148529954Y-76050858D01*
X148399432Y-76237265D01*
X148399431Y-76237267D01*
X148303261Y-76443502D01*
X148303258Y-76443511D01*
X148244366Y-76663302D01*
X148244364Y-76663313D01*
X148224532Y-76889998D01*
X148224532Y-76890001D01*
X148244364Y-77116686D01*
X148244366Y-77116697D01*
X148303258Y-77336488D01*
X148303261Y-77336497D01*
X148399431Y-77542732D01*
X148399432Y-77542734D01*
X148529954Y-77729141D01*
X148690858Y-77890045D01*
X148690861Y-77890047D01*
X148877266Y-78020568D01*
X148935275Y-78047618D01*
X148987714Y-78093791D01*
X149006866Y-78160984D01*
X148986650Y-78227865D01*
X148935275Y-78272382D01*
X148877267Y-78299431D01*
X148877265Y-78299432D01*
X148690858Y-78429954D01*
X148529954Y-78590858D01*
X148399432Y-78777265D01*
X148399431Y-78777267D01*
X148303261Y-78983502D01*
X148303258Y-78983511D01*
X148244366Y-79203302D01*
X148244364Y-79203313D01*
X148224532Y-79429998D01*
X148224532Y-79430001D01*
X148244364Y-79656686D01*
X148244366Y-79656697D01*
X148303258Y-79876488D01*
X148303261Y-79876497D01*
X148399431Y-80082732D01*
X148399432Y-80082734D01*
X148529954Y-80269141D01*
X148690858Y-80430045D01*
X148690861Y-80430047D01*
X148877266Y-80560568D01*
X148935275Y-80587618D01*
X148987714Y-80633791D01*
X149006866Y-80700984D01*
X148986650Y-80767865D01*
X148935275Y-80812382D01*
X148877267Y-80839431D01*
X148877265Y-80839432D01*
X148690858Y-80969954D01*
X148529954Y-81130858D01*
X148399432Y-81317265D01*
X148399431Y-81317267D01*
X148303261Y-81523502D01*
X148303258Y-81523511D01*
X148244366Y-81743302D01*
X148244364Y-81743313D01*
X148224532Y-81969998D01*
X148224532Y-81970001D01*
X148244364Y-82196686D01*
X148244366Y-82196697D01*
X148303258Y-82416488D01*
X148303261Y-82416497D01*
X148399431Y-82622732D01*
X148399432Y-82622734D01*
X148529954Y-82809141D01*
X148690858Y-82970045D01*
X148690861Y-82970047D01*
X148877266Y-83100568D01*
X148935275Y-83127618D01*
X148987714Y-83173791D01*
X149006866Y-83240984D01*
X148986650Y-83307865D01*
X148935275Y-83352382D01*
X148877267Y-83379431D01*
X148877265Y-83379432D01*
X148690858Y-83509954D01*
X148529954Y-83670858D01*
X148399432Y-83857265D01*
X148399431Y-83857267D01*
X148303261Y-84063502D01*
X148303258Y-84063511D01*
X148244366Y-84283302D01*
X148244364Y-84283313D01*
X148224532Y-84509998D01*
X148224532Y-84510001D01*
X148244364Y-84736686D01*
X148244366Y-84736697D01*
X148303258Y-84956488D01*
X148303261Y-84956497D01*
X148399431Y-85162732D01*
X148399432Y-85162734D01*
X148529954Y-85349141D01*
X148690858Y-85510045D01*
X148690861Y-85510047D01*
X148877266Y-85640568D01*
X148935275Y-85667618D01*
X148987714Y-85713791D01*
X149006866Y-85780984D01*
X148986650Y-85847865D01*
X148935275Y-85892382D01*
X148877267Y-85919431D01*
X148877265Y-85919432D01*
X148690858Y-86049954D01*
X148529954Y-86210858D01*
X148399432Y-86397265D01*
X148399431Y-86397267D01*
X148303261Y-86603502D01*
X148303258Y-86603511D01*
X148244366Y-86823302D01*
X148244364Y-86823313D01*
X148224532Y-87049998D01*
X148224532Y-87050001D01*
X148244364Y-87276686D01*
X148244366Y-87276697D01*
X148303258Y-87496488D01*
X148303261Y-87496497D01*
X148399431Y-87702732D01*
X148399432Y-87702734D01*
X148529954Y-87889141D01*
X148690858Y-88050045D01*
X148690861Y-88050047D01*
X148877266Y-88180568D01*
X148935275Y-88207618D01*
X148987714Y-88253791D01*
X149006866Y-88320984D01*
X148986650Y-88387865D01*
X148935275Y-88432382D01*
X148877267Y-88459431D01*
X148877265Y-88459432D01*
X148690858Y-88589954D01*
X148529954Y-88750858D01*
X148399432Y-88937265D01*
X148399431Y-88937267D01*
X148303261Y-89143502D01*
X148303258Y-89143511D01*
X148244366Y-89363302D01*
X148244364Y-89363313D01*
X148224532Y-89589998D01*
X148224532Y-89590001D01*
X148244364Y-89816686D01*
X148244366Y-89816697D01*
X148303258Y-90036488D01*
X148303261Y-90036497D01*
X148399431Y-90242732D01*
X148399432Y-90242734D01*
X148529954Y-90429141D01*
X148690858Y-90590045D01*
X148690861Y-90590047D01*
X148877266Y-90720568D01*
X148935275Y-90747618D01*
X148987714Y-90793791D01*
X149006866Y-90860984D01*
X148986650Y-90927865D01*
X148935275Y-90972382D01*
X148877267Y-90999431D01*
X148877265Y-90999432D01*
X148690858Y-91129954D01*
X148529954Y-91290858D01*
X148399432Y-91477265D01*
X148399431Y-91477267D01*
X148303261Y-91683502D01*
X148303258Y-91683511D01*
X148244366Y-91903302D01*
X148244364Y-91903313D01*
X148224532Y-92129998D01*
X148224532Y-92130001D01*
X148244364Y-92356686D01*
X148244366Y-92356697D01*
X148303258Y-92576488D01*
X148303261Y-92576497D01*
X148399431Y-92782732D01*
X148399432Y-92782734D01*
X148529954Y-92969141D01*
X148690858Y-93130045D01*
X148690861Y-93130047D01*
X148877266Y-93260568D01*
X148935275Y-93287618D01*
X148987714Y-93333791D01*
X149006866Y-93400984D01*
X148986650Y-93467865D01*
X148935275Y-93512382D01*
X148877267Y-93539431D01*
X148877265Y-93539432D01*
X148690858Y-93669954D01*
X148529954Y-93830858D01*
X148399432Y-94017265D01*
X148399431Y-94017267D01*
X148303261Y-94223502D01*
X148303258Y-94223511D01*
X148244366Y-94443302D01*
X148244364Y-94443313D01*
X148224532Y-94669998D01*
X148224532Y-94670001D01*
X148244364Y-94896686D01*
X148244366Y-94896697D01*
X148303258Y-95116488D01*
X148303261Y-95116497D01*
X148399431Y-95322732D01*
X148399432Y-95322734D01*
X148529954Y-95509141D01*
X148690858Y-95670045D01*
X148690861Y-95670047D01*
X148877266Y-95800568D01*
X148935275Y-95827618D01*
X148987714Y-95873791D01*
X149006866Y-95940984D01*
X148986650Y-96007865D01*
X148935275Y-96052382D01*
X148877267Y-96079431D01*
X148877265Y-96079432D01*
X148690858Y-96209954D01*
X148529954Y-96370858D01*
X148399432Y-96557265D01*
X148399431Y-96557267D01*
X148303261Y-96763502D01*
X148303258Y-96763511D01*
X148244366Y-96983302D01*
X148244364Y-96983313D01*
X148224532Y-97209998D01*
X148224532Y-97210001D01*
X148244364Y-97436686D01*
X148244366Y-97436697D01*
X148303258Y-97656488D01*
X148303261Y-97656497D01*
X148399431Y-97862732D01*
X148399432Y-97862734D01*
X148529954Y-98049141D01*
X148690858Y-98210045D01*
X148690861Y-98210047D01*
X148877266Y-98340568D01*
X149083504Y-98436739D01*
X149303308Y-98495635D01*
X149465230Y-98509801D01*
X149529998Y-98515468D01*
X149530000Y-98515468D01*
X149530002Y-98515468D01*
X149586673Y-98510509D01*
X149756692Y-98495635D01*
X149976496Y-98436739D01*
X150182734Y-98340568D01*
X150369139Y-98210047D01*
X150530047Y-98049139D01*
X150660568Y-97862734D01*
X150756739Y-97656496D01*
X150815635Y-97436692D01*
X150835468Y-97210000D01*
X150815635Y-96983308D01*
X150756739Y-96763504D01*
X150660568Y-96557266D01*
X150530047Y-96370861D01*
X150530045Y-96370858D01*
X150369141Y-96209954D01*
X150182734Y-96079432D01*
X150182728Y-96079429D01*
X150124725Y-96052382D01*
X150072285Y-96006210D01*
X150053133Y-95939017D01*
X150073348Y-95872135D01*
X150124725Y-95827618D01*
X150182734Y-95800568D01*
X150369139Y-95670047D01*
X150530047Y-95509139D01*
X150660568Y-95322734D01*
X150756739Y-95116496D01*
X150815635Y-94896692D01*
X150835468Y-94670000D01*
X150815635Y-94443308D01*
X150756739Y-94223504D01*
X150660568Y-94017266D01*
X150530047Y-93830861D01*
X150530045Y-93830858D01*
X150369141Y-93669954D01*
X150182734Y-93539432D01*
X150182728Y-93539429D01*
X150124725Y-93512382D01*
X150072285Y-93466210D01*
X150053133Y-93399017D01*
X150073348Y-93332135D01*
X150124725Y-93287618D01*
X150182734Y-93260568D01*
X150369139Y-93130047D01*
X150530047Y-92969139D01*
X150660568Y-92782734D01*
X150756739Y-92576496D01*
X150815635Y-92356692D01*
X150835468Y-92130000D01*
X150833029Y-92102127D01*
X150827814Y-92042516D01*
X150815635Y-91903308D01*
X150756739Y-91683504D01*
X150660568Y-91477266D01*
X150530047Y-91290861D01*
X150530045Y-91290858D01*
X150369141Y-91129954D01*
X150182734Y-90999432D01*
X150182728Y-90999429D01*
X150124725Y-90972382D01*
X150072285Y-90926210D01*
X150053133Y-90859017D01*
X150073348Y-90792135D01*
X150124725Y-90747618D01*
X150182734Y-90720568D01*
X150369139Y-90590047D01*
X150530047Y-90429139D01*
X150660568Y-90242734D01*
X150756739Y-90036496D01*
X150815635Y-89816692D01*
X150835468Y-89590000D01*
X150815635Y-89363308D01*
X150756739Y-89143504D01*
X150660568Y-88937266D01*
X150530047Y-88750861D01*
X150530045Y-88750858D01*
X150369141Y-88589954D01*
X150182734Y-88459432D01*
X150182728Y-88459429D01*
X150124725Y-88432382D01*
X150072285Y-88386210D01*
X150053133Y-88319017D01*
X150073348Y-88252135D01*
X150124725Y-88207618D01*
X150182734Y-88180568D01*
X150369139Y-88050047D01*
X150530047Y-87889139D01*
X150660568Y-87702734D01*
X150756739Y-87496496D01*
X150815635Y-87276692D01*
X150835468Y-87050000D01*
X150815635Y-86823308D01*
X150756739Y-86603504D01*
X150660568Y-86397266D01*
X150530047Y-86210861D01*
X150530045Y-86210858D01*
X150369141Y-86049954D01*
X150182734Y-85919432D01*
X150182728Y-85919429D01*
X150124725Y-85892382D01*
X150072285Y-85846210D01*
X150053133Y-85779017D01*
X150073348Y-85712135D01*
X150124725Y-85667618D01*
X150182734Y-85640568D01*
X150369139Y-85510047D01*
X150530047Y-85349139D01*
X150660568Y-85162734D01*
X150756739Y-84956496D01*
X150815635Y-84736692D01*
X150835468Y-84510000D01*
X150815635Y-84283308D01*
X150756739Y-84063504D01*
X150660568Y-83857266D01*
X150530047Y-83670861D01*
X150530045Y-83670858D01*
X150369141Y-83509954D01*
X150182734Y-83379432D01*
X150182728Y-83379429D01*
X150124725Y-83352382D01*
X150072285Y-83306210D01*
X150053133Y-83239017D01*
X150073348Y-83172135D01*
X150124725Y-83127618D01*
X150182734Y-83100568D01*
X150369139Y-82970047D01*
X150530047Y-82809139D01*
X150660568Y-82622734D01*
X150756739Y-82416496D01*
X150815635Y-82196692D01*
X150835468Y-81970000D01*
X150815635Y-81743308D01*
X150756739Y-81523504D01*
X150660568Y-81317266D01*
X150530047Y-81130861D01*
X150530045Y-81130858D01*
X150369141Y-80969954D01*
X150182734Y-80839432D01*
X150182728Y-80839429D01*
X150124725Y-80812382D01*
X150072285Y-80766210D01*
X150053133Y-80699017D01*
X150073348Y-80632135D01*
X150124725Y-80587618D01*
X150182734Y-80560568D01*
X150369139Y-80430047D01*
X150530047Y-80269139D01*
X150660568Y-80082734D01*
X150756739Y-79876496D01*
X150815635Y-79656692D01*
X150835468Y-79430000D01*
X150815635Y-79203308D01*
X150756739Y-78983504D01*
X150660568Y-78777266D01*
X150530047Y-78590861D01*
X150530045Y-78590858D01*
X150369141Y-78429954D01*
X150182734Y-78299432D01*
X150182728Y-78299429D01*
X150124725Y-78272382D01*
X150072285Y-78226210D01*
X150053133Y-78159017D01*
X150073348Y-78092135D01*
X150124725Y-78047618D01*
X150182734Y-78020568D01*
X150369139Y-77890047D01*
X150530047Y-77729139D01*
X150660568Y-77542734D01*
X150756739Y-77336496D01*
X150815635Y-77116692D01*
X150835468Y-76890000D01*
X150815635Y-76663308D01*
X150756739Y-76443504D01*
X150660568Y-76237266D01*
X150530047Y-76050861D01*
X150530045Y-76050858D01*
X150369141Y-75889954D01*
X150182734Y-75759432D01*
X150182728Y-75759429D01*
X150124725Y-75732382D01*
X150072285Y-75686210D01*
X150053133Y-75619017D01*
X150073348Y-75552135D01*
X150124725Y-75507618D01*
X150182734Y-75480568D01*
X150369139Y-75350047D01*
X150530047Y-75189139D01*
X150660568Y-75002734D01*
X150756739Y-74796496D01*
X150815635Y-74576692D01*
X150835468Y-74350000D01*
X150815635Y-74123308D01*
X150756739Y-73903504D01*
X150660568Y-73697266D01*
X150530047Y-73510861D01*
X150530045Y-73510858D01*
X150369141Y-73349954D01*
X150182734Y-73219432D01*
X150182728Y-73219429D01*
X150124725Y-73192382D01*
X150072285Y-73146210D01*
X150053133Y-73079017D01*
X150073348Y-73012135D01*
X150124725Y-72967618D01*
X150182734Y-72940568D01*
X150369139Y-72810047D01*
X150530047Y-72649139D01*
X150660568Y-72462734D01*
X150756739Y-72256496D01*
X150815635Y-72036692D01*
X150835468Y-71810000D01*
X150815635Y-71583308D01*
X150756739Y-71363504D01*
X150660568Y-71157266D01*
X150530047Y-70970861D01*
X150530045Y-70970858D01*
X150369141Y-70809954D01*
X150182734Y-70679432D01*
X150182728Y-70679429D01*
X150155038Y-70666517D01*
X150124724Y-70652381D01*
X150072285Y-70606210D01*
X150053133Y-70539017D01*
X150073348Y-70472135D01*
X150124725Y-70427618D01*
X150125319Y-70427341D01*
X150182734Y-70400568D01*
X150369139Y-70270047D01*
X150530047Y-70109139D01*
X150660568Y-69922734D01*
X150756739Y-69716496D01*
X150815635Y-69496692D01*
X150835468Y-69270000D01*
X150815635Y-69043308D01*
X150769171Y-68869901D01*
X150756741Y-68823511D01*
X150756738Y-68823502D01*
X150743016Y-68794075D01*
X150660568Y-68617266D01*
X150530047Y-68430861D01*
X150530045Y-68430858D01*
X150369141Y-68269954D01*
X150182734Y-68139432D01*
X150182728Y-68139429D01*
X150124725Y-68112382D01*
X150072285Y-68066210D01*
X150053133Y-67999017D01*
X150073348Y-67932135D01*
X150124725Y-67887618D01*
X150182734Y-67860568D01*
X150369139Y-67730047D01*
X150530047Y-67569139D01*
X150660568Y-67382734D01*
X150756739Y-67176496D01*
X150815635Y-66956692D01*
X150835468Y-66730000D01*
X150815635Y-66503308D01*
X150756739Y-66283504D01*
X150660568Y-66077266D01*
X150530047Y-65890861D01*
X150530045Y-65890858D01*
X150369141Y-65729954D01*
X150182734Y-65599432D01*
X150182732Y-65599431D01*
X150124725Y-65572382D01*
X150124132Y-65572105D01*
X150071694Y-65525934D01*
X150052542Y-65458740D01*
X150072758Y-65391859D01*
X150124134Y-65347341D01*
X150182484Y-65320132D01*
X150368820Y-65189657D01*
X150529657Y-65028820D01*
X150660134Y-64842482D01*
X150756265Y-64636326D01*
X150756269Y-64636317D01*
X150808872Y-64440000D01*
X149963012Y-64440000D01*
X149995925Y-64382993D01*
X150030000Y-64255826D01*
X150030000Y-64124174D01*
X149995925Y-63997007D01*
X149963012Y-63940000D01*
X150808872Y-63940000D01*
X150808872Y-63939999D01*
X150756269Y-63743682D01*
X150756265Y-63743673D01*
X150660134Y-63537517D01*
X150529657Y-63351179D01*
X150368820Y-63190342D01*
X150182482Y-63059865D01*
X150124133Y-63032657D01*
X150071694Y-62986484D01*
X150052542Y-62919291D01*
X150072758Y-62852410D01*
X150124129Y-62807895D01*
X150182734Y-62780568D01*
X150369139Y-62650047D01*
X150530047Y-62489139D01*
X150660568Y-62302734D01*
X150756739Y-62096496D01*
X150815635Y-61876692D01*
X150835468Y-61650000D01*
X150834593Y-61639999D01*
X152347973Y-61639999D01*
X152347973Y-61640000D01*
X152368568Y-61875403D01*
X152368570Y-61875413D01*
X152429726Y-62103655D01*
X152429728Y-62103659D01*
X152429729Y-62103663D01*
X152474652Y-62200000D01*
X152529597Y-62317830D01*
X152529599Y-62317834D01*
X152637913Y-62472521D01*
X152655662Y-62497870D01*
X152665133Y-62511395D01*
X152665138Y-62511402D01*
X152832229Y-62678493D01*
X152832235Y-62678498D01*
X152909112Y-62732328D01*
X153017030Y-62807893D01*
X153018226Y-62808730D01*
X153061851Y-62863307D01*
X153069045Y-62932805D01*
X153037522Y-62995160D01*
X153018227Y-63011880D01*
X152832554Y-63141890D01*
X152832552Y-63141891D01*
X152665523Y-63308920D01*
X152665518Y-63308926D01*
X152530032Y-63502420D01*
X152530031Y-63502422D01*
X152430202Y-63716507D01*
X152430199Y-63716513D01*
X152372996Y-63929999D01*
X152372996Y-63930000D01*
X153270620Y-63930000D01*
X153237707Y-63987007D01*
X153203632Y-64114174D01*
X153203632Y-64245826D01*
X153237707Y-64372993D01*
X153270620Y-64430000D01*
X152372996Y-64430000D01*
X152430199Y-64643486D01*
X152430202Y-64643492D01*
X152530031Y-64857578D01*
X152665526Y-65051082D01*
X152832549Y-65218105D01*
X153018227Y-65348119D01*
X153061851Y-65402696D01*
X153069044Y-65472195D01*
X153037522Y-65534549D01*
X153018227Y-65551269D01*
X152832226Y-65681508D01*
X152665137Y-65848597D01*
X152529597Y-66042169D01*
X152529596Y-66042171D01*
X152429730Y-66256335D01*
X152429726Y-66256344D01*
X152368570Y-66484586D01*
X152368568Y-66484596D01*
X152347973Y-66719999D01*
X152347973Y-66720000D01*
X152368568Y-66955403D01*
X152368570Y-66955413D01*
X152429726Y-67183655D01*
X152429728Y-67183659D01*
X152429729Y-67183663D01*
X152457704Y-67243655D01*
X152529597Y-67397830D01*
X152529599Y-67397834D01*
X152665133Y-67591395D01*
X152665138Y-67591402D01*
X152832229Y-67758493D01*
X152832235Y-67758498D01*
X153017790Y-67888425D01*
X153061415Y-67943002D01*
X153068609Y-68012500D01*
X153037086Y-68074855D01*
X153017790Y-68091575D01*
X152832229Y-68221505D01*
X152665137Y-68388597D01*
X152529597Y-68582169D01*
X152529596Y-68582171D01*
X152429730Y-68796335D01*
X152429726Y-68796344D01*
X152368570Y-69024586D01*
X152368568Y-69024596D01*
X152347973Y-69259999D01*
X152347973Y-69260000D01*
X152368568Y-69495403D01*
X152368570Y-69495413D01*
X152429726Y-69723655D01*
X152429728Y-69723659D01*
X152429729Y-69723663D01*
X152457704Y-69783655D01*
X152529597Y-69937830D01*
X152529599Y-69937834D01*
X152665133Y-70131395D01*
X152665138Y-70131402D01*
X152832229Y-70298493D01*
X152832235Y-70298498D01*
X153017790Y-70428425D01*
X153061415Y-70483002D01*
X153068609Y-70552500D01*
X153037086Y-70614855D01*
X153017790Y-70631575D01*
X152832229Y-70761505D01*
X152665137Y-70928597D01*
X152529597Y-71122169D01*
X152529596Y-71122171D01*
X152429730Y-71336335D01*
X152429726Y-71336344D01*
X152368570Y-71564586D01*
X152368568Y-71564596D01*
X152347973Y-71799999D01*
X152347973Y-71800000D01*
X152368568Y-72035403D01*
X152368570Y-72035413D01*
X152429726Y-72263655D01*
X152429728Y-72263659D01*
X152429729Y-72263663D01*
X152522557Y-72462732D01*
X152529597Y-72477830D01*
X152529599Y-72477834D01*
X152665133Y-72671395D01*
X152665138Y-72671402D01*
X152832229Y-72838493D01*
X152832235Y-72838498D01*
X153017790Y-72968425D01*
X153061415Y-73023002D01*
X153068609Y-73092500D01*
X153037086Y-73154855D01*
X153017790Y-73171575D01*
X152832229Y-73301505D01*
X152665137Y-73468597D01*
X152529597Y-73662169D01*
X152529596Y-73662171D01*
X152429730Y-73876335D01*
X152429726Y-73876344D01*
X152368570Y-74104586D01*
X152368568Y-74104596D01*
X152347973Y-74339999D01*
X152347973Y-74340000D01*
X152368568Y-74575403D01*
X152368570Y-74575413D01*
X152429726Y-74803655D01*
X152429728Y-74803659D01*
X152429729Y-74803663D01*
X152522557Y-75002732D01*
X152529597Y-75017830D01*
X152529599Y-75017834D01*
X152665133Y-75211395D01*
X152665138Y-75211402D01*
X152832229Y-75378493D01*
X152832235Y-75378498D01*
X153017790Y-75508425D01*
X153061415Y-75563002D01*
X153068609Y-75632500D01*
X153037086Y-75694855D01*
X153017790Y-75711575D01*
X152832229Y-75841505D01*
X152665137Y-76008597D01*
X152529597Y-76202169D01*
X152529596Y-76202171D01*
X152429730Y-76416335D01*
X152429726Y-76416344D01*
X152368570Y-76644586D01*
X152368568Y-76644596D01*
X152347973Y-76879999D01*
X152347973Y-76880000D01*
X152368568Y-77115403D01*
X152368570Y-77115413D01*
X152429726Y-77343655D01*
X152429728Y-77343659D01*
X152429729Y-77343663D01*
X152449659Y-77386402D01*
X152529597Y-77557830D01*
X152529599Y-77557834D01*
X152665133Y-77751395D01*
X152665138Y-77751402D01*
X152832229Y-77918493D01*
X152832235Y-77918498D01*
X153017790Y-78048425D01*
X153061415Y-78103002D01*
X153068609Y-78172500D01*
X153037086Y-78234855D01*
X153017790Y-78251575D01*
X152832229Y-78381505D01*
X152665137Y-78548597D01*
X152529597Y-78742169D01*
X152529596Y-78742171D01*
X152429730Y-78956335D01*
X152429726Y-78956344D01*
X152368570Y-79184586D01*
X152368568Y-79184596D01*
X152347973Y-79419999D01*
X152347973Y-79420000D01*
X152368568Y-79655403D01*
X152368570Y-79655413D01*
X152429726Y-79883655D01*
X152429728Y-79883659D01*
X152429729Y-79883663D01*
X152449659Y-79926402D01*
X152529597Y-80097830D01*
X152529599Y-80097834D01*
X152665133Y-80291395D01*
X152665138Y-80291402D01*
X152832229Y-80458493D01*
X152832235Y-80458498D01*
X153017790Y-80588425D01*
X153061415Y-80643002D01*
X153068609Y-80712500D01*
X153037086Y-80774855D01*
X153017790Y-80791575D01*
X152832229Y-80921505D01*
X152665137Y-81088597D01*
X152529597Y-81282169D01*
X152529596Y-81282171D01*
X152429730Y-81496335D01*
X152429726Y-81496344D01*
X152368570Y-81724586D01*
X152368568Y-81724596D01*
X152347973Y-81959999D01*
X152347973Y-81960000D01*
X152368568Y-82195403D01*
X152368570Y-82195413D01*
X152429726Y-82423655D01*
X152429728Y-82423659D01*
X152429729Y-82423663D01*
X152480537Y-82532620D01*
X152529597Y-82637830D01*
X152529599Y-82637834D01*
X152665133Y-82831395D01*
X152665138Y-82831402D01*
X152832229Y-82998493D01*
X152832235Y-82998498D01*
X153017790Y-83128425D01*
X153061415Y-83183002D01*
X153068609Y-83252500D01*
X153037086Y-83314855D01*
X153017790Y-83331575D01*
X152832229Y-83461505D01*
X152665137Y-83628597D01*
X152529597Y-83822169D01*
X152529596Y-83822171D01*
X152429730Y-84036335D01*
X152429726Y-84036344D01*
X152368570Y-84264586D01*
X152368568Y-84264596D01*
X152347973Y-84499999D01*
X152347973Y-84500000D01*
X152368568Y-84735403D01*
X152368570Y-84735413D01*
X152429726Y-84963655D01*
X152429728Y-84963659D01*
X152429729Y-84963663D01*
X152463593Y-85036284D01*
X152529597Y-85177830D01*
X152529599Y-85177834D01*
X152665133Y-85371395D01*
X152665138Y-85371402D01*
X152832229Y-85538493D01*
X152832235Y-85538498D01*
X153017790Y-85668425D01*
X153061415Y-85723002D01*
X153068609Y-85792500D01*
X153037086Y-85854855D01*
X153017790Y-85871575D01*
X152832229Y-86001505D01*
X152665137Y-86168597D01*
X152529597Y-86362169D01*
X152529596Y-86362171D01*
X152429730Y-86576335D01*
X152429726Y-86576344D01*
X152368570Y-86804586D01*
X152368568Y-86804596D01*
X152347973Y-87039999D01*
X152347973Y-87040000D01*
X152368568Y-87275403D01*
X152368570Y-87275413D01*
X152429726Y-87503655D01*
X152429728Y-87503659D01*
X152429729Y-87503663D01*
X152520629Y-87698599D01*
X152529597Y-87717830D01*
X152529599Y-87717834D01*
X152665133Y-87911395D01*
X152665138Y-87911402D01*
X152832229Y-88078493D01*
X152832235Y-88078498D01*
X153017790Y-88208425D01*
X153061415Y-88263002D01*
X153068609Y-88332500D01*
X153037086Y-88394855D01*
X153017790Y-88411575D01*
X152832229Y-88541505D01*
X152665137Y-88708597D01*
X152529597Y-88902169D01*
X152529596Y-88902171D01*
X152429730Y-89116335D01*
X152429726Y-89116344D01*
X152368570Y-89344586D01*
X152368568Y-89344596D01*
X152347973Y-89579999D01*
X152347973Y-89580000D01*
X152368568Y-89815403D01*
X152368570Y-89815413D01*
X152429726Y-90043655D01*
X152429728Y-90043659D01*
X152429729Y-90043663D01*
X152522557Y-90242732D01*
X152529597Y-90257830D01*
X152529599Y-90257834D01*
X152665133Y-90451395D01*
X152665138Y-90451402D01*
X152832229Y-90618493D01*
X152832235Y-90618498D01*
X153017790Y-90748425D01*
X153061415Y-90803002D01*
X153068609Y-90872500D01*
X153037086Y-90934855D01*
X153017790Y-90951575D01*
X152832229Y-91081505D01*
X152665137Y-91248597D01*
X152529597Y-91442169D01*
X152529596Y-91442171D01*
X152429730Y-91656335D01*
X152429726Y-91656344D01*
X152368570Y-91884586D01*
X152368568Y-91884596D01*
X152347973Y-92119999D01*
X152347973Y-92120000D01*
X152368568Y-92355403D01*
X152368570Y-92355413D01*
X152429726Y-92583655D01*
X152429728Y-92583659D01*
X152429729Y-92583663D01*
X152522557Y-92782732D01*
X152529597Y-92797830D01*
X152529599Y-92797834D01*
X152665133Y-92991395D01*
X152665138Y-92991402D01*
X152832229Y-93158493D01*
X152832235Y-93158498D01*
X153017790Y-93288425D01*
X153061415Y-93343002D01*
X153068609Y-93412500D01*
X153037086Y-93474855D01*
X153017790Y-93491575D01*
X152832229Y-93621505D01*
X152665137Y-93788597D01*
X152529597Y-93982169D01*
X152529596Y-93982171D01*
X152429730Y-94196335D01*
X152429726Y-94196344D01*
X152368570Y-94424586D01*
X152368568Y-94424596D01*
X152347973Y-94659999D01*
X152347973Y-94660000D01*
X152368568Y-94895403D01*
X152368570Y-94895413D01*
X152429726Y-95123655D01*
X152429728Y-95123659D01*
X152429729Y-95123663D01*
X152522557Y-95322732D01*
X152529597Y-95337830D01*
X152529599Y-95337834D01*
X152625066Y-95474174D01*
X152665133Y-95531396D01*
X152665138Y-95531402D01*
X152787062Y-95653326D01*
X152820547Y-95714649D01*
X152815563Y-95784341D01*
X152773691Y-95840274D01*
X152742715Y-95857189D01*
X152611301Y-95906203D01*
X152611296Y-95906206D01*
X152496087Y-95992452D01*
X152496084Y-95992455D01*
X152409838Y-96107664D01*
X152409834Y-96107671D01*
X152359540Y-96242517D01*
X152353133Y-96302116D01*
X152353133Y-96302123D01*
X152353132Y-96302135D01*
X152353132Y-98097870D01*
X152353133Y-98097876D01*
X152359540Y-98157483D01*
X152409834Y-98292328D01*
X152409838Y-98292335D01*
X152496084Y-98407544D01*
X152496087Y-98407547D01*
X152611296Y-98493793D01*
X152611303Y-98493797D01*
X152746149Y-98544091D01*
X152746148Y-98544091D01*
X152753076Y-98544835D01*
X152805759Y-98550500D01*
X154601504Y-98550499D01*
X154661115Y-98544091D01*
X154795963Y-98493796D01*
X154911178Y-98407546D01*
X154997428Y-98292331D01*
X155047723Y-98157483D01*
X155054132Y-98097873D01*
X155054131Y-96302128D01*
X155047723Y-96242517D01*
X155038421Y-96217578D01*
X154997429Y-96107671D01*
X154997425Y-96107664D01*
X154911179Y-95992455D01*
X154911176Y-95992452D01*
X154795967Y-95906206D01*
X154795960Y-95906202D01*
X154664549Y-95857189D01*
X154608615Y-95815318D01*
X154584198Y-95749853D01*
X154599050Y-95681580D01*
X154620195Y-95653332D01*
X154742127Y-95531401D01*
X154877667Y-95337830D01*
X154977535Y-95123663D01*
X155038695Y-94895408D01*
X155059291Y-94660000D01*
X155038695Y-94424592D01*
X154980539Y-94207547D01*
X154977537Y-94196344D01*
X154977536Y-94196343D01*
X154977535Y-94196337D01*
X154877667Y-93982171D01*
X154860381Y-93957483D01*
X154742126Y-93788597D01*
X154575034Y-93621506D01*
X154575028Y-93621501D01*
X154389474Y-93491575D01*
X154345849Y-93436998D01*
X154338655Y-93367500D01*
X154370178Y-93305145D01*
X154389474Y-93288425D01*
X154429259Y-93260567D01*
X154575033Y-93158495D01*
X154742127Y-92991401D01*
X154877667Y-92797830D01*
X154977535Y-92583663D01*
X155038695Y-92355408D01*
X155059291Y-92120000D01*
X155057728Y-92102135D01*
X156653132Y-92102135D01*
X156653132Y-93897870D01*
X156653133Y-93897876D01*
X156659540Y-93957483D01*
X156709834Y-94092328D01*
X156709838Y-94092335D01*
X156796084Y-94207544D01*
X156796087Y-94207547D01*
X156911296Y-94293793D01*
X156911303Y-94293797D01*
X156911306Y-94293798D01*
X157043230Y-94343002D01*
X157099163Y-94384873D01*
X157123581Y-94450337D01*
X157108730Y-94518610D01*
X157087579Y-94546865D01*
X156965518Y-94668926D01*
X156830032Y-94862420D01*
X156830031Y-94862422D01*
X156730202Y-95076507D01*
X156730199Y-95076513D01*
X156672996Y-95289999D01*
X156672996Y-95290000D01*
X157570620Y-95290000D01*
X157537707Y-95347007D01*
X157503632Y-95474174D01*
X157503632Y-95605826D01*
X157537707Y-95732993D01*
X157570620Y-95790000D01*
X156672996Y-95790000D01*
X156730199Y-96003486D01*
X156730202Y-96003492D01*
X156830031Y-96217578D01*
X156965526Y-96411082D01*
X157132549Y-96578105D01*
X157326053Y-96713600D01*
X157540139Y-96813429D01*
X157540148Y-96813433D01*
X157753632Y-96870634D01*
X157753632Y-95973012D01*
X157810639Y-96005925D01*
X157937806Y-96040000D01*
X158069458Y-96040000D01*
X158196625Y-96005925D01*
X158253632Y-95973012D01*
X158253632Y-96870633D01*
X158467115Y-96813433D01*
X158467124Y-96813429D01*
X158681210Y-96713600D01*
X158874714Y-96578105D01*
X159041737Y-96411082D01*
X159177232Y-96217578D01*
X159277061Y-96003492D01*
X159277064Y-96003486D01*
X159334268Y-95790000D01*
X158436644Y-95790000D01*
X158469557Y-95732993D01*
X158503632Y-95605826D01*
X158503632Y-95474174D01*
X158469557Y-95347007D01*
X158436644Y-95290000D01*
X159334268Y-95290000D01*
X159334267Y-95289999D01*
X159277064Y-95076513D01*
X159277061Y-95076507D01*
X159177232Y-94862422D01*
X159177231Y-94862420D01*
X159041745Y-94668926D01*
X159041740Y-94668920D01*
X158919685Y-94546865D01*
X158886200Y-94485542D01*
X158891184Y-94415850D01*
X158933056Y-94359917D01*
X158964032Y-94343002D01*
X159095963Y-94293796D01*
X159211178Y-94207546D01*
X159297428Y-94092331D01*
X159347723Y-93957483D01*
X159354132Y-93897873D01*
X159354131Y-92102128D01*
X159347723Y-92042517D01*
X159297428Y-91907669D01*
X159297427Y-91907668D01*
X159297425Y-91907664D01*
X159211179Y-91792455D01*
X159211176Y-91792452D01*
X159095967Y-91706206D01*
X159095960Y-91706202D01*
X158961114Y-91655908D01*
X158961115Y-91655908D01*
X158901515Y-91649501D01*
X158901513Y-91649500D01*
X158901505Y-91649500D01*
X158901496Y-91649500D01*
X157105761Y-91649500D01*
X157105755Y-91649501D01*
X157046148Y-91655908D01*
X156911303Y-91706202D01*
X156911296Y-91706206D01*
X156796087Y-91792452D01*
X156796084Y-91792455D01*
X156709838Y-91907664D01*
X156709834Y-91907671D01*
X156659540Y-92042517D01*
X156653133Y-92102116D01*
X156653133Y-92102123D01*
X156653132Y-92102135D01*
X155057728Y-92102135D01*
X155057727Y-92102129D01*
X155040714Y-91907669D01*
X155038695Y-91884592D01*
X154977535Y-91656337D01*
X154877667Y-91442171D01*
X154742127Y-91248599D01*
X154742126Y-91248597D01*
X154575034Y-91081506D01*
X154575028Y-91081501D01*
X154389474Y-90951575D01*
X154345849Y-90896998D01*
X154338655Y-90827500D01*
X154370178Y-90765145D01*
X154389474Y-90748425D01*
X154429259Y-90720567D01*
X154575033Y-90618495D01*
X154742127Y-90451401D01*
X154877667Y-90257830D01*
X154977535Y-90043663D01*
X155038695Y-89815408D01*
X155059291Y-89580000D01*
X155038695Y-89344592D01*
X154977535Y-89116337D01*
X154877667Y-88902171D01*
X154809914Y-88805408D01*
X154742126Y-88708597D01*
X154575034Y-88541506D01*
X154575028Y-88541501D01*
X154389474Y-88411575D01*
X154345849Y-88356998D01*
X154338655Y-88287500D01*
X154370178Y-88225145D01*
X154389474Y-88208425D01*
X154429259Y-88180567D01*
X154575033Y-88078495D01*
X154742127Y-87911401D01*
X154877667Y-87717830D01*
X154977535Y-87503663D01*
X155038695Y-87275408D01*
X155059291Y-87040000D01*
X155038695Y-86804592D01*
X154977535Y-86576337D01*
X154877667Y-86362171D01*
X154809914Y-86265408D01*
X154742126Y-86168597D01*
X154603527Y-86029999D01*
X156644341Y-86029999D01*
X156644341Y-86030000D01*
X156664936Y-86265403D01*
X156664938Y-86265413D01*
X156726094Y-86493655D01*
X156726096Y-86493659D01*
X156726097Y-86493663D01*
X156764648Y-86576335D01*
X156825965Y-86707830D01*
X156825967Y-86707834D01*
X156961501Y-86901395D01*
X156961506Y-86901402D01*
X157128597Y-87068493D01*
X157128603Y-87068498D01*
X157314158Y-87198425D01*
X157357783Y-87253002D01*
X157364977Y-87322500D01*
X157333454Y-87384855D01*
X157314158Y-87401575D01*
X157128597Y-87531505D01*
X156961505Y-87698597D01*
X156825965Y-87892169D01*
X156825964Y-87892171D01*
X156726098Y-88106335D01*
X156726094Y-88106344D01*
X156664938Y-88334586D01*
X156664936Y-88334596D01*
X156644341Y-88569999D01*
X156644341Y-88570000D01*
X156664936Y-88805403D01*
X156664938Y-88805413D01*
X156726094Y-89033655D01*
X156726096Y-89033659D01*
X156726097Y-89033663D01*
X156764648Y-89116335D01*
X156825965Y-89247830D01*
X156825967Y-89247834D01*
X156906827Y-89363313D01*
X156961505Y-89441401D01*
X157128599Y-89608495D01*
X157225384Y-89676265D01*
X157322165Y-89744032D01*
X157322167Y-89744033D01*
X157322170Y-89744035D01*
X157536337Y-89843903D01*
X157764592Y-89905063D01*
X157952918Y-89921539D01*
X157999999Y-89925659D01*
X158000000Y-89925659D01*
X158000001Y-89925659D01*
X158039234Y-89922226D01*
X158235408Y-89905063D01*
X158463663Y-89843903D01*
X158677830Y-89744035D01*
X158871401Y-89608495D01*
X159038495Y-89441401D01*
X159174035Y-89247830D01*
X159273903Y-89033663D01*
X159335063Y-88805408D01*
X159355659Y-88570000D01*
X159335063Y-88334592D01*
X159273903Y-88106337D01*
X159174035Y-87892171D01*
X159171914Y-87889141D01*
X159038494Y-87698597D01*
X158871402Y-87531506D01*
X158871396Y-87531501D01*
X158685842Y-87401575D01*
X158642217Y-87346998D01*
X158635023Y-87277500D01*
X158666546Y-87215145D01*
X158685842Y-87198425D01*
X158708026Y-87182891D01*
X158871401Y-87068495D01*
X159038495Y-86901401D01*
X159174035Y-86707830D01*
X159273903Y-86493663D01*
X159335063Y-86265408D01*
X159355659Y-86030000D01*
X159335063Y-85794592D01*
X159273903Y-85566337D01*
X159174035Y-85352171D01*
X159171913Y-85349141D01*
X159038496Y-85158600D01*
X159038495Y-85158599D01*
X158916179Y-85036283D01*
X158882696Y-84974963D01*
X158887680Y-84905271D01*
X158929551Y-84849337D01*
X158960529Y-84832422D01*
X159092086Y-84783354D01*
X159092093Y-84783350D01*
X159207187Y-84697190D01*
X159207190Y-84697187D01*
X159293350Y-84582093D01*
X159293354Y-84582086D01*
X159343596Y-84447379D01*
X159343598Y-84447372D01*
X159349999Y-84387844D01*
X159350000Y-84387827D01*
X159350000Y-83740000D01*
X158433012Y-83740000D01*
X158465925Y-83682993D01*
X158500000Y-83555826D01*
X158500000Y-83424174D01*
X158465925Y-83297007D01*
X158433012Y-83240000D01*
X159350000Y-83240000D01*
X159350000Y-82592172D01*
X159349999Y-82592155D01*
X159343598Y-82532627D01*
X159343596Y-82532620D01*
X159293354Y-82397913D01*
X159293350Y-82397906D01*
X159207190Y-82282812D01*
X159207187Y-82282809D01*
X159092093Y-82196649D01*
X159092086Y-82196645D01*
X158957379Y-82146403D01*
X158957372Y-82146401D01*
X158897844Y-82140000D01*
X158250000Y-82140000D01*
X158250000Y-83056988D01*
X158192993Y-83024075D01*
X158065826Y-82990000D01*
X157934174Y-82990000D01*
X157807007Y-83024075D01*
X157750000Y-83056988D01*
X157750000Y-82140000D01*
X157102155Y-82140000D01*
X157042627Y-82146401D01*
X157042620Y-82146403D01*
X156907913Y-82196645D01*
X156907906Y-82196649D01*
X156792812Y-82282809D01*
X156792809Y-82282812D01*
X156706649Y-82397906D01*
X156706645Y-82397913D01*
X156656403Y-82532620D01*
X156656401Y-82532627D01*
X156650000Y-82592155D01*
X156650000Y-83240000D01*
X157566988Y-83240000D01*
X157534075Y-83297007D01*
X157500000Y-83424174D01*
X157500000Y-83555826D01*
X157534075Y-83682993D01*
X157566988Y-83740000D01*
X156650000Y-83740000D01*
X156650000Y-84387844D01*
X156656401Y-84447372D01*
X156656403Y-84447379D01*
X156706645Y-84582086D01*
X156706649Y-84582093D01*
X156792809Y-84697187D01*
X156792812Y-84697190D01*
X156907906Y-84783350D01*
X156907913Y-84783354D01*
X157039470Y-84832421D01*
X157095403Y-84874292D01*
X157119821Y-84939756D01*
X157104970Y-85008029D01*
X157083819Y-85036284D01*
X156961503Y-85158600D01*
X156825965Y-85352169D01*
X156825964Y-85352171D01*
X156726098Y-85566335D01*
X156726094Y-85566344D01*
X156664938Y-85794586D01*
X156664936Y-85794596D01*
X156644341Y-86029999D01*
X154603527Y-86029999D01*
X154575034Y-86001506D01*
X154575028Y-86001501D01*
X154389474Y-85871575D01*
X154345849Y-85816998D01*
X154338655Y-85747500D01*
X154370178Y-85685145D01*
X154389474Y-85668425D01*
X154429259Y-85640567D01*
X154575033Y-85538495D01*
X154742127Y-85371401D01*
X154877667Y-85177830D01*
X154977535Y-84963663D01*
X155038695Y-84735408D01*
X155059291Y-84500000D01*
X155038695Y-84264592D01*
X154977535Y-84036337D01*
X154877667Y-83822171D01*
X154820131Y-83740000D01*
X154742126Y-83628597D01*
X154575034Y-83461506D01*
X154575028Y-83461501D01*
X154389474Y-83331575D01*
X154345849Y-83276998D01*
X154338655Y-83207500D01*
X154370178Y-83145145D01*
X154389474Y-83128425D01*
X154444492Y-83089901D01*
X154575033Y-82998495D01*
X154742127Y-82831401D01*
X154877667Y-82637830D01*
X154977535Y-82423663D01*
X155038695Y-82195408D01*
X155059291Y-81960000D01*
X155038695Y-81724592D01*
X154977535Y-81496337D01*
X154877667Y-81282171D01*
X154742127Y-81088599D01*
X154742126Y-81088597D01*
X154575034Y-80921506D01*
X154575028Y-80921501D01*
X154389474Y-80791575D01*
X154345849Y-80736998D01*
X154338655Y-80667500D01*
X154370178Y-80605145D01*
X154389474Y-80588425D01*
X154429259Y-80560567D01*
X154575033Y-80458495D01*
X154742127Y-80291401D01*
X154877667Y-80097830D01*
X154977535Y-79883663D01*
X155038695Y-79655408D01*
X155059291Y-79420000D01*
X155038695Y-79184592D01*
X154977535Y-78956337D01*
X154877667Y-78742171D01*
X154772058Y-78591344D01*
X154742126Y-78548597D01*
X154575034Y-78381506D01*
X154575028Y-78381501D01*
X154389474Y-78251575D01*
X154345849Y-78196998D01*
X154338655Y-78127500D01*
X154370178Y-78065145D01*
X154389474Y-78048425D01*
X154435066Y-78016501D01*
X154575033Y-77918495D01*
X154742127Y-77751401D01*
X154877667Y-77557830D01*
X154977535Y-77343663D01*
X155038695Y-77115408D01*
X155059291Y-76880000D01*
X155038695Y-76644592D01*
X155003971Y-76514999D01*
X156644341Y-76514999D01*
X156644341Y-76515000D01*
X156664936Y-76750403D01*
X156664938Y-76750413D01*
X156726094Y-76978655D01*
X156726096Y-76978659D01*
X156726097Y-76978663D01*
X156825965Y-77192830D01*
X156825967Y-77192834D01*
X156961501Y-77386395D01*
X156961506Y-77386402D01*
X157128597Y-77553493D01*
X157128603Y-77553498D01*
X157314158Y-77683425D01*
X157357783Y-77738002D01*
X157364977Y-77807500D01*
X157333454Y-77869855D01*
X157314158Y-77886575D01*
X157128597Y-78016505D01*
X156961505Y-78183597D01*
X156825965Y-78377169D01*
X156825964Y-78377171D01*
X156726098Y-78591335D01*
X156726094Y-78591344D01*
X156664938Y-78819586D01*
X156664936Y-78819596D01*
X156644341Y-79054999D01*
X156644341Y-79055000D01*
X156664936Y-79290403D01*
X156664938Y-79290413D01*
X156726094Y-79518655D01*
X156726096Y-79518659D01*
X156726097Y-79518663D01*
X156825965Y-79732830D01*
X156825967Y-79732834D01*
X156931580Y-79883664D01*
X156961505Y-79926401D01*
X157128599Y-80093495D01*
X157134796Y-80097834D01*
X157322165Y-80229032D01*
X157322167Y-80229033D01*
X157322170Y-80229035D01*
X157536337Y-80328903D01*
X157764592Y-80390063D01*
X157952918Y-80406539D01*
X157999999Y-80410659D01*
X158000000Y-80410659D01*
X158000001Y-80410659D01*
X158039234Y-80407226D01*
X158235408Y-80390063D01*
X158463663Y-80328903D01*
X158677830Y-80229035D01*
X158871401Y-80093495D01*
X159038495Y-79926401D01*
X159174035Y-79732830D01*
X159273903Y-79518663D01*
X159335063Y-79290408D01*
X159355659Y-79055000D01*
X159335063Y-78819592D01*
X159273903Y-78591337D01*
X159174035Y-78377171D01*
X159100662Y-78272382D01*
X159038494Y-78183597D01*
X158871402Y-78016506D01*
X158871396Y-78016501D01*
X158685842Y-77886575D01*
X158642217Y-77831998D01*
X158635023Y-77762500D01*
X158666546Y-77700145D01*
X158685842Y-77683425D01*
X158865204Y-77557834D01*
X158871401Y-77553495D01*
X159038495Y-77386401D01*
X159174035Y-77192830D01*
X159273903Y-76978663D01*
X159335063Y-76750408D01*
X159355659Y-76515000D01*
X159335063Y-76279592D01*
X159273903Y-76051337D01*
X159174035Y-75837171D01*
X159100661Y-75732382D01*
X159038496Y-75643600D01*
X158982396Y-75587500D01*
X158916179Y-75521283D01*
X158882696Y-75459963D01*
X158887680Y-75390271D01*
X158929551Y-75334337D01*
X158960529Y-75317422D01*
X159092086Y-75268354D01*
X159092093Y-75268350D01*
X159207187Y-75182190D01*
X159207190Y-75182187D01*
X159293350Y-75067093D01*
X159293354Y-75067086D01*
X159343596Y-74932379D01*
X159343598Y-74932372D01*
X159349999Y-74872844D01*
X159350000Y-74872827D01*
X159350000Y-74225000D01*
X158433012Y-74225000D01*
X158465925Y-74167993D01*
X158500000Y-74040826D01*
X158500000Y-73909174D01*
X158465925Y-73782007D01*
X158433012Y-73725000D01*
X159350000Y-73725000D01*
X159350000Y-73077172D01*
X159349999Y-73077155D01*
X159343598Y-73017627D01*
X159343596Y-73017620D01*
X159293354Y-72882913D01*
X159293350Y-72882906D01*
X159207190Y-72767812D01*
X159207187Y-72767809D01*
X159092093Y-72681649D01*
X159092086Y-72681645D01*
X158957379Y-72631403D01*
X158957372Y-72631401D01*
X158897844Y-72625000D01*
X158250000Y-72625000D01*
X158250000Y-73541988D01*
X158192993Y-73509075D01*
X158065826Y-73475000D01*
X157934174Y-73475000D01*
X157807007Y-73509075D01*
X157750000Y-73541988D01*
X157750000Y-72625000D01*
X157102155Y-72625000D01*
X157042627Y-72631401D01*
X157042620Y-72631403D01*
X156907913Y-72681645D01*
X156907906Y-72681649D01*
X156792812Y-72767809D01*
X156792809Y-72767812D01*
X156706649Y-72882906D01*
X156706645Y-72882913D01*
X156656403Y-73017620D01*
X156656401Y-73017627D01*
X156650000Y-73077155D01*
X156650000Y-73725000D01*
X157566988Y-73725000D01*
X157534075Y-73782007D01*
X157500000Y-73909174D01*
X157500000Y-74040826D01*
X157534075Y-74167993D01*
X157566988Y-74225000D01*
X156650000Y-74225000D01*
X156650000Y-74872844D01*
X156656401Y-74932372D01*
X156656403Y-74932379D01*
X156706645Y-75067086D01*
X156706649Y-75067093D01*
X156792809Y-75182187D01*
X156792812Y-75182190D01*
X156907906Y-75268350D01*
X156907913Y-75268354D01*
X157039470Y-75317421D01*
X157095403Y-75359292D01*
X157119821Y-75424756D01*
X157104970Y-75493029D01*
X157083819Y-75521284D01*
X156961503Y-75643600D01*
X156825965Y-75837169D01*
X156825964Y-75837171D01*
X156726098Y-76051335D01*
X156726094Y-76051344D01*
X156664938Y-76279586D01*
X156664936Y-76279596D01*
X156644341Y-76514999D01*
X155003971Y-76514999D01*
X154977535Y-76416337D01*
X154877667Y-76202171D01*
X154772058Y-76051344D01*
X154742126Y-76008597D01*
X154575034Y-75841506D01*
X154575028Y-75841501D01*
X154389474Y-75711575D01*
X154345849Y-75656998D01*
X154338655Y-75587500D01*
X154370178Y-75525145D01*
X154389474Y-75508425D01*
X154458685Y-75459963D01*
X154575033Y-75378495D01*
X154742127Y-75211401D01*
X154877667Y-75017830D01*
X154977535Y-74803663D01*
X155038695Y-74575408D01*
X155059291Y-74340000D01*
X155038695Y-74104592D01*
X154977535Y-73876337D01*
X154877667Y-73662171D01*
X154816561Y-73574901D01*
X154742126Y-73468597D01*
X154575034Y-73301506D01*
X154575028Y-73301501D01*
X154389474Y-73171575D01*
X154345849Y-73116998D01*
X154338655Y-73047500D01*
X154370178Y-72985145D01*
X154389474Y-72968425D01*
X154429259Y-72940567D01*
X154575033Y-72838495D01*
X154742127Y-72671401D01*
X154877667Y-72477830D01*
X154977535Y-72263663D01*
X155038695Y-72035408D01*
X155059291Y-71800000D01*
X155038695Y-71564592D01*
X154977535Y-71336337D01*
X154877667Y-71122171D01*
X154742127Y-70928599D01*
X154742126Y-70928597D01*
X154575034Y-70761506D01*
X154575028Y-70761501D01*
X154389474Y-70631575D01*
X154345849Y-70576998D01*
X154338655Y-70507500D01*
X154370178Y-70445145D01*
X154389474Y-70428425D01*
X154489347Y-70358493D01*
X154575033Y-70298495D01*
X154742127Y-70131401D01*
X154877667Y-69937830D01*
X154977535Y-69723663D01*
X155038695Y-69495408D01*
X155059291Y-69260000D01*
X155038695Y-69024592D01*
X154977535Y-68796337D01*
X154877667Y-68582171D01*
X154784140Y-68448599D01*
X154742126Y-68388597D01*
X154575034Y-68221506D01*
X154575028Y-68221501D01*
X154389474Y-68091575D01*
X154345849Y-68036998D01*
X154338655Y-67967500D01*
X154370178Y-67905145D01*
X154389474Y-67888425D01*
X154489347Y-67818493D01*
X154575033Y-67758495D01*
X154742127Y-67591401D01*
X154877667Y-67397830D01*
X154977535Y-67183663D01*
X155038695Y-66955408D01*
X155059291Y-66720000D01*
X155038695Y-66484592D01*
X154977535Y-66256337D01*
X154877667Y-66042171D01*
X154784140Y-65908599D01*
X154742126Y-65848597D01*
X154575034Y-65681506D01*
X154575033Y-65681505D01*
X154389037Y-65551269D01*
X154345413Y-65496692D01*
X154338220Y-65427193D01*
X154369742Y-65364839D01*
X154389037Y-65348119D01*
X154574714Y-65218105D01*
X154741737Y-65051082D01*
X154877232Y-64857578D01*
X154977061Y-64643492D01*
X154977064Y-64643486D01*
X155034268Y-64430000D01*
X154136644Y-64430000D01*
X154169557Y-64372993D01*
X154203632Y-64245826D01*
X154203632Y-64239999D01*
X156644341Y-64239999D01*
X156644341Y-64240000D01*
X156664936Y-64475403D01*
X156664938Y-64475413D01*
X156726094Y-64703655D01*
X156726096Y-64703659D01*
X156726097Y-64703663D01*
X156797988Y-64857834D01*
X156825965Y-64917830D01*
X156825967Y-64917834D01*
X156961501Y-65111395D01*
X156961506Y-65111402D01*
X157128597Y-65278493D01*
X157128603Y-65278498D01*
X157314158Y-65408425D01*
X157357783Y-65463002D01*
X157364977Y-65532500D01*
X157333454Y-65594855D01*
X157314158Y-65611575D01*
X157128597Y-65741505D01*
X156961505Y-65908597D01*
X156825965Y-66102169D01*
X156825964Y-66102171D01*
X156726098Y-66316335D01*
X156726094Y-66316344D01*
X156664938Y-66544586D01*
X156664936Y-66544596D01*
X156644341Y-66779999D01*
X156644341Y-66780000D01*
X156664936Y-67015403D01*
X156664938Y-67015413D01*
X156726094Y-67243655D01*
X156726096Y-67243659D01*
X156726097Y-67243663D01*
X156797988Y-67397834D01*
X156825965Y-67457830D01*
X156825967Y-67457834D01*
X156961501Y-67651395D01*
X156961506Y-67651402D01*
X157128597Y-67818493D01*
X157128603Y-67818498D01*
X157314158Y-67948425D01*
X157357783Y-68003002D01*
X157364977Y-68072500D01*
X157333454Y-68134855D01*
X157314158Y-68151575D01*
X157128597Y-68281505D01*
X156961505Y-68448597D01*
X156825965Y-68642169D01*
X156825964Y-68642171D01*
X156726098Y-68856335D01*
X156726094Y-68856344D01*
X156664938Y-69084586D01*
X156664936Y-69084596D01*
X156644341Y-69319999D01*
X156644341Y-69320000D01*
X156664936Y-69555403D01*
X156664938Y-69555413D01*
X156726094Y-69783655D01*
X156726096Y-69783659D01*
X156726097Y-69783663D01*
X156797988Y-69937834D01*
X156825965Y-69997830D01*
X156825967Y-69997834D01*
X156919493Y-70131402D01*
X156961505Y-70191401D01*
X157128599Y-70358495D01*
X157225384Y-70426265D01*
X157322165Y-70494032D01*
X157322167Y-70494033D01*
X157322170Y-70494035D01*
X157536337Y-70593903D01*
X157764592Y-70655063D01*
X157952918Y-70671539D01*
X157999999Y-70675659D01*
X158000000Y-70675659D01*
X158000001Y-70675659D01*
X158039234Y-70672226D01*
X158235408Y-70655063D01*
X158463663Y-70593903D01*
X158677830Y-70494035D01*
X158871401Y-70358495D01*
X159038495Y-70191401D01*
X159174035Y-69997830D01*
X159273903Y-69783663D01*
X159335063Y-69555408D01*
X159355659Y-69320000D01*
X159335063Y-69084592D01*
X159288626Y-68911285D01*
X159273905Y-68856344D01*
X159273904Y-68856343D01*
X159273903Y-68856337D01*
X159174035Y-68642171D01*
X159156773Y-68617517D01*
X159038494Y-68448597D01*
X158871402Y-68281506D01*
X158871396Y-68281501D01*
X158685842Y-68151575D01*
X158642217Y-68096998D01*
X158635023Y-68027500D01*
X158666546Y-67965145D01*
X158685842Y-67948425D01*
X158771095Y-67888730D01*
X158871401Y-67818495D01*
X159038495Y-67651401D01*
X159174035Y-67457830D01*
X159273903Y-67243663D01*
X159335063Y-67015408D01*
X159355659Y-66780000D01*
X159335063Y-66544592D01*
X159273903Y-66316337D01*
X159174035Y-66102171D01*
X159156598Y-66077267D01*
X159038494Y-65908597D01*
X158871402Y-65741506D01*
X158871396Y-65741501D01*
X158685842Y-65611575D01*
X158642217Y-65556998D01*
X158635023Y-65487500D01*
X158666546Y-65425145D01*
X158685842Y-65408425D01*
X158763519Y-65354035D01*
X158871401Y-65278495D01*
X159038495Y-65111401D01*
X159174035Y-64917830D01*
X159273903Y-64703663D01*
X159335063Y-64475408D01*
X159355659Y-64240000D01*
X159335063Y-64004592D01*
X159288626Y-63831285D01*
X159273905Y-63776344D01*
X159273904Y-63776343D01*
X159273903Y-63776337D01*
X159174035Y-63562171D01*
X159156772Y-63537517D01*
X159038496Y-63368600D01*
X158978495Y-63308599D01*
X158916179Y-63246283D01*
X158882696Y-63184963D01*
X158887680Y-63115271D01*
X158929551Y-63059337D01*
X158960529Y-63042422D01*
X159092086Y-62993354D01*
X159092093Y-62993350D01*
X159207187Y-62907190D01*
X159207190Y-62907187D01*
X159293350Y-62792093D01*
X159293354Y-62792086D01*
X159343596Y-62657379D01*
X159343598Y-62657372D01*
X159349999Y-62597844D01*
X159350000Y-62597827D01*
X159350000Y-61950000D01*
X158433012Y-61950000D01*
X158465925Y-61892993D01*
X158500000Y-61765826D01*
X158500000Y-61634174D01*
X158465925Y-61507007D01*
X158433012Y-61450000D01*
X159350000Y-61450000D01*
X159350000Y-60802172D01*
X159349999Y-60802155D01*
X159343598Y-60742627D01*
X159343596Y-60742620D01*
X159293354Y-60607913D01*
X159293350Y-60607906D01*
X159207190Y-60492812D01*
X159207187Y-60492809D01*
X159092093Y-60406649D01*
X159092086Y-60406645D01*
X158957379Y-60356403D01*
X158957372Y-60356401D01*
X158897844Y-60350000D01*
X158250000Y-60350000D01*
X158250000Y-61266988D01*
X158192993Y-61234075D01*
X158065826Y-61200000D01*
X157934174Y-61200000D01*
X157807007Y-61234075D01*
X157750000Y-61266988D01*
X157750000Y-60350000D01*
X157102155Y-60350000D01*
X157042627Y-60356401D01*
X157042620Y-60356403D01*
X156907913Y-60406645D01*
X156907906Y-60406649D01*
X156792812Y-60492809D01*
X156792809Y-60492812D01*
X156706649Y-60607906D01*
X156706645Y-60607913D01*
X156656403Y-60742620D01*
X156656401Y-60742627D01*
X156650000Y-60802155D01*
X156650000Y-61450000D01*
X157566988Y-61450000D01*
X157534075Y-61507007D01*
X157500000Y-61634174D01*
X157500000Y-61765826D01*
X157534075Y-61892993D01*
X157566988Y-61950000D01*
X156650000Y-61950000D01*
X156650000Y-62597844D01*
X156656401Y-62657372D01*
X156656403Y-62657379D01*
X156706645Y-62792086D01*
X156706649Y-62792093D01*
X156792809Y-62907187D01*
X156792812Y-62907190D01*
X156907906Y-62993350D01*
X156907913Y-62993354D01*
X157039470Y-63042421D01*
X157095403Y-63084292D01*
X157119821Y-63149756D01*
X157104970Y-63218029D01*
X157083819Y-63246284D01*
X156961503Y-63368600D01*
X156825965Y-63562169D01*
X156825964Y-63562171D01*
X156726098Y-63776335D01*
X156726094Y-63776344D01*
X156664938Y-64004586D01*
X156664936Y-64004596D01*
X156644341Y-64239999D01*
X154203632Y-64239999D01*
X154203632Y-64114174D01*
X154169557Y-63987007D01*
X154136644Y-63930000D01*
X155034268Y-63930000D01*
X155034267Y-63929999D01*
X154977064Y-63716513D01*
X154977061Y-63716507D01*
X154877232Y-63502422D01*
X154877231Y-63502420D01*
X154741745Y-63308926D01*
X154741740Y-63308920D01*
X154574710Y-63141890D01*
X154389037Y-63011879D01*
X154345412Y-62957302D01*
X154338220Y-62887804D01*
X154369742Y-62825449D01*
X154389038Y-62808730D01*
X154575033Y-62678495D01*
X154742127Y-62511401D01*
X154877667Y-62317830D01*
X154977535Y-62103663D01*
X155038695Y-61875408D01*
X155059291Y-61640000D01*
X155038695Y-61404592D01*
X154977535Y-61176337D01*
X154877667Y-60962171D01*
X154765605Y-60802128D01*
X154742126Y-60768597D01*
X154575034Y-60601506D01*
X154575027Y-60601501D01*
X154381466Y-60465967D01*
X154381462Y-60465965D01*
X154381460Y-60465964D01*
X154167295Y-60366097D01*
X154167291Y-60366096D01*
X154167287Y-60366094D01*
X153939045Y-60304938D01*
X153939035Y-60304936D01*
X153703633Y-60284341D01*
X153703631Y-60284341D01*
X153468228Y-60304936D01*
X153468218Y-60304938D01*
X153239976Y-60366094D01*
X153239967Y-60366098D01*
X153025803Y-60465964D01*
X153025801Y-60465965D01*
X152832229Y-60601505D01*
X152665137Y-60768597D01*
X152529597Y-60962169D01*
X152529596Y-60962171D01*
X152429730Y-61176335D01*
X152429726Y-61176344D01*
X152368570Y-61404586D01*
X152368568Y-61404596D01*
X152347973Y-61639999D01*
X150834593Y-61639999D01*
X150834083Y-61634174D01*
X150815635Y-61423313D01*
X150815635Y-61423308D01*
X150756739Y-61203504D01*
X150660568Y-60997266D01*
X150530047Y-60810861D01*
X150530045Y-60810858D01*
X150369141Y-60649954D01*
X150182734Y-60519432D01*
X150182732Y-60519431D01*
X149976497Y-60423261D01*
X149976488Y-60423258D01*
X149756697Y-60364366D01*
X149756693Y-60364365D01*
X149756692Y-60364365D01*
X149756691Y-60364364D01*
X149756686Y-60364364D01*
X149530002Y-60344532D01*
X149529998Y-60344532D01*
X149303313Y-60364364D01*
X149303302Y-60364366D01*
X149083511Y-60423258D01*
X149083502Y-60423261D01*
X148877267Y-60519431D01*
X148877265Y-60519432D01*
X148690858Y-60649954D01*
X148529954Y-60810858D01*
X148399432Y-60997265D01*
X148399431Y-60997267D01*
X148303261Y-61203502D01*
X148303258Y-61203511D01*
X148244366Y-61423302D01*
X148244364Y-61423313D01*
X148224532Y-61649998D01*
X135590499Y-61649998D01*
X135590499Y-60802128D01*
X135584091Y-60742517D01*
X135583946Y-60742129D01*
X135533797Y-60607671D01*
X135533793Y-60607664D01*
X135447547Y-60492455D01*
X135447544Y-60492452D01*
X135332335Y-60406206D01*
X135332328Y-60406202D01*
X135197482Y-60355908D01*
X135197483Y-60355908D01*
X135137883Y-60349501D01*
X135137881Y-60349500D01*
X135137873Y-60349500D01*
X135137864Y-60349500D01*
X133442129Y-60349500D01*
X133442123Y-60349501D01*
X133382516Y-60355908D01*
X133247671Y-60406202D01*
X133247664Y-60406206D01*
X133132455Y-60492452D01*
X133132452Y-60492455D01*
X133046206Y-60607664D01*
X133046202Y-60607671D01*
X132995908Y-60742517D01*
X132989501Y-60802116D01*
X132989501Y-60802123D01*
X132989500Y-60802135D01*
X132989500Y-62497870D01*
X132989501Y-62497876D01*
X132995908Y-62557483D01*
X133046202Y-62692328D01*
X133046206Y-62692335D01*
X133132452Y-62807544D01*
X133132455Y-62807547D01*
X133247664Y-62893793D01*
X133247671Y-62893797D01*
X133283572Y-62907187D01*
X133382517Y-62944091D01*
X133417596Y-62947862D01*
X133482144Y-62974599D01*
X133521993Y-63031991D01*
X133524488Y-63101816D01*
X133488836Y-63161905D01*
X133475464Y-63172725D01*
X133450858Y-63189954D01*
X133289954Y-63350858D01*
X133159432Y-63537265D01*
X133159431Y-63537267D01*
X133063261Y-63743502D01*
X133063258Y-63743511D01*
X133004366Y-63963302D01*
X133004364Y-63963313D01*
X132984532Y-64189998D01*
X131354784Y-64189998D01*
X131355659Y-64180000D01*
X131335063Y-63944592D01*
X131273903Y-63716337D01*
X131174035Y-63502171D01*
X131080507Y-63368599D01*
X131038496Y-63308600D01*
X131038495Y-63308599D01*
X130916567Y-63186671D01*
X130883084Y-63125351D01*
X130888068Y-63055659D01*
X130929939Y-62999725D01*
X130960915Y-62982810D01*
X131092331Y-62933796D01*
X131207546Y-62847546D01*
X131293796Y-62732331D01*
X131344091Y-62597483D01*
X131350500Y-62537873D01*
X131350499Y-60742128D01*
X131344091Y-60682517D01*
X131331945Y-60649953D01*
X131293797Y-60547671D01*
X131293793Y-60547664D01*
X131207547Y-60432455D01*
X131207544Y-60432452D01*
X131092335Y-60346206D01*
X131092328Y-60346202D01*
X130957482Y-60295908D01*
X130957483Y-60295908D01*
X130897883Y-60289501D01*
X130897881Y-60289500D01*
X130897873Y-60289500D01*
X130897864Y-60289500D01*
X129102129Y-60289500D01*
X129102123Y-60289501D01*
X129042516Y-60295908D01*
X128907671Y-60346202D01*
X128907664Y-60346206D01*
X128792455Y-60432452D01*
X128792452Y-60432455D01*
X128706206Y-60547664D01*
X128706202Y-60547671D01*
X128655908Y-60682517D01*
X128649501Y-60742116D01*
X128649501Y-60742123D01*
X128649500Y-60742135D01*
X128649500Y-62537870D01*
X128649501Y-62537876D01*
X128655908Y-62597483D01*
X128706202Y-62732328D01*
X128706206Y-62732335D01*
X128792452Y-62847544D01*
X128792455Y-62847547D01*
X128907664Y-62933793D01*
X128907671Y-62933797D01*
X129039081Y-62982810D01*
X129095015Y-63024681D01*
X129119432Y-63090145D01*
X129104580Y-63158418D01*
X129083430Y-63186673D01*
X128961503Y-63308600D01*
X128825965Y-63502169D01*
X128825964Y-63502171D01*
X128726098Y-63716335D01*
X128726094Y-63716344D01*
X128664938Y-63944586D01*
X128664936Y-63944596D01*
X128644341Y-64179999D01*
X127289398Y-64179999D01*
X127289398Y-59608790D01*
X127289568Y-59602300D01*
X127306068Y-59287471D01*
X127307425Y-59274563D01*
X127344944Y-59037677D01*
X127356236Y-58966383D01*
X127358931Y-58953703D01*
X127436430Y-58664473D01*
X127439691Y-58652301D01*
X127443697Y-58639974D01*
X127555516Y-58348673D01*
X127560786Y-58336835D01*
X127702458Y-58058789D01*
X127708924Y-58047591D01*
X127878881Y-57785880D01*
X127886483Y-57775416D01*
X128082867Y-57532901D01*
X128091534Y-57523276D01*
X128312175Y-57302635D01*
X128321800Y-57293968D01*
X128564307Y-57097591D01*
X128574792Y-57089974D01*
X128836481Y-56920030D01*
X128847696Y-56913555D01*
X129125739Y-56771884D01*
X129137560Y-56766621D01*
X129428883Y-56654792D01*
X129441192Y-56650793D01*
X129742622Y-56570025D01*
X129755275Y-56567336D01*
X130063463Y-56518524D01*
X130076367Y-56517168D01*
X130391167Y-56500669D01*
X130397657Y-56500500D01*
X130460341Y-56500500D01*
X164934108Y-56500500D01*
X164996754Y-56500500D01*
X165003243Y-56500669D01*
G37*
%TD.AperFunction*%
%TD*%
M02*
