%TF.GenerationSoftware,KiCad,Pcbnew,8.0.3*%
%TF.CreationDate,2024-09-18T17:44:19+02:00*%
%TF.ProjectId,pcb_robot,7063625f-726f-4626-9f74-2e6b69636164,rev?*%
%TF.SameCoordinates,Original*%
%TF.FileFunction,Legend,Top*%
%TF.FilePolarity,Positive*%
%FSLAX46Y46*%
G04 Gerber Fmt 4.6, Leading zero omitted, Abs format (unit mm)*
G04 Created by KiCad (PCBNEW 8.0.3) date 2024-09-18 17:44:19*
%MOMM*%
%LPD*%
G01*
G04 APERTURE LIST*
%ADD10C,0.100000*%
%ADD11C,0.150000*%
%ADD12C,0.120000*%
G04 APERTURE END LIST*
D10*
X130000000Y-105000000D02*
X163000000Y-105000000D01*
X163000000Y-111000000D01*
X130000000Y-111000000D01*
X130000000Y-105000000D01*
X153000000Y-98000000D02*
X168000000Y-98000000D01*
X168000000Y-105000000D01*
X153000000Y-105000000D01*
X153000000Y-98000000D01*
X156000000Y-59000000D02*
X168000000Y-59000000D01*
X168000000Y-98000000D01*
X156000000Y-98000000D01*
X156000000Y-59000000D01*
X164790789Y-108852657D02*
X165552693Y-108852657D01*
X166505074Y-107709800D02*
X165647932Y-108995514D01*
X167362218Y-108852657D02*
X168124122Y-108852657D01*
X143175200Y-76756265D02*
X143127580Y-76899122D01*
X143127580Y-76899122D02*
X143127580Y-77137217D01*
X143127580Y-77137217D02*
X143175200Y-77232455D01*
X143175200Y-77232455D02*
X143222819Y-77280074D01*
X143222819Y-77280074D02*
X143318057Y-77327693D01*
X143318057Y-77327693D02*
X143413295Y-77327693D01*
X143413295Y-77327693D02*
X143508533Y-77280074D01*
X143508533Y-77280074D02*
X143556152Y-77232455D01*
X143556152Y-77232455D02*
X143603771Y-77137217D01*
X143603771Y-77137217D02*
X143651390Y-76946741D01*
X143651390Y-76946741D02*
X143699009Y-76851503D01*
X143699009Y-76851503D02*
X143746628Y-76803884D01*
X143746628Y-76803884D02*
X143841866Y-76756265D01*
X143841866Y-76756265D02*
X143937104Y-76756265D01*
X143937104Y-76756265D02*
X144032342Y-76803884D01*
X144032342Y-76803884D02*
X144079961Y-76851503D01*
X144079961Y-76851503D02*
X144127580Y-76946741D01*
X144127580Y-76946741D02*
X144127580Y-77184836D01*
X144127580Y-77184836D02*
X144079961Y-77327693D01*
X144127580Y-77613408D02*
X144127580Y-78184836D01*
X143127580Y-77899122D02*
X144127580Y-77899122D01*
X143127580Y-78518170D02*
X144127580Y-78518170D01*
X144127580Y-78518170D02*
X143413295Y-78851503D01*
X143413295Y-78851503D02*
X144127580Y-79184836D01*
X144127580Y-79184836D02*
X143127580Y-79184836D01*
X144127580Y-79565789D02*
X144127580Y-80184836D01*
X144127580Y-80184836D02*
X143746628Y-79851503D01*
X143746628Y-79851503D02*
X143746628Y-79994360D01*
X143746628Y-79994360D02*
X143699009Y-80089598D01*
X143699009Y-80089598D02*
X143651390Y-80137217D01*
X143651390Y-80137217D02*
X143556152Y-80184836D01*
X143556152Y-80184836D02*
X143318057Y-80184836D01*
X143318057Y-80184836D02*
X143222819Y-80137217D01*
X143222819Y-80137217D02*
X143175200Y-80089598D01*
X143175200Y-80089598D02*
X143127580Y-79994360D01*
X143127580Y-79994360D02*
X143127580Y-79708646D01*
X143127580Y-79708646D02*
X143175200Y-79613408D01*
X143175200Y-79613408D02*
X143222819Y-79565789D01*
X144032342Y-80565789D02*
X144079961Y-80613408D01*
X144079961Y-80613408D02*
X144127580Y-80708646D01*
X144127580Y-80708646D02*
X144127580Y-80946741D01*
X144127580Y-80946741D02*
X144079961Y-81041979D01*
X144079961Y-81041979D02*
X144032342Y-81089598D01*
X144032342Y-81089598D02*
X143937104Y-81137217D01*
X143937104Y-81137217D02*
X143841866Y-81137217D01*
X143841866Y-81137217D02*
X143699009Y-81089598D01*
X143699009Y-81089598D02*
X143127580Y-80518170D01*
X143127580Y-80518170D02*
X143127580Y-81137217D01*
X143127580Y-82803884D02*
X143127580Y-82327694D01*
X143127580Y-82327694D02*
X144127580Y-82327694D01*
X143794247Y-83565789D02*
X143127580Y-83565789D01*
X144175200Y-83327694D02*
X143460914Y-83089599D01*
X143460914Y-83089599D02*
X143460914Y-83708646D01*
X144127580Y-83994361D02*
X144127580Y-84613408D01*
X144127580Y-84613408D02*
X143746628Y-84280075D01*
X143746628Y-84280075D02*
X143746628Y-84422932D01*
X143746628Y-84422932D02*
X143699009Y-84518170D01*
X143699009Y-84518170D02*
X143651390Y-84565789D01*
X143651390Y-84565789D02*
X143556152Y-84613408D01*
X143556152Y-84613408D02*
X143318057Y-84613408D01*
X143318057Y-84613408D02*
X143222819Y-84565789D01*
X143222819Y-84565789D02*
X143175200Y-84518170D01*
X143175200Y-84518170D02*
X143127580Y-84422932D01*
X143127580Y-84422932D02*
X143127580Y-84137218D01*
X143127580Y-84137218D02*
X143175200Y-84041980D01*
X143175200Y-84041980D02*
X143222819Y-83994361D01*
X144032342Y-84994361D02*
X144079961Y-85041980D01*
X144079961Y-85041980D02*
X144127580Y-85137218D01*
X144127580Y-85137218D02*
X144127580Y-85375313D01*
X144127580Y-85375313D02*
X144079961Y-85470551D01*
X144079961Y-85470551D02*
X144032342Y-85518170D01*
X144032342Y-85518170D02*
X143937104Y-85565789D01*
X143937104Y-85565789D02*
X143841866Y-85565789D01*
X143841866Y-85565789D02*
X143699009Y-85518170D01*
X143699009Y-85518170D02*
X143127580Y-84946742D01*
X143127580Y-84946742D02*
X143127580Y-85565789D01*
X143127580Y-85994361D02*
X144127580Y-85994361D01*
X143127580Y-86565789D02*
X143699009Y-86137218D01*
X144127580Y-86565789D02*
X143556152Y-85994361D01*
X143222819Y-87565789D02*
X143175200Y-87518170D01*
X143175200Y-87518170D02*
X143127580Y-87375313D01*
X143127580Y-87375313D02*
X143127580Y-87280075D01*
X143127580Y-87280075D02*
X143175200Y-87137218D01*
X143175200Y-87137218D02*
X143270438Y-87041980D01*
X143270438Y-87041980D02*
X143365676Y-86994361D01*
X143365676Y-86994361D02*
X143556152Y-86946742D01*
X143556152Y-86946742D02*
X143699009Y-86946742D01*
X143699009Y-86946742D02*
X143889485Y-86994361D01*
X143889485Y-86994361D02*
X143984723Y-87041980D01*
X143984723Y-87041980D02*
X144079961Y-87137218D01*
X144079961Y-87137218D02*
X144127580Y-87280075D01*
X144127580Y-87280075D02*
X144127580Y-87375313D01*
X144127580Y-87375313D02*
X144079961Y-87518170D01*
X144079961Y-87518170D02*
X144032342Y-87565789D01*
X166508533Y-62303884D02*
X166508533Y-63065789D01*
X166508533Y-65065789D02*
X166508533Y-65827694D01*
X166127580Y-65446741D02*
X166889485Y-65446741D01*
X166127580Y-68303884D02*
X166127580Y-67827694D01*
X166127580Y-67827694D02*
X167127580Y-67827694D01*
X166413295Y-70113409D02*
X166413295Y-70589599D01*
X166127580Y-70018171D02*
X167127580Y-70351504D01*
X167127580Y-70351504D02*
X166127580Y-70684837D01*
X141803884Y-61872419D02*
X141803884Y-60872419D01*
X141803884Y-61348609D02*
X142375312Y-61348609D01*
X142375312Y-61872419D02*
X142375312Y-60872419D01*
X142803884Y-61586704D02*
X143280074Y-61586704D01*
X142708646Y-61872419D02*
X143041979Y-60872419D01*
X143041979Y-60872419D02*
X143375312Y-61872419D01*
X143708646Y-60872419D02*
X143708646Y-61681942D01*
X143708646Y-61681942D02*
X143756265Y-61777180D01*
X143756265Y-61777180D02*
X143803884Y-61824800D01*
X143803884Y-61824800D02*
X143899122Y-61872419D01*
X143899122Y-61872419D02*
X144089598Y-61872419D01*
X144089598Y-61872419D02*
X144184836Y-61824800D01*
X144184836Y-61824800D02*
X144232455Y-61777180D01*
X144232455Y-61777180D02*
X144280074Y-61681942D01*
X144280074Y-61681942D02*
X144280074Y-60872419D01*
X144613408Y-60872419D02*
X145184836Y-60872419D01*
X144899122Y-61872419D02*
X144899122Y-60872419D01*
X155780074Y-99872419D02*
X155303884Y-99872419D01*
X155303884Y-99872419D02*
X155303884Y-98872419D01*
X156113408Y-99872419D02*
X156113408Y-98872419D01*
X156113408Y-98872419D02*
X156351503Y-98872419D01*
X156351503Y-98872419D02*
X156494360Y-98920038D01*
X156494360Y-98920038D02*
X156589598Y-99015276D01*
X156589598Y-99015276D02*
X156637217Y-99110514D01*
X156637217Y-99110514D02*
X156684836Y-99300990D01*
X156684836Y-99300990D02*
X156684836Y-99443847D01*
X156684836Y-99443847D02*
X156637217Y-99634323D01*
X156637217Y-99634323D02*
X156589598Y-99729561D01*
X156589598Y-99729561D02*
X156494360Y-99824800D01*
X156494360Y-99824800D02*
X156351503Y-99872419D01*
X156351503Y-99872419D02*
X156113408Y-99872419D01*
X157637217Y-99872419D02*
X157065789Y-99872419D01*
X157351503Y-99872419D02*
X157351503Y-98872419D01*
X157351503Y-98872419D02*
X157256265Y-99015276D01*
X157256265Y-99015276D02*
X157161027Y-99110514D01*
X157161027Y-99110514D02*
X157065789Y-99158133D01*
X160827694Y-99872419D02*
X160351504Y-99872419D01*
X160351504Y-99872419D02*
X160351504Y-98872419D01*
X161161028Y-99872419D02*
X161161028Y-98872419D01*
X161161028Y-98872419D02*
X161399123Y-98872419D01*
X161399123Y-98872419D02*
X161541980Y-98920038D01*
X161541980Y-98920038D02*
X161637218Y-99015276D01*
X161637218Y-99015276D02*
X161684837Y-99110514D01*
X161684837Y-99110514D02*
X161732456Y-99300990D01*
X161732456Y-99300990D02*
X161732456Y-99443847D01*
X161732456Y-99443847D02*
X161684837Y-99634323D01*
X161684837Y-99634323D02*
X161637218Y-99729561D01*
X161637218Y-99729561D02*
X161541980Y-99824800D01*
X161541980Y-99824800D02*
X161399123Y-99872419D01*
X161399123Y-99872419D02*
X161161028Y-99872419D01*
X162113409Y-98967657D02*
X162161028Y-98920038D01*
X162161028Y-98920038D02*
X162256266Y-98872419D01*
X162256266Y-98872419D02*
X162494361Y-98872419D01*
X162494361Y-98872419D02*
X162589599Y-98920038D01*
X162589599Y-98920038D02*
X162637218Y-98967657D01*
X162637218Y-98967657D02*
X162684837Y-99062895D01*
X162684837Y-99062895D02*
X162684837Y-99158133D01*
X162684837Y-99158133D02*
X162637218Y-99300990D01*
X162637218Y-99300990D02*
X162065790Y-99872419D01*
X162065790Y-99872419D02*
X162684837Y-99872419D01*
X162008533Y-94903884D02*
X162008533Y-95665789D01*
X166508533Y-84303884D02*
X166508533Y-85065789D01*
X166508533Y-87065789D02*
X166508533Y-87827694D01*
X166127580Y-87446741D02*
X166889485Y-87446741D01*
X166508533Y-89684837D02*
X166556152Y-89732456D01*
X166556152Y-89732456D02*
X166603771Y-89827694D01*
X166603771Y-89827694D02*
X166508533Y-90018170D01*
X166508533Y-90018170D02*
X166556152Y-90113408D01*
X166556152Y-90113408D02*
X166603771Y-90161027D01*
X141637217Y-102348609D02*
X141780074Y-102396228D01*
X141780074Y-102396228D02*
X141827693Y-102443847D01*
X141827693Y-102443847D02*
X141875312Y-102539085D01*
X141875312Y-102539085D02*
X141875312Y-102681942D01*
X141875312Y-102681942D02*
X141827693Y-102777180D01*
X141827693Y-102777180D02*
X141780074Y-102824800D01*
X141780074Y-102824800D02*
X141684836Y-102872419D01*
X141684836Y-102872419D02*
X141303884Y-102872419D01*
X141303884Y-102872419D02*
X141303884Y-101872419D01*
X141303884Y-101872419D02*
X141637217Y-101872419D01*
X141637217Y-101872419D02*
X141732455Y-101920038D01*
X141732455Y-101920038D02*
X141780074Y-101967657D01*
X141780074Y-101967657D02*
X141827693Y-102062895D01*
X141827693Y-102062895D02*
X141827693Y-102158133D01*
X141827693Y-102158133D02*
X141780074Y-102253371D01*
X141780074Y-102253371D02*
X141732455Y-102300990D01*
X141732455Y-102300990D02*
X141637217Y-102348609D01*
X141637217Y-102348609D02*
X141303884Y-102348609D01*
X142256265Y-102586704D02*
X142732455Y-102586704D01*
X142161027Y-102872419D02*
X142494360Y-101872419D01*
X142494360Y-101872419D02*
X142827693Y-102872419D01*
X143113408Y-102824800D02*
X143256265Y-102872419D01*
X143256265Y-102872419D02*
X143494360Y-102872419D01*
X143494360Y-102872419D02*
X143589598Y-102824800D01*
X143589598Y-102824800D02*
X143637217Y-102777180D01*
X143637217Y-102777180D02*
X143684836Y-102681942D01*
X143684836Y-102681942D02*
X143684836Y-102586704D01*
X143684836Y-102586704D02*
X143637217Y-102491466D01*
X143637217Y-102491466D02*
X143589598Y-102443847D01*
X143589598Y-102443847D02*
X143494360Y-102396228D01*
X143494360Y-102396228D02*
X143303884Y-102348609D01*
X143303884Y-102348609D02*
X143208646Y-102300990D01*
X143208646Y-102300990D02*
X143161027Y-102253371D01*
X143161027Y-102253371D02*
X143113408Y-102158133D01*
X143113408Y-102158133D02*
X143113408Y-102062895D01*
X143113408Y-102062895D02*
X143161027Y-101967657D01*
X143161027Y-101967657D02*
X143208646Y-101920038D01*
X143208646Y-101920038D02*
X143303884Y-101872419D01*
X143303884Y-101872419D02*
X143541979Y-101872419D01*
X143541979Y-101872419D02*
X143684836Y-101920038D01*
X136696115Y-105508533D02*
X135934211Y-105508533D01*
X136315163Y-105127580D02*
X136315163Y-105889485D01*
X134696115Y-105508533D02*
X133934211Y-105508533D01*
X166508533Y-74303884D02*
X166508533Y-75065789D01*
X166508533Y-77065789D02*
X166508533Y-77827694D01*
X166127580Y-77446741D02*
X166889485Y-77446741D01*
X166508533Y-79684837D02*
X166556152Y-79732456D01*
X166556152Y-79732456D02*
X166603771Y-79827694D01*
X166603771Y-79827694D02*
X166508533Y-80018170D01*
X166508533Y-80018170D02*
X166556152Y-80113408D01*
X166556152Y-80113408D02*
X166603771Y-80161027D01*
D11*
X147666666Y-107931009D02*
X147333333Y-107931009D01*
X147333333Y-108454819D02*
X147333333Y-107454819D01*
X147333333Y-107454819D02*
X147809523Y-107454819D01*
X148714285Y-108454819D02*
X148142857Y-108454819D01*
X148428571Y-108454819D02*
X148428571Y-107454819D01*
X148428571Y-107454819D02*
X148333333Y-107597676D01*
X148333333Y-107597676D02*
X148238095Y-107692914D01*
X148238095Y-107692914D02*
X148142857Y-107740533D01*
D12*
%TO.C,J7*%
X156730000Y-60430000D02*
X158000000Y-60430000D01*
X156730000Y-61700000D02*
X156730000Y-60430000D01*
X159042929Y-63860000D02*
X159440000Y-63860000D01*
X159042929Y-64620000D02*
X159440000Y-64620000D01*
X159042929Y-66400000D02*
X159440000Y-66400000D01*
X159042929Y-67160000D02*
X159440000Y-67160000D01*
X159042929Y-68940000D02*
X159440000Y-68940000D01*
X159042929Y-69700000D02*
X159440000Y-69700000D01*
X159110000Y-61320000D02*
X159440000Y-61320000D01*
X159110000Y-62080000D02*
X159440000Y-62080000D01*
X159440000Y-60370000D02*
X159440000Y-70650000D01*
X159440000Y-62970000D02*
X162100000Y-62970000D01*
X159440000Y-65510000D02*
X162100000Y-65510000D01*
X159440000Y-68050000D02*
X162100000Y-68050000D01*
X159440000Y-70650000D02*
X162100000Y-70650000D01*
X162100000Y-60370000D02*
X159440000Y-60370000D01*
X162100000Y-61320000D02*
X168100000Y-61320000D01*
X162100000Y-61380000D02*
X168100000Y-61380000D01*
X162100000Y-61500000D02*
X168100000Y-61500000D01*
X162100000Y-61620000D02*
X168100000Y-61620000D01*
X162100000Y-61740000D02*
X168100000Y-61740000D01*
X162100000Y-61860000D02*
X168100000Y-61860000D01*
X162100000Y-61980000D02*
X168100000Y-61980000D01*
X162100000Y-63860000D02*
X168100000Y-63860000D01*
X162100000Y-66400000D02*
X168100000Y-66400000D01*
X162100000Y-68940000D02*
X168100000Y-68940000D01*
X162100000Y-70650000D02*
X162100000Y-60370000D01*
X168100000Y-61320000D02*
X168100000Y-62080000D01*
X168100000Y-62080000D02*
X162100000Y-62080000D01*
X168100000Y-63860000D02*
X168100000Y-64620000D01*
X168100000Y-64620000D02*
X162100000Y-64620000D01*
X168100000Y-66400000D02*
X168100000Y-67160000D01*
X168100000Y-67160000D02*
X162100000Y-67160000D01*
X168100000Y-68940000D02*
X168100000Y-69700000D01*
X168100000Y-69700000D02*
X162100000Y-69700000D01*
%TO.C,J5*%
X131090000Y-108110000D02*
X131090000Y-110610000D01*
X131090000Y-110610000D02*
X133590000Y-110610000D01*
X131390000Y-106290000D02*
X131390000Y-110310000D01*
X131390000Y-108000000D02*
X131890000Y-108000000D01*
X131390000Y-108810000D02*
X132390000Y-108810000D01*
X131390000Y-110310000D02*
X139110000Y-110310000D01*
X131890000Y-106790000D02*
X138610000Y-106790000D01*
X131890000Y-108000000D02*
X131890000Y-106790000D01*
X132390000Y-108810000D02*
X132390000Y-110310000D01*
X138110000Y-108810000D02*
X138110000Y-110310000D01*
X138610000Y-106790000D02*
X138610000Y-108000000D01*
X138610000Y-108000000D02*
X139110000Y-108000000D01*
X139110000Y-106290000D02*
X131390000Y-106290000D01*
X139110000Y-108810000D02*
X138110000Y-108810000D01*
X139110000Y-110310000D02*
X139110000Y-106290000D01*
%TO.C,D1*%
X160170000Y-100764000D02*
X160170000Y-100920000D01*
X160170000Y-103080000D02*
X160170000Y-103236000D01*
X160170000Y-100764484D02*
G75*
G02*
X163402335Y-100921392I1560000J-1235516D01*
G01*
X160689039Y-100920000D02*
G75*
G02*
X162771130Y-100920163I1040961J-1080000D01*
G01*
X162771130Y-103079837D02*
G75*
G02*
X160689039Y-103080000I-1041130J1079837D01*
G01*
X163402335Y-103078608D02*
G75*
G02*
X160170000Y-103235516I-1672335J1078608D01*
G01*
%TO.C,J6*%
X156733632Y-91730000D02*
X158003632Y-91730000D01*
X156733632Y-93000000D02*
X156733632Y-91730000D01*
X159046561Y-95160000D02*
X159443632Y-95160000D01*
X159046561Y-95920000D02*
X159443632Y-95920000D01*
X159113632Y-92620000D02*
X159443632Y-92620000D01*
X159113632Y-93380000D02*
X159443632Y-93380000D01*
X159443632Y-91670000D02*
X159443632Y-96870000D01*
X159443632Y-94270000D02*
X162103632Y-94270000D01*
X159443632Y-96870000D02*
X162103632Y-96870000D01*
X162103632Y-91670000D02*
X159443632Y-91670000D01*
X162103632Y-92620000D02*
X168103632Y-92620000D01*
X162103632Y-92680000D02*
X168103632Y-92680000D01*
X162103632Y-92800000D02*
X168103632Y-92800000D01*
X162103632Y-92920000D02*
X168103632Y-92920000D01*
X162103632Y-93040000D02*
X168103632Y-93040000D01*
X162103632Y-93160000D02*
X168103632Y-93160000D01*
X162103632Y-93280000D02*
X168103632Y-93280000D01*
X162103632Y-95160000D02*
X168103632Y-95160000D01*
X162103632Y-96870000D02*
X162103632Y-91670000D01*
X168103632Y-92620000D02*
X168103632Y-93380000D01*
X168103632Y-93380000D02*
X162103632Y-93380000D01*
X168103632Y-95160000D02*
X168103632Y-95920000D01*
X168103632Y-95920000D02*
X162103632Y-95920000D01*
%TO.C,J2*%
X156730000Y-82220000D02*
X158000000Y-82220000D01*
X156730000Y-83490000D02*
X156730000Y-82220000D01*
X159042929Y-85650000D02*
X159440000Y-85650000D01*
X159042929Y-86410000D02*
X159440000Y-86410000D01*
X159042929Y-88190000D02*
X159440000Y-88190000D01*
X159042929Y-88950000D02*
X159440000Y-88950000D01*
X159110000Y-83110000D02*
X159440000Y-83110000D01*
X159110000Y-83870000D02*
X159440000Y-83870000D01*
X159440000Y-82160000D02*
X159440000Y-89900000D01*
X159440000Y-84760000D02*
X162100000Y-84760000D01*
X159440000Y-87300000D02*
X162100000Y-87300000D01*
X159440000Y-89900000D02*
X162100000Y-89900000D01*
X162100000Y-82160000D02*
X159440000Y-82160000D01*
X162100000Y-83110000D02*
X168100000Y-83110000D01*
X162100000Y-83170000D02*
X168100000Y-83170000D01*
X162100000Y-83290000D02*
X168100000Y-83290000D01*
X162100000Y-83410000D02*
X168100000Y-83410000D01*
X162100000Y-83530000D02*
X168100000Y-83530000D01*
X162100000Y-83650000D02*
X168100000Y-83650000D01*
X162100000Y-83770000D02*
X168100000Y-83770000D01*
X162100000Y-85650000D02*
X168100000Y-85650000D01*
X162100000Y-88190000D02*
X168100000Y-88190000D01*
X162100000Y-89900000D02*
X162100000Y-82160000D01*
X168100000Y-83110000D02*
X168100000Y-83870000D01*
X168100000Y-83870000D02*
X162100000Y-83870000D01*
X168100000Y-85650000D02*
X168100000Y-86410000D01*
X168100000Y-86410000D02*
X162100000Y-86410000D01*
X168100000Y-88190000D02*
X168100000Y-88950000D01*
X168100000Y-88950000D02*
X162100000Y-88950000D01*
%TO.C,J4*%
X156355000Y-105455000D02*
X157625000Y-105455000D01*
X156355000Y-106725000D02*
X156355000Y-105455000D01*
X158667929Y-108885000D02*
X159065000Y-108885000D01*
X158667929Y-109645000D02*
X159065000Y-109645000D01*
X158735000Y-106345000D02*
X159065000Y-106345000D01*
X158735000Y-107105000D02*
X159065000Y-107105000D01*
X159065000Y-105395000D02*
X159065000Y-110595000D01*
X159065000Y-107995000D02*
X161725000Y-107995000D01*
X159065000Y-110595000D02*
X161725000Y-110595000D01*
X161725000Y-105395000D02*
X159065000Y-105395000D01*
X161725000Y-106345000D02*
X167725000Y-106345000D01*
X161725000Y-106405000D02*
X167725000Y-106405000D01*
X161725000Y-106525000D02*
X167725000Y-106525000D01*
X161725000Y-106645000D02*
X167725000Y-106645000D01*
X161725000Y-106765000D02*
X167725000Y-106765000D01*
X161725000Y-106885000D02*
X167725000Y-106885000D01*
X161725000Y-107005000D02*
X167725000Y-107005000D01*
X161725000Y-108885000D02*
X167725000Y-108885000D01*
X161725000Y-110595000D02*
X161725000Y-105395000D01*
X167725000Y-106345000D02*
X167725000Y-107105000D01*
X167725000Y-107105000D02*
X161725000Y-107105000D01*
X167725000Y-108885000D02*
X167725000Y-109645000D01*
X167725000Y-109645000D02*
X161725000Y-109645000D01*
%TO.C,J9*%
X152373632Y-95930000D02*
X152373632Y-60310000D01*
X155033632Y-60310000D02*
X152373632Y-60310000D01*
X155033632Y-95930000D02*
X152373632Y-95930000D01*
X155033632Y-95930000D02*
X155033632Y-60310000D01*
X155033632Y-97200000D02*
X155033632Y-98530000D01*
X155033632Y-98530000D02*
X153703632Y-98530000D01*
%TO.C,J10*%
X128670000Y-60310000D02*
X130000000Y-60310000D01*
X128670000Y-61640000D02*
X128670000Y-60310000D01*
X128670000Y-62910000D02*
X128670000Y-98530000D01*
X128670000Y-62910000D02*
X131330000Y-62910000D01*
X128670000Y-98530000D02*
X131330000Y-98530000D01*
X131330000Y-62910000D02*
X131330000Y-98530000D01*
%TO.C,D2*%
X157290000Y-100920000D02*
X157290000Y-100764000D01*
X157290000Y-103236000D02*
X157290000Y-103080000D01*
X154057665Y-100921392D02*
G75*
G02*
X157290000Y-100764484I1672335J-1078608D01*
G01*
X154688870Y-100920163D02*
G75*
G02*
X156770961Y-100920000I1041130J-1079837D01*
G01*
X156770961Y-103080000D02*
G75*
G02*
X154688870Y-103079837I-1040961J1080000D01*
G01*
X157290000Y-103235516D02*
G75*
G02*
X154057665Y-103078608I-1560000J1235516D01*
G01*
%TO.C,F1*%
X142690000Y-108000000D02*
X143380000Y-108000000D01*
X143380000Y-106280000D02*
X143380000Y-109720000D01*
X143380000Y-109720000D02*
X152620000Y-109720000D01*
X152620000Y-106280000D02*
X143380000Y-106280000D01*
X152620000Y-109720000D02*
X152620000Y-106280000D01*
X153310000Y-108000000D02*
X152620000Y-108000000D01*
%TO.C,J3*%
X156730000Y-72705000D02*
X158000000Y-72705000D01*
X156730000Y-73975000D02*
X156730000Y-72705000D01*
X159042929Y-76135000D02*
X159440000Y-76135000D01*
X159042929Y-76895000D02*
X159440000Y-76895000D01*
X159042929Y-78675000D02*
X159440000Y-78675000D01*
X159042929Y-79435000D02*
X159440000Y-79435000D01*
X159110000Y-73595000D02*
X159440000Y-73595000D01*
X159110000Y-74355000D02*
X159440000Y-74355000D01*
X159440000Y-72645000D02*
X159440000Y-80385000D01*
X159440000Y-75245000D02*
X162100000Y-75245000D01*
X159440000Y-77785000D02*
X162100000Y-77785000D01*
X159440000Y-80385000D02*
X162100000Y-80385000D01*
X162100000Y-72645000D02*
X159440000Y-72645000D01*
X162100000Y-73595000D02*
X168100000Y-73595000D01*
X162100000Y-73655000D02*
X168100000Y-73655000D01*
X162100000Y-73775000D02*
X168100000Y-73775000D01*
X162100000Y-73895000D02*
X168100000Y-73895000D01*
X162100000Y-74015000D02*
X168100000Y-74015000D01*
X162100000Y-74135000D02*
X168100000Y-74135000D01*
X162100000Y-74255000D02*
X168100000Y-74255000D01*
X162100000Y-76135000D02*
X168100000Y-76135000D01*
X162100000Y-78675000D02*
X168100000Y-78675000D01*
X162100000Y-80385000D02*
X162100000Y-72645000D01*
X168100000Y-73595000D02*
X168100000Y-74355000D01*
X168100000Y-74355000D02*
X162100000Y-74355000D01*
X168100000Y-76135000D02*
X168100000Y-76895000D01*
X168100000Y-76895000D02*
X162100000Y-76895000D01*
X168100000Y-78675000D02*
X168100000Y-79435000D01*
X168100000Y-79435000D02*
X162100000Y-79435000D01*
%TO.C,A1*%
X132890000Y-57710000D02*
X132890000Y-60380000D01*
X132890000Y-62920000D02*
X132890000Y-101150000D01*
X132890000Y-101150000D02*
X137970000Y-101150000D01*
X135560000Y-60380000D02*
X132890000Y-60380000D01*
X135560000Y-62920000D02*
X132890000Y-62920000D01*
X135560000Y-62920000D02*
X135560000Y-60380000D01*
X135560000Y-62920000D02*
X135560000Y-98480000D01*
X135560000Y-98480000D02*
X132890000Y-98480000D01*
X137970000Y-93270000D02*
X145850000Y-93270000D01*
X137970000Y-103690000D02*
X137970000Y-93270000D01*
X145850000Y-93270000D02*
X145850000Y-103690000D01*
X145850000Y-103690000D02*
X137970000Y-103690000D01*
X148260000Y-60380000D02*
X148260000Y-98480000D01*
X148260000Y-60380000D02*
X150930000Y-60380000D01*
X148260000Y-98480000D02*
X150930000Y-98480000D01*
X150930000Y-57710000D02*
X132890000Y-57710000D01*
X150930000Y-101150000D02*
X145850000Y-101150000D01*
X150930000Y-101150000D02*
X150930000Y-57710000D01*
%TO.C,R1*%
X165477500Y-101745276D02*
X165477500Y-102254724D01*
X166522500Y-101745276D02*
X166522500Y-102254724D01*
%TD*%
M02*
