%TF.GenerationSoftware,KiCad,Pcbnew,8.0.3*%
%TF.CreationDate,2024-09-12T15:26:23+02:00*%
%TF.ProjectId,pcb_robot,7063625f-726f-4626-9f74-2e6b69636164,rev?*%
%TF.SameCoordinates,Original*%
%TF.FileFunction,Legend,Top*%
%TF.FilePolarity,Positive*%
%FSLAX46Y46*%
G04 Gerber Fmt 4.6, Leading zero omitted, Abs format (unit mm)*
G04 Created by KiCad (PCBNEW 8.0.3) date 2024-09-12 15:26:23*
%MOMM*%
%LPD*%
G01*
G04 APERTURE LIST*
%ADD10C,0.100000*%
%ADD11C,0.150000*%
%ADD12C,0.120000*%
G04 APERTURE END LIST*
D10*
X129065789Y-63467657D02*
X129827693Y-63467657D01*
X130780074Y-62324800D02*
X129922932Y-63610514D01*
X131637218Y-63467657D02*
X132399122Y-63467657D01*
X143175200Y-76756265D02*
X143127580Y-76899122D01*
X143127580Y-76899122D02*
X143127580Y-77137217D01*
X143127580Y-77137217D02*
X143175200Y-77232455D01*
X143175200Y-77232455D02*
X143222819Y-77280074D01*
X143222819Y-77280074D02*
X143318057Y-77327693D01*
X143318057Y-77327693D02*
X143413295Y-77327693D01*
X143413295Y-77327693D02*
X143508533Y-77280074D01*
X143508533Y-77280074D02*
X143556152Y-77232455D01*
X143556152Y-77232455D02*
X143603771Y-77137217D01*
X143603771Y-77137217D02*
X143651390Y-76946741D01*
X143651390Y-76946741D02*
X143699009Y-76851503D01*
X143699009Y-76851503D02*
X143746628Y-76803884D01*
X143746628Y-76803884D02*
X143841866Y-76756265D01*
X143841866Y-76756265D02*
X143937104Y-76756265D01*
X143937104Y-76756265D02*
X144032342Y-76803884D01*
X144032342Y-76803884D02*
X144079961Y-76851503D01*
X144079961Y-76851503D02*
X144127580Y-76946741D01*
X144127580Y-76946741D02*
X144127580Y-77184836D01*
X144127580Y-77184836D02*
X144079961Y-77327693D01*
X144127580Y-77613408D02*
X144127580Y-78184836D01*
X143127580Y-77899122D02*
X144127580Y-77899122D01*
X143127580Y-78518170D02*
X144127580Y-78518170D01*
X144127580Y-78518170D02*
X143413295Y-78851503D01*
X143413295Y-78851503D02*
X144127580Y-79184836D01*
X144127580Y-79184836D02*
X143127580Y-79184836D01*
X144127580Y-79565789D02*
X144127580Y-80184836D01*
X144127580Y-80184836D02*
X143746628Y-79851503D01*
X143746628Y-79851503D02*
X143746628Y-79994360D01*
X143746628Y-79994360D02*
X143699009Y-80089598D01*
X143699009Y-80089598D02*
X143651390Y-80137217D01*
X143651390Y-80137217D02*
X143556152Y-80184836D01*
X143556152Y-80184836D02*
X143318057Y-80184836D01*
X143318057Y-80184836D02*
X143222819Y-80137217D01*
X143222819Y-80137217D02*
X143175200Y-80089598D01*
X143175200Y-80089598D02*
X143127580Y-79994360D01*
X143127580Y-79994360D02*
X143127580Y-79708646D01*
X143127580Y-79708646D02*
X143175200Y-79613408D01*
X143175200Y-79613408D02*
X143222819Y-79565789D01*
X144032342Y-80565789D02*
X144079961Y-80613408D01*
X144079961Y-80613408D02*
X144127580Y-80708646D01*
X144127580Y-80708646D02*
X144127580Y-80946741D01*
X144127580Y-80946741D02*
X144079961Y-81041979D01*
X144079961Y-81041979D02*
X144032342Y-81089598D01*
X144032342Y-81089598D02*
X143937104Y-81137217D01*
X143937104Y-81137217D02*
X143841866Y-81137217D01*
X143841866Y-81137217D02*
X143699009Y-81089598D01*
X143699009Y-81089598D02*
X143127580Y-80518170D01*
X143127580Y-80518170D02*
X143127580Y-81137217D01*
X143127580Y-82803884D02*
X143127580Y-82327694D01*
X143127580Y-82327694D02*
X144127580Y-82327694D01*
X143794247Y-83565789D02*
X143127580Y-83565789D01*
X144175200Y-83327694D02*
X143460914Y-83089599D01*
X143460914Y-83089599D02*
X143460914Y-83708646D01*
X144127580Y-83994361D02*
X144127580Y-84613408D01*
X144127580Y-84613408D02*
X143746628Y-84280075D01*
X143746628Y-84280075D02*
X143746628Y-84422932D01*
X143746628Y-84422932D02*
X143699009Y-84518170D01*
X143699009Y-84518170D02*
X143651390Y-84565789D01*
X143651390Y-84565789D02*
X143556152Y-84613408D01*
X143556152Y-84613408D02*
X143318057Y-84613408D01*
X143318057Y-84613408D02*
X143222819Y-84565789D01*
X143222819Y-84565789D02*
X143175200Y-84518170D01*
X143175200Y-84518170D02*
X143127580Y-84422932D01*
X143127580Y-84422932D02*
X143127580Y-84137218D01*
X143127580Y-84137218D02*
X143175200Y-84041980D01*
X143175200Y-84041980D02*
X143222819Y-83994361D01*
X144032342Y-84994361D02*
X144079961Y-85041980D01*
X144079961Y-85041980D02*
X144127580Y-85137218D01*
X144127580Y-85137218D02*
X144127580Y-85375313D01*
X144127580Y-85375313D02*
X144079961Y-85470551D01*
X144079961Y-85470551D02*
X144032342Y-85518170D01*
X144032342Y-85518170D02*
X143937104Y-85565789D01*
X143937104Y-85565789D02*
X143841866Y-85565789D01*
X143841866Y-85565789D02*
X143699009Y-85518170D01*
X143699009Y-85518170D02*
X143127580Y-84946742D01*
X143127580Y-84946742D02*
X143127580Y-85565789D01*
X143127580Y-85994361D02*
X144127580Y-85994361D01*
X143127580Y-86565789D02*
X143699009Y-86137218D01*
X144127580Y-86565789D02*
X143556152Y-85994361D01*
X143222819Y-87565789D02*
X143175200Y-87518170D01*
X143175200Y-87518170D02*
X143127580Y-87375313D01*
X143127580Y-87375313D02*
X143127580Y-87280075D01*
X143127580Y-87280075D02*
X143175200Y-87137218D01*
X143175200Y-87137218D02*
X143270438Y-87041980D01*
X143270438Y-87041980D02*
X143365676Y-86994361D01*
X143365676Y-86994361D02*
X143556152Y-86946742D01*
X143556152Y-86946742D02*
X143699009Y-86946742D01*
X143699009Y-86946742D02*
X143889485Y-86994361D01*
X143889485Y-86994361D02*
X143984723Y-87041980D01*
X143984723Y-87041980D02*
X144079961Y-87137218D01*
X144079961Y-87137218D02*
X144127580Y-87280075D01*
X144127580Y-87280075D02*
X144127580Y-87375313D01*
X144127580Y-87375313D02*
X144079961Y-87518170D01*
X144079961Y-87518170D02*
X144032342Y-87565789D01*
X160508533Y-62303884D02*
X160508533Y-63065789D01*
X160508533Y-63541979D02*
X160508533Y-64303884D01*
X160127580Y-63922931D02*
X160889485Y-63922931D01*
X160127580Y-65256264D02*
X160127580Y-64780074D01*
X160127580Y-64780074D02*
X161127580Y-64780074D01*
X160413295Y-65541979D02*
X160413295Y-66018169D01*
X160127580Y-65446741D02*
X161127580Y-65780074D01*
X161127580Y-65780074D02*
X160127580Y-66113407D01*
X141803884Y-61872419D02*
X141803884Y-60872419D01*
X141803884Y-61348609D02*
X142375312Y-61348609D01*
X142375312Y-61872419D02*
X142375312Y-60872419D01*
X142803884Y-61586704D02*
X143280074Y-61586704D01*
X142708646Y-61872419D02*
X143041979Y-60872419D01*
X143041979Y-60872419D02*
X143375312Y-61872419D01*
X143708646Y-60872419D02*
X143708646Y-61681942D01*
X143708646Y-61681942D02*
X143756265Y-61777180D01*
X143756265Y-61777180D02*
X143803884Y-61824800D01*
X143803884Y-61824800D02*
X143899122Y-61872419D01*
X143899122Y-61872419D02*
X144089598Y-61872419D01*
X144089598Y-61872419D02*
X144184836Y-61824800D01*
X144184836Y-61824800D02*
X144232455Y-61777180D01*
X144232455Y-61777180D02*
X144280074Y-61681942D01*
X144280074Y-61681942D02*
X144280074Y-60872419D01*
X144613408Y-60872419D02*
X145184836Y-60872419D01*
X144899122Y-61872419D02*
X144899122Y-60872419D01*
X160508533Y-75303884D02*
X160508533Y-76065789D01*
X160508533Y-76541979D02*
X160508533Y-77303884D01*
X160127580Y-76922931D02*
X160889485Y-76922931D01*
X160508533Y-77637217D02*
X160556152Y-77684836D01*
X160556152Y-77684836D02*
X160603771Y-77780074D01*
X160603771Y-77780074D02*
X160508533Y-77970550D01*
X160508533Y-77970550D02*
X160556152Y-78065788D01*
X160556152Y-78065788D02*
X160603771Y-78113407D01*
X160508533Y-69303884D02*
X160508533Y-70065789D01*
X160508533Y-70541979D02*
X160508533Y-71303884D01*
X160127580Y-70922931D02*
X160889485Y-70922931D01*
X160508533Y-71637217D02*
X160556152Y-71684836D01*
X160556152Y-71684836D02*
X160603771Y-71780074D01*
X160603771Y-71780074D02*
X160508533Y-71970550D01*
X160508533Y-71970550D02*
X160556152Y-72065788D01*
X160556152Y-72065788D02*
X160603771Y-72113407D01*
X142137217Y-100848609D02*
X142280074Y-100896228D01*
X142280074Y-100896228D02*
X142327693Y-100943847D01*
X142327693Y-100943847D02*
X142375312Y-101039085D01*
X142375312Y-101039085D02*
X142375312Y-101181942D01*
X142375312Y-101181942D02*
X142327693Y-101277180D01*
X142327693Y-101277180D02*
X142280074Y-101324800D01*
X142280074Y-101324800D02*
X142184836Y-101372419D01*
X142184836Y-101372419D02*
X141803884Y-101372419D01*
X141803884Y-101372419D02*
X141803884Y-100372419D01*
X141803884Y-100372419D02*
X142137217Y-100372419D01*
X142137217Y-100372419D02*
X142232455Y-100420038D01*
X142232455Y-100420038D02*
X142280074Y-100467657D01*
X142280074Y-100467657D02*
X142327693Y-100562895D01*
X142327693Y-100562895D02*
X142327693Y-100658133D01*
X142327693Y-100658133D02*
X142280074Y-100753371D01*
X142280074Y-100753371D02*
X142232455Y-100800990D01*
X142232455Y-100800990D02*
X142137217Y-100848609D01*
X142137217Y-100848609D02*
X141803884Y-100848609D01*
X142756265Y-101086704D02*
X143232455Y-101086704D01*
X142661027Y-101372419D02*
X142994360Y-100372419D01*
X142994360Y-100372419D02*
X143327693Y-101372419D01*
X143613408Y-101324800D02*
X143756265Y-101372419D01*
X143756265Y-101372419D02*
X143994360Y-101372419D01*
X143994360Y-101372419D02*
X144089598Y-101324800D01*
X144089598Y-101324800D02*
X144137217Y-101277180D01*
X144137217Y-101277180D02*
X144184836Y-101181942D01*
X144184836Y-101181942D02*
X144184836Y-101086704D01*
X144184836Y-101086704D02*
X144137217Y-100991466D01*
X144137217Y-100991466D02*
X144089598Y-100943847D01*
X144089598Y-100943847D02*
X143994360Y-100896228D01*
X143994360Y-100896228D02*
X143803884Y-100848609D01*
X143803884Y-100848609D02*
X143708646Y-100800990D01*
X143708646Y-100800990D02*
X143661027Y-100753371D01*
X143661027Y-100753371D02*
X143613408Y-100658133D01*
X143613408Y-100658133D02*
X143613408Y-100562895D01*
X143613408Y-100562895D02*
X143661027Y-100467657D01*
X143661027Y-100467657D02*
X143708646Y-100420038D01*
X143708646Y-100420038D02*
X143803884Y-100372419D01*
X143803884Y-100372419D02*
X144041979Y-100372419D01*
X144041979Y-100372419D02*
X144184836Y-100420038D01*
X128008533Y-92303884D02*
X128008533Y-93065789D01*
X127627580Y-92684836D02*
X128389485Y-92684836D01*
X128008533Y-94303884D02*
X128008533Y-95065789D01*
D11*
X130431009Y-81633333D02*
X130431009Y-81966666D01*
X130954819Y-81966666D02*
X129954819Y-81966666D01*
X129954819Y-81966666D02*
X129954819Y-81490476D01*
X130954819Y-80585714D02*
X130954819Y-81157142D01*
X130954819Y-80871428D02*
X129954819Y-80871428D01*
X129954819Y-80871428D02*
X130097676Y-80966666D01*
X130097676Y-80966666D02*
X130192914Y-81061904D01*
X130192914Y-81061904D02*
X130240533Y-81157142D01*
X159954819Y-82666666D02*
X159478628Y-82999999D01*
X159954819Y-83238094D02*
X158954819Y-83238094D01*
X158954819Y-83238094D02*
X158954819Y-82857142D01*
X158954819Y-82857142D02*
X159002438Y-82761904D01*
X159002438Y-82761904D02*
X159050057Y-82714285D01*
X159050057Y-82714285D02*
X159145295Y-82666666D01*
X159145295Y-82666666D02*
X159288152Y-82666666D01*
X159288152Y-82666666D02*
X159383390Y-82714285D01*
X159383390Y-82714285D02*
X159431009Y-82761904D01*
X159431009Y-82761904D02*
X159478628Y-82857142D01*
X159478628Y-82857142D02*
X159478628Y-83238094D01*
X159954819Y-81714285D02*
X159954819Y-82285713D01*
X159954819Y-81999999D02*
X158954819Y-81999999D01*
X158954819Y-81999999D02*
X159097676Y-82095237D01*
X159097676Y-82095237D02*
X159192914Y-82190475D01*
X159192914Y-82190475D02*
X159240533Y-82285713D01*
D12*
%TO.C,J7*%
X153315000Y-61340000D02*
X154075000Y-61340000D01*
X153315000Y-62100000D02*
X153315000Y-61340000D01*
X154515000Y-63989677D02*
X154515000Y-64020323D01*
X154515000Y-64005000D02*
X155635000Y-64005000D01*
X154515000Y-65259677D02*
X154515000Y-65290323D01*
X154515000Y-65275000D02*
X155635000Y-65275000D01*
X154515000Y-66605000D02*
X154515000Y-66529677D01*
X154835000Y-61405000D02*
X155635000Y-61405000D01*
X154835000Y-62735000D02*
X155635000Y-62735000D01*
X155635000Y-61405000D02*
X155635000Y-66605000D01*
X155635000Y-61840000D02*
X159635000Y-61840000D01*
X155635000Y-61900000D02*
X159635000Y-61900000D01*
X155635000Y-62020000D02*
X159635000Y-62020000D01*
X155635000Y-62140000D02*
X159635000Y-62140000D01*
X155635000Y-62260000D02*
X159635000Y-62260000D01*
X155635000Y-63110000D02*
X159635000Y-63110000D01*
X155635000Y-64380000D02*
X159635000Y-64380000D01*
X155635000Y-65650000D02*
X159635000Y-65650000D01*
X155635000Y-66605000D02*
X154515000Y-66605000D01*
X159635000Y-61840000D02*
X159635000Y-62360000D01*
X159635000Y-62360000D02*
X155635000Y-62360000D01*
X159635000Y-63110000D02*
X159635000Y-63630000D01*
X159635000Y-63630000D02*
X155635000Y-63630000D01*
X159635000Y-64380000D02*
X159635000Y-64900000D01*
X159635000Y-64900000D02*
X155635000Y-64900000D01*
X159635000Y-65650000D02*
X159635000Y-66170000D01*
X159635000Y-66170000D02*
X155635000Y-66170000D01*
%TO.C,J5*%
X128600000Y-89990000D02*
X128600000Y-97710000D01*
X128600000Y-97710000D02*
X132620000Y-97710000D01*
X129100000Y-90490000D02*
X130310000Y-90490000D01*
X129100000Y-97210000D02*
X129100000Y-90490000D01*
X130310000Y-90490000D02*
X130310000Y-89990000D01*
X130310000Y-97210000D02*
X129100000Y-97210000D01*
X130310000Y-97710000D02*
X130310000Y-97210000D01*
X130420000Y-98010000D02*
X132920000Y-98010000D01*
X131120000Y-89990000D02*
X131120000Y-90990000D01*
X131120000Y-90990000D02*
X132620000Y-90990000D01*
X131120000Y-96710000D02*
X132620000Y-96710000D01*
X131120000Y-97710000D02*
X131120000Y-96710000D01*
X132620000Y-89990000D02*
X128600000Y-89990000D01*
X132620000Y-97710000D02*
X132620000Y-89990000D01*
X132920000Y-98010000D02*
X132920000Y-95510000D01*
%TO.C,D1*%
X154920000Y-86435000D02*
X154764000Y-86435000D01*
X157236000Y-86435000D02*
X157080000Y-86435000D01*
X154920163Y-89036130D02*
G75*
G02*
X154920000Y-86954039I1079837J1041130D01*
G01*
X154921392Y-89667335D02*
G75*
G02*
X154764484Y-86435000I1078608J1672335D01*
G01*
X157080000Y-86954039D02*
G75*
G02*
X157079837Y-89036130I-1080000J-1040961D01*
G01*
X157235516Y-86435000D02*
G75*
G02*
X157078608Y-89667335I-1235516J-1560000D01*
G01*
%TO.C,J6*%
X154290000Y-96890000D02*
X154290000Y-104610000D01*
X154290000Y-104610000D02*
X158310000Y-104610000D01*
X154790000Y-97390000D02*
X156000000Y-97390000D01*
X154790000Y-104110000D02*
X154790000Y-97390000D01*
X156000000Y-97390000D02*
X156000000Y-96890000D01*
X156000000Y-104110000D02*
X154790000Y-104110000D01*
X156000000Y-104610000D02*
X156000000Y-104110000D01*
X156110000Y-104910000D02*
X158610000Y-104910000D01*
X156810000Y-96890000D02*
X156810000Y-97890000D01*
X156810000Y-97890000D02*
X158310000Y-97890000D01*
X156810000Y-103610000D02*
X158310000Y-103610000D01*
X156810000Y-104610000D02*
X156810000Y-103610000D01*
X158310000Y-96890000D02*
X154290000Y-96890000D01*
X158310000Y-104610000D02*
X158310000Y-96890000D01*
X158610000Y-104910000D02*
X158610000Y-102410000D01*
%TO.C,J2*%
X153315000Y-74465000D02*
X154075000Y-74465000D01*
X153315000Y-75225000D02*
X153315000Y-74465000D01*
X154515000Y-77114677D02*
X154515000Y-77145323D01*
X154515000Y-77130000D02*
X155635000Y-77130000D01*
X154515000Y-78460000D02*
X154515000Y-78384677D01*
X154835000Y-74530000D02*
X155635000Y-74530000D01*
X154835000Y-75860000D02*
X155635000Y-75860000D01*
X155635000Y-74530000D02*
X155635000Y-78460000D01*
X155635000Y-74965000D02*
X159635000Y-74965000D01*
X155635000Y-75025000D02*
X159635000Y-75025000D01*
X155635000Y-75145000D02*
X159635000Y-75145000D01*
X155635000Y-75265000D02*
X159635000Y-75265000D01*
X155635000Y-75385000D02*
X159635000Y-75385000D01*
X155635000Y-76235000D02*
X159635000Y-76235000D01*
X155635000Y-77505000D02*
X159635000Y-77505000D01*
X155635000Y-78460000D02*
X154515000Y-78460000D01*
X159635000Y-74965000D02*
X159635000Y-75485000D01*
X159635000Y-75485000D02*
X155635000Y-75485000D01*
X159635000Y-76235000D02*
X159635000Y-76755000D01*
X159635000Y-76755000D02*
X155635000Y-76755000D01*
X159635000Y-77505000D02*
X159635000Y-78025000D01*
X159635000Y-78025000D02*
X155635000Y-78025000D01*
%TO.C,J4*%
X129090000Y-71335000D02*
X129090000Y-70575000D01*
X129155000Y-69015000D02*
X131815000Y-69015000D01*
X129155000Y-69815000D02*
X129155000Y-69015000D01*
X129590000Y-65015000D02*
X130110000Y-65015000D01*
X129590000Y-69015000D02*
X129590000Y-65015000D01*
X129650000Y-69015000D02*
X129650000Y-65015000D01*
X129770000Y-69015000D02*
X129770000Y-65015000D01*
X129850000Y-71335000D02*
X129090000Y-71335000D01*
X129890000Y-69015000D02*
X129890000Y-65015000D01*
X130010000Y-69015000D02*
X130010000Y-65015000D01*
X130110000Y-65015000D02*
X130110000Y-69015000D01*
X130485000Y-69815000D02*
X130485000Y-69015000D01*
X130860000Y-65015000D02*
X131380000Y-65015000D01*
X130860000Y-69015000D02*
X130860000Y-65015000D01*
X131380000Y-65015000D02*
X131380000Y-69015000D01*
X131815000Y-69015000D02*
X131815000Y-70135000D01*
X131815000Y-70135000D02*
X131739677Y-70135000D01*
%TO.C,D2*%
X154920000Y-91670000D02*
X154764000Y-91670000D01*
X157236000Y-91670000D02*
X157080000Y-91670000D01*
X154920163Y-94271130D02*
G75*
G02*
X154920000Y-92189039I1079837J1041130D01*
G01*
X154921392Y-94902335D02*
G75*
G02*
X154764484Y-91670000I1078608J1672335D01*
G01*
X157080000Y-92189039D02*
G75*
G02*
X157079837Y-94271130I-1080000J-1040961D01*
G01*
X157235516Y-91670000D02*
G75*
G02*
X157078608Y-94902335I-1235516J-1560000D01*
G01*
%TO.C,F1*%
X128780000Y-76680000D02*
X128780000Y-85920000D01*
X128780000Y-85920000D02*
X132220000Y-85920000D01*
X130500000Y-75990000D02*
X130500000Y-76680000D01*
X130500000Y-86610000D02*
X130500000Y-85920000D01*
X132220000Y-76680000D02*
X128780000Y-76680000D01*
X132220000Y-85920000D02*
X132220000Y-76680000D01*
%TO.C,J3*%
X153315000Y-68465000D02*
X154075000Y-68465000D01*
X153315000Y-69225000D02*
X153315000Y-68465000D01*
X154515000Y-71114677D02*
X154515000Y-71145323D01*
X154515000Y-71130000D02*
X155635000Y-71130000D01*
X154515000Y-72460000D02*
X154515000Y-72384677D01*
X154835000Y-68530000D02*
X155635000Y-68530000D01*
X154835000Y-69860000D02*
X155635000Y-69860000D01*
X155635000Y-68530000D02*
X155635000Y-72460000D01*
X155635000Y-68965000D02*
X159635000Y-68965000D01*
X155635000Y-69025000D02*
X159635000Y-69025000D01*
X155635000Y-69145000D02*
X159635000Y-69145000D01*
X155635000Y-69265000D02*
X159635000Y-69265000D01*
X155635000Y-69385000D02*
X159635000Y-69385000D01*
X155635000Y-70235000D02*
X159635000Y-70235000D01*
X155635000Y-71505000D02*
X159635000Y-71505000D01*
X155635000Y-72460000D02*
X154515000Y-72460000D01*
X159635000Y-68965000D02*
X159635000Y-69485000D01*
X159635000Y-69485000D02*
X155635000Y-69485000D01*
X159635000Y-70235000D02*
X159635000Y-70755000D01*
X159635000Y-70755000D02*
X155635000Y-70755000D01*
X159635000Y-71505000D02*
X159635000Y-72025000D01*
X159635000Y-72025000D02*
X155635000Y-72025000D01*
%TO.C,A1*%
X133990000Y-59510000D02*
X133990000Y-62180000D01*
X133990000Y-64720000D02*
X133990000Y-102950000D01*
X133990000Y-102950000D02*
X139070000Y-102950000D01*
X136660000Y-62180000D02*
X133990000Y-62180000D01*
X136660000Y-64720000D02*
X133990000Y-64720000D01*
X136660000Y-64720000D02*
X136660000Y-62180000D01*
X136660000Y-64720000D02*
X136660000Y-100280000D01*
X136660000Y-100280000D02*
X133990000Y-100280000D01*
X139070000Y-95070000D02*
X146950000Y-95070000D01*
X139070000Y-105490000D02*
X139070000Y-95070000D01*
X146950000Y-95070000D02*
X146950000Y-105490000D01*
X146950000Y-105490000D02*
X139070000Y-105490000D01*
X149360000Y-62180000D02*
X149360000Y-100280000D01*
X149360000Y-62180000D02*
X152030000Y-62180000D01*
X149360000Y-100280000D02*
X152030000Y-100280000D01*
X152030000Y-59510000D02*
X133990000Y-59510000D01*
X152030000Y-102950000D02*
X146950000Y-102950000D01*
X152030000Y-102950000D02*
X152030000Y-59510000D01*
%TO.C,R1*%
X155477500Y-82245276D02*
X155477500Y-82754724D01*
X156522500Y-82245276D02*
X156522500Y-82754724D01*
%TD*%
M02*
