M48
; DRILL file {KiCad 8.0.3} date 2024-09-12T15:26:27+0200
; FORMAT={-:-/ absolute / inch / decimal}
; #@! TF.CreationDate,2024-09-12T15:26:27+02:00
; #@! TF.GenerationSoftware,Kicad,Pcbnew,8.0.3
; #@! TF.FileFunction,Plated,1,2,PTH
FMAT,2
INCH
; #@! TA.AperFunction,Plated,PTH,ComponentDrill
T1C0.0256
; #@! TA.AperFunction,Plated,PTH,ComponentDrill
T2C0.0315
; #@! TA.AperFunction,Plated,PTH,ComponentDrill
T3C0.0354
; #@! TA.AperFunction,Plated,PTH,ComponentDrill
T4C0.0394
%
G90
G05
T1
X5.1122Y-2.7785
X5.1622Y-2.7785
X6.0659Y-2.4449
X6.0659Y-2.4949
X6.0659Y-2.5449
X6.0659Y-2.5949
X6.0659Y-2.7254
X6.0659Y-2.7754
X6.0659Y-2.8254
X6.0659Y-2.9616
X6.0659Y-3.0116
X6.0659Y-3.0616
T2
X5.1378Y-2.9508
X5.1378Y-3.4508
T3
X6.1417Y-3.4144
X6.1417Y-3.5144
X6.1417Y-3.6205
X6.1417Y-3.7205
T4
X5.1303Y-3.6457
X5.1303Y-3.7441
X5.3303Y-2.498
X5.3303Y-2.598
X5.3303Y-2.698
X5.3303Y-2.798
X5.3303Y-2.898
X5.3303Y-2.998
X5.3303Y-3.098
X5.3303Y-3.198
X5.3303Y-3.298
X5.3303Y-3.398
X5.3303Y-3.498
X5.3303Y-3.598
X5.3303Y-3.698
X5.3303Y-3.798
X5.3303Y-3.898
X5.9303Y-2.498
X5.9303Y-2.598
X5.9303Y-2.698
X5.9303Y-2.798
X5.9303Y-2.898
X5.9303Y-2.998
X5.9303Y-3.098
X5.9303Y-3.198
X5.9303Y-3.298
X5.9303Y-3.398
X5.9303Y-3.498
X5.9303Y-3.598
X5.9303Y-3.698
X5.9303Y-3.798
X5.9303Y-3.898
X6.1417Y-3.9173
X6.1417Y-4.0157
M30
